<svg width="24" height="24" viewBox="0 0 24 24" fill="none" xmlns="http://www.w3.org/2000/svg">
<rect width="24" height="24" rx="12" fill="white"/>
<path fill-rule="evenodd" clip-rule="evenodd" d="M22 12C22 17.5228 17.5228 22 12 22C6.47715 22 2 17.5228 2 12C2 6.47715 6.47715 2 12 2C17.5228 2 22 6.47715 22 12ZM24 12C24 18.6274 18.6274 24 12 24C5.37258 24 0 18.6274 0 12C0 5.37258 5.37258 0 12 0C18.6274 0 24 5.37258 24 12ZM9.10547 8.19619V15.8041C9.10547 16.5932 9.97662 17.0714 10.6423 16.6477L16.62 12.8438C17.2375 12.4508 17.2375 11.5494 16.62 11.1565L10.6423 7.35252C9.97662 6.92888 9.10547 7.40709 9.10547 8.19619Z" fill="#7AC7FF"/>
</svg>
