<svg width="24" height="24" viewBox="0 0 24 24" fill="none" xmlns="http://www.w3.org/2000/svg">
<path d="M0 3C0 1.34315 1.34315 0 3 0H16.5C17.8807 0 19 1.11929 19 2.5C19 3.88071 20.1193 5 21.5 5C22.8807 5 24 6.11929 24 7.5V21C24 22.6569 22.6569 24 21 24H3C1.34315 24 0 22.6569 0 21V3Z" fill="white"/>
<path fill-rule="evenodd" clip-rule="evenodd" d="M0 3C0 1.34315 1.34315 0 3 0H17C18.6569 0 20 1.34315 20 3C20 3.55228 20.4477 4 21 4C22.6569 4 24 5.34315 24 7V21C24 22.6569 22.6569 24 21 24H19H3C1.34315 24 0 22.6569 0 21V3ZM20 21C20 21.5523 20.4477 22 21 22C21.5523 22 22 21.5523 22 21V7C22 6.44771 21.5523 6 21 6C20.4477 6 20 6.44772 20 7V21ZM17 22C17.5523 22 18 21.5523 18 21V5V3C18 2.44772 17.5523 2 17 2H3C2.44772 2 2 2.44772 2 3V21C2 21.5523 2.44772 22 3 22H17ZM4 5C4 4.44772 4.44772 4 5 4H10C10.5523 4 11 4.44772 11 5V8C11 8.55229 10.5523 9 10 9H5C4.44772 9 4 8.55229 4 8V5ZM16 4.5C16 4.22386 15.7761 4 15.5 4H12.5C12.2239 4 12 4.22386 12 4.5C12 4.77614 12.2239 5 12.5 5H15.5C15.7761 5 16 4.77614 16 4.5ZM12 6.5C12 6.22386 12.2239 6 12.5 6H15.5C15.7761 6 16 6.22386 16 6.5C16 6.77614 15.7761 7 15.5 7H12.5C12.2239 7 12 6.77614 12 6.5ZM16 8.5C16 8.22386 15.7761 8 15.5 8H12.5C12.2239 8 12 8.22386 12 8.5C12 8.77614 12.2239 9 12.5 9H15.5C15.7761 9 16 8.77614 16 8.5ZM4 10.5C4 10.2239 4.22386 10 4.5 10H15.5C15.7761 10 16 10.2239 16 10.5C16 10.7761 15.7761 11 15.5 11H4.5C4.22386 11 4 10.7761 4 10.5ZM16 12.5C16 12.2239 15.7761 12 15.5 12H4.5C4.22386 12 4 12.2239 4 12.5C4 12.7761 4.22386 13 4.5 13H15.5C15.7761 13 16 12.7761 16 12.5ZM4 14.5C4 14.2239 4.22386 14 4.5 14H15.5C15.7761 14 16 14.2239 16 14.5C16 14.7761 15.7761 15 15.5 15H4.5C4.22386 15 4 14.7761 4 14.5ZM16 16.5C16 16.2239 15.7761 16 15.5 16H4.5C4.22386 16 4 16.2239 4 16.5C4 16.7761 4.22386 17 4.5 17H15.5C15.7761 17 16 16.7761 16 16.5ZM4 18.5C4 18.2239 4.22386 18 4.5 18H15.5C15.7761 18 16 18.2239 16 18.5C16 18.7761 15.7761 19 15.5 19H4.5C4.22386 19 4 18.7761 4 18.5ZM16 20.5C16 20.2239 15.7761 20 15.5 20H4.5C4.22386 20 4 20.2239 4 20.5C4 20.7761 4.22386 21 4.5 21H15.5C15.7761 21 16 20.7761 16 20.5Z" fill="#C6D4F9"/>
</svg>
