<svg width="24" height="24" viewBox="0 0 24 24" fill="none" xmlns="http://www.w3.org/2000/svg">
<rect width="24" height="24" rx="3" fill="white"/>
<path fill-rule="evenodd" clip-rule="evenodd" d="M21 2H3C2.44772 2 2 2.44772 2 3V14.6667L5.23092 10.3588C6.07897 9.22804 7.80045 9.30983 8.53748 10.5159L11.0922 14.6964C11.7926 15.8425 13.4012 15.9861 14.2936 14.9822L15.2623 13.8924C15.9596 13.1079 17.1447 12.9959 17.9766 13.6358L22 16.7308V3C22 2.44772 21.5523 2 21 2ZM3 0C1.34315 0 0 1.34315 0 3V21C0 22.6569 1.34315 24 3 24H21C22.6569 24 24 22.6569 24 21V3C24 1.34315 22.6569 0 21 0H3ZM17 8C18.1046 8 19 7.10457 19 6C19 4.89543 18.1046 4 17 4C15.8954 4 15 4.89543 15 6C15 7.10457 15.8954 8 17 8Z" fill="#709EF6"/>
</svg>
