<svg width="24" height="24" viewBox="0 0 24 24" fill="none" xmlns="http://www.w3.org/2000/svg">
<rect width="24" height="24" rx="3" fill="white"/>
<path fill-rule="evenodd" clip-rule="evenodd" d="M3 2H21C21.5523 2 22 2.44772 22 3V21C22 21.3785 21.7897 21.708 21.4795 21.8778C21.2373 22.0104 21 21.7761 21 21.5C21 21.2239 20.7761 21 20.5 21H19.5C19.2239 21 19 21.2239 19 21.5C19 21.7761 18.7761 22 18.5 22C18.2239 22 18 21.7761 18 21.5V20C18 19.4477 17.5523 19 17 19H7C6.44772 19 6 19.4477 6 20V21.5C6 21.7761 5.77614 22 5.5 22C5.22386 22 5 21.7761 5 21.5C5 21.2239 4.77614 21 4.5 21H3.5C3.22386 21 3 21.2239 3 21.5C3 21.7761 2.76274 22.0104 2.52051 21.8778C2.21034 21.708 2 21.3785 2 21V3C2 2.44772 2.44772 2 3 2ZM0 3C0 1.34315 1.34315 0 3 0H21C22.6569 0 24 1.34315 24 3V21C24 22.6569 22.6569 24 21 24H3C1.34315 24 0 22.6569 0 21V3ZM5 3.5C5 3.22386 4.77614 3 4.5 3H3.5C3.22386 3 3 3.22386 3 3.5C3 3.77614 3.22386 4 3.5 4H4.5C4.77614 4 5 3.77614 5 3.5ZM3 5.5C3 5.22386 3.22386 5 3.5 5H4.5C4.77614 5 5 5.22386 5 5.5C5 5.77614 4.77614 6 4.5 6H3.5C3.22386 6 3 5.77614 3 5.5ZM5 7.5C5 7.22386 4.77614 7 4.5 7H3.5C3.22386 7 3 7.22386 3 7.5C3 7.77614 3.22386 8 3.5 8H4.5C4.77614 8 5 7.77614 5 7.5ZM3 9.5C3 9.22386 3.22386 9 3.5 9H4.5C4.77614 9 5 9.22386 5 9.5C5 9.77614 4.77614 10 4.5 10H3.5C3.22386 10 3 9.77614 3 9.5ZM5 11.5C5 11.2239 4.77614 11 4.5 11H3.5C3.22386 11 3 11.2239 3 11.5C3 11.7761 3.22386 12 3.5 12H4.5C4.77614 12 5 11.7761 5 11.5ZM3 13.5C3 13.2239 3.22386 13 3.5 13H4.5C4.77614 13 5 13.2239 5 13.5C5 13.7761 4.77614 14 4.5 14H3.5C3.22386 14 3 13.7761 3 13.5ZM5 15.5C5 15.2239 4.77614 15 4.5 15H3.5C3.22386 15 3 15.2239 3 15.5C3 15.7761 3.22386 16 3.5 16H4.5C4.77614 16 5 15.7761 5 15.5ZM3 17.5C3 17.2239 3.22386 17 3.5 17H4.5C4.77614 17 5 17.2239 5 17.5C5 17.7761 4.77614 18 4.5 18H3.5C3.22386 18 3 17.7761 3 17.5ZM5 19.5C5 19.2239 4.77614 19 4.5 19H3.5C3.22386 19 3 19.2239 3 19.5C3 19.7761 3.22386 20 3.5 20H4.5C4.77614 20 5 19.7761 5 19.5ZM21 3.5C21 3.22386 20.7761 3 20.5 3H19.5C19.2239 3 19 3.22386 19 3.5C19 3.77614 19.2239 4 19.5 4H20.5C20.7761 4 21 3.77614 21 3.5ZM19 5.5C19 5.22386 19.2239 5 19.5 5H20.5C20.7761 5 21 5.22386 21 5.5C21 5.77614 20.7761 6 20.5 6H19.5C19.2239 6 19 5.77614 19 5.5ZM21 7.5C21 7.22386 20.7761 7 20.5 7H19.5C19.2239 7 19 7.22386 19 7.5C19 7.77614 19.2239 8 19.5 8H20.5C20.7761 8 21 7.77614 21 7.5ZM19 9.5C19 9.22386 19.2239 9 19.5 9H20.5C20.7761 9 21 9.22386 21 9.5C21 9.77614 20.7761 10 20.5 10H19.5C19.2239 10 19 9.77614 19 9.5ZM21 11.5C21 11.2239 20.7761 11 20.5 11H19.5C19.2239 11 19 11.2239 19 11.5C19 11.7761 19.2239 12 19.5 12H20.5C20.7761 12 21 11.7761 21 11.5ZM19 13.5C19 13.2239 19.2239 13 19.5 13H20.5C20.7761 13 21 13.2239 21 13.5C21 13.7761 20.7761 14 20.5 14H19.5C19.2239 14 19 13.7761 19 13.5ZM21 15.5C21 15.2239 20.7761 15 20.5 15H19.5C19.2239 15 19 15.2239 19 15.5C19 15.7761 19.2239 16 19.5 16H20.5C20.7761 16 21 15.7761 21 15.5ZM19 17.5C19 17.2239 19.2239 17 19.5 17H20.5C20.7761 17 21 17.2239 21 17.5C21 17.7761 20.7761 18 20.5 18H19.5C19.2239 18 19 17.7761 19 17.5ZM21 19.5C21 19.2239 20.7761 19 20.5 19H19.5C19.2239 19 19 19.2239 19 19.5C19 19.7761 19.2239 20 19.5 20H20.5C20.7761 20 21 19.7761 21 19.5ZM18 4C18 3.44772 17.5523 3 17 3H7C6.44772 3 6 3.44772 6 4V7C6 7.55228 6.44771 8 7 8H17C17.5523 8 18 7.55228 18 7V4ZM18 10C18 9.44771 17.5523 9 17 9H7C6.44772 9 6 9.44771 6 10V17C6 17.5523 6.44771 18 7 18H17C17.5523 18 18 17.5523 18 17V10Z" fill="#FFAC99"/>
</svg>
