<svg width="123" height="104" viewBox="0 0 123 104" fill="none" xmlns="http://www.w3.org/2000/svg">
<path fill-rule="evenodd" clip-rule="evenodd" d="M47.2428 44.8441C46.2149 44.902 45.1834 44.9694 44.3182 45.0758C28.8764 46.8924 12.7523 53.0497 0.936105 63.1786C0.510344 63.5495 0.431119 64.1888 0.801654 64.6216C1.17219 65.0543 1.79534 65.0944 2.22142 64.7227C13.8259 54.8881 29.5175 48.8943 44.5743 47.1261C45.0574 47.0611 45.6222 47.0197 46.1882 46.9751C45.7905 48.1693 45.7892 49.2867 46.0203 50.2829C46.4115 51.7799 47.4218 53.1023 48.8082 54.1752C50.7526 55.6691 53.3583 56.6621 55.9258 57.08C57.9021 57.3813 59.8492 57.3087 61.2423 56.8047C62.4061 56.4151 63.2299 55.7405 63.6824 54.8586C64.1547 53.9281 64.2021 52.699 63.4694 51.1441C62.2786 48.4787 59.8476 46.8344 56.8592 45.8835C54.6773 45.1925 52.2387 44.9061 49.8953 44.8325C50.39 44.2934 50.9838 43.7355 51.6777 43.1557C57.0811 38.8777 66.729 36.7179 77.3386 36.0006C93.4815 34.9242 111.88 37.2566 121.12 40.9981C121.59 41.1883 122.235 40.9521 122.45 40.4262C122.666 39.9003 122.371 39.2829 121.901 39.0927C112.426 35.2557 93.6916 32.8514 77.1797 33.9371C66.0976 34.6936 56.0009 37.0557 50.4141 41.5583C49.0334 42.7008 47.9518 43.7814 47.2428 44.8441ZM48.4198 46.8748C47.9029 47.914 47.7838 48.8734 47.9733 49.7482C48.2604 50.8305 49.0623 51.7703 50.0292 52.5302C51.6934 53.8167 53.9912 54.6714 56.2167 55.033C57.7622 55.2717 59.3116 55.2771 60.4587 54.9281C61.0901 54.7239 61.5797 54.4213 61.8616 53.9557C62.0696 53.4478 61.968 52.8028 61.653 52.0117C60.6232 49.8448 58.5818 48.5881 56.2379 47.8469C53.8126 47.0816 50.9061 46.8225 48.4198 46.8748Z" fill="#74266C"/>
<path fill-rule="evenodd" clip-rule="evenodd" d="M2.23721 64.6233C6.29601 60.285 9.15722 54.4139 10.6809 48.6865C10.8165 48.1325 10.4997 47.5691 10.0038 47.4423C9.43016 47.2827 8.8438 47.5986 8.70853 48.1519C7.22939 53.5474 4.58234 59.1198 0.717693 63.2069C0.36015 63.6342 0.369168 64.2814 0.761174 64.6617C1.23165 65.0733 1.87967 65.0505 2.23721 64.6233Z" fill="#74266C"/>
<path fill-rule="evenodd" clip-rule="evenodd" d="M2.09847 64.8844C7.12147 62.2043 13.5067 62.887 18.8474 64.3356C19.3432 64.4624 19.9295 64.1455 20.065 63.5915C20.2003 63.0382 19.8827 62.4755 19.3087 62.3166C13.5535 60.7655 6.59534 60.1464 1.1088 63.0667C0.629565 63.3453 0.462085 63.9777 0.716335 64.4714C0.970266 64.966 1.61955 65.1622 2.09847 64.8844Z" fill="#74266C"/>
</svg>
