<svg width="123" height="33" viewBox="0 0 123 33" fill="none" xmlns="http://www.w3.org/2000/svg">
<path fill-rule="evenodd" clip-rule="evenodd" d="M47.2428 11.8441C46.2149 11.902 45.1834 11.9694 44.3182 12.0758C28.8764 13.8924 12.7523 20.0497 0.936105 30.1786C0.510344 30.5495 0.431119 31.1888 0.801654 31.6216C1.17219 32.0543 1.79534 32.0944 2.22142 31.7227C13.8259 21.8881 29.5175 15.8943 44.5743 14.1261C45.0574 14.0611 45.6222 14.0197 46.1882 13.9751C45.7905 15.1693 45.7892 16.2867 46.0203 17.2829C46.4115 18.7799 47.4218 20.1023 48.8082 21.1752C50.7526 22.6691 53.3583 23.6621 55.9258 24.08C57.9021 24.3813 59.8492 24.3087 61.2423 23.8047C62.4061 23.4151 63.2299 22.7405 63.6824 21.8586C64.1547 20.9281 64.2021 19.699 63.4694 18.1441C62.2786 15.4787 59.8476 13.8344 56.8592 12.8835C54.6773 12.1925 52.2387 11.9061 49.8953 11.8325C50.39 11.2934 50.9838 10.7355 51.6777 10.1557C57.0811 5.87767 66.729 3.7179 77.3386 3.00056C93.4815 1.92417 111.88 4.25663 121.12 7.99815C121.59 8.18831 122.235 7.95206 122.45 7.4262C122.666 6.90034 122.371 6.28286 121.901 6.09269C112.426 2.2557 93.6916 -0.148627 77.1797 0.937145C66.0976 1.6936 56.0009 4.0557 50.4141 8.55828C49.0334 9.70075 47.9518 10.7814 47.2428 11.8441ZM48.4198 13.8748C47.9029 14.914 47.7838 15.8734 47.9733 16.7482C48.2604 17.8305 49.0623 18.7703 50.0292 19.5302C51.6934 20.8167 53.9912 21.6714 56.2167 22.033C57.7622 22.2717 59.3116 22.2771 60.4587 21.9281C61.0901 21.7239 61.5797 21.4213 61.8616 20.9557C62.0696 20.4478 61.968 19.8028 61.653 19.0117C60.6232 16.8448 58.5818 15.5881 56.2379 14.8469C53.8126 14.0816 50.9061 13.8225 48.4198 13.8748Z" fill="#74266C"/>
<path fill-rule="evenodd" clip-rule="evenodd" d="M2.23721 31.6233C6.29601 27.285 9.15722 21.4139 10.6809 15.6865C10.8165 15.1325 10.4997 14.5691 10.0038 14.4423C9.43016 14.2827 8.8438 14.5986 8.70853 15.1519C7.22939 20.5474 4.58234 26.1198 0.717693 30.2069C0.36015 30.6342 0.369168 31.2814 0.761174 31.6617C1.23165 32.0733 1.87967 32.0505 2.23721 31.6233Z" fill="#74266C"/>
<path fill-rule="evenodd" clip-rule="evenodd" d="M2.09847 31.8844C7.12147 29.2043 13.5067 29.887 18.8474 31.3356C19.3432 31.4624 19.9295 31.1455 20.065 30.5915C20.2003 30.0382 19.8827 29.4755 19.3087 29.3166C13.5535 27.7655 6.59534 27.1464 1.1088 30.0667C0.629565 30.3453 0.462085 30.9777 0.716335 31.4714C0.970266 31.966 1.61955 32.1622 2.09847 31.8844Z" fill="#74266C"/>
</svg>
