<svg width="86" height="58" viewBox="0 0 86 58" fill="none" xmlns="http://www.w3.org/2000/svg">
<path fill-rule="evenodd" clip-rule="evenodd" d="M36.1678 13.2314C36.7133 12.9757 37.3603 13.2162 37.6129 13.7684C38.4162 15.5241 38.8776 17.3627 39.2487 19.1537C39.3741 19.7588 39.4878 20.3499 39.5998 20.932C39.8272 22.1135 40.0473 23.2577 40.343 24.405C40.4948 24.9938 40.1463 25.5956 39.5647 25.7491C38.983 25.9026 38.3885 25.5498 38.2367 24.9609C37.9239 23.7475 37.6808 22.4853 37.4457 21.2651C37.3368 20.7 37.2297 20.1439 37.1182 19.6058C36.7571 17.8633 36.3357 16.2199 35.6376 14.6941C35.385 14.1419 35.6224 13.487 36.1678 13.2314Z" fill="black"/>
<path fill-rule="evenodd" clip-rule="evenodd" d="M29.3245 14.9471C29.213 14.3544 29.6011 13.7819 30.1914 13.6684L42.1887 11.3613C42.779 11.2478 43.3479 11.6363 43.4595 12.229C43.5711 12.8217 43.183 13.3942 42.5927 13.5077L30.5953 15.8148C30.005 15.9283 29.4361 15.5398 29.3245 14.9471Z" fill="black"/>
<path fill-rule="evenodd" clip-rule="evenodd" d="M47.0743 10.0218C47.6387 10.046 48.0884 10.5599 48.0788 11.1696C48.0631 12.1624 48.0812 13.1545 48.0998 14.1699C48.1014 14.2588 48.103 14.3478 48.1046 14.4371C48.1245 15.5379 48.1413 16.6648 48.1083 17.7995C48.0786 18.8251 47.9936 19.7409 47.9137 20.6028C47.903 20.7189 47.8923 20.834 47.8818 20.9483C47.7932 21.9191 47.7196 22.8467 47.7303 23.8977C47.7365 24.5078 47.284 24.9967 46.7196 24.9897C46.1552 24.9826 45.6925 24.4822 45.6863 23.872C45.6743 22.6944 45.7575 21.6675 45.8476 20.682C45.8583 20.5643 45.8691 20.4474 45.8799 20.331C45.9601 19.4648 46.0378 18.6256 46.0652 17.6804C46.0963 16.6082 46.0808 15.5325 46.0609 14.4301C46.0593 14.3395 46.0576 14.2486 46.0559 14.1576C46.0375 13.1496 46.0186 12.1176 46.035 11.082C46.0446 10.4723 46.5099 9.9976 47.0743 10.0218Z" fill="black"/>
<path fill-rule="evenodd" clip-rule="evenodd" d="M46.9646 10.0414C47.5079 9.82961 48.1177 10.1098 48.3267 10.6673C48.5515 11.2667 48.942 11.7561 49.4691 12.4165C49.5199 12.4802 49.572 12.5454 49.6253 12.6126C51.0194 14.3669 52.4514 16.0447 54.0082 17.6077C54.6337 18.2356 55.0563 18.8952 55.4112 19.4489C55.4385 19.4915 55.4654 19.5335 55.4919 19.5748C55.8733 20.1676 56.1999 20.6461 56.6927 21.0817C57.1343 21.472 57.185 22.1539 56.8058 22.6047C56.4266 23.0554 55.7611 23.1044 55.3195 22.7141C54.586 22.0658 54.1234 21.3642 53.7333 20.7576C53.7127 20.7256 53.6923 20.694 53.6722 20.6626C53.3005 20.0842 52.9932 19.6058 52.536 19.1468C50.903 17.5074 49.4162 15.7628 47.9927 13.9715C47.9389 13.9038 47.8829 13.8341 47.8252 13.7623C47.3302 13.1468 46.7144 12.381 46.3593 11.4341C46.1503 10.8767 46.4213 10.2531 46.9646 10.0414Z" fill="black"/>
<path fill-rule="evenodd" clip-rule="evenodd" d="M53.6546 17.5581C53.7766 18.0986 53.3796 18.6439 52.7679 18.7761C51.8127 18.9827 51.0665 19.2427 50.2573 19.5247C50.2203 19.5376 50.1831 19.5505 50.1458 19.5635C49.2938 19.8601 48.3729 20.1738 47.1788 20.399C46.5637 20.515 45.9811 20.1679 45.8775 19.6237C45.7739 19.0796 46.1885 18.5444 46.8036 18.4284C47.7991 18.2407 48.5693 17.9813 49.4044 17.6906C49.4491 17.675 49.494 17.6594 49.5392 17.6436C50.3371 17.3653 51.2143 17.0594 52.3261 16.819C52.9378 16.6868 53.5326 17.0177 53.6546 17.5581Z" fill="black"/>
<path fill-rule="evenodd" clip-rule="evenodd" d="M56.0357 8.08821C56.5662 7.8273 57.2053 8.05211 57.463 8.59035C57.9961 9.70382 58.4286 10.8515 58.8313 11.9702C58.9253 12.2313 59.0173 12.4898 59.1085 12.7461C59.4134 13.6027 59.7095 14.4343 60.0404 15.2549C60.6117 16.6713 60.9666 17.5229 61.3831 18.5221C61.6292 19.1127 61.8969 19.7549 62.2434 20.5956C62.4709 21.1477 62.2141 21.7819 61.6699 22.0121C61.1257 22.2424 60.5002 21.9815 60.2727 21.4295C59.9333 20.606 59.6676 19.9686 59.4217 19.3786C59.0013 18.3698 58.6386 17.4994 58.0635 16.0735C57.7139 15.2068 57.3974 14.3175 57.0898 13.453C57.0009 13.2034 56.9128 12.9558 56.8249 12.7115C56.4269 11.6059 56.0248 10.5443 55.5416 9.53518C55.2839 8.99695 55.5051 8.34912 56.0357 8.08821Z" fill="black"/>
<path fill-rule="evenodd" clip-rule="evenodd" d="M57.6843 9.90456C57.3486 9.96208 57.0109 10.02 56.6695 10.0773C56.0871 10.1751 55.5387 9.78897 55.4445 9.21486C55.3503 8.64075 55.7461 8.09607 56.3284 7.99826C56.6543 7.94355 56.9834 7.88716 57.3146 7.83041C58.089 7.6977 58.8748 7.56305 59.6567 7.44331C60.4512 7.32162 61.5084 7.17799 62.5186 7.40132C63.2641 7.56615 64.0115 8.00131 64.5672 8.5465C65.1067 9.07583 65.6362 9.88407 65.5681 10.84C65.5134 11.6092 65.0141 12.1618 64.6774 12.4799C64.4921 12.655 64.297 12.8122 64.1342 12.9409C64.0944 12.9724 64.0573 13.0016 64.0224 13.029C63.902 13.1237 63.8084 13.1973 63.7246 13.2697C63.1143 13.7969 62.4738 14.2594 61.8496 14.6983C61.6789 14.8183 61.4735 14.9306 61.3108 15.0178C61.2533 15.0486 61.1987 15.0775 61.1459 15.1055C61.0279 15.168 60.9191 15.2257 60.8082 15.2882C60.6519 15.3763 60.5452 15.4447 60.4794 15.496C60.2276 15.9445 59.677 16.1601 59.1764 15.9817C58.623 15.7844 58.3402 15.1803 58.5447 14.6323C58.6898 14.2435 58.9839 13.9868 59.1535 13.8534C59.3504 13.6985 59.5724 13.5651 59.7608 13.4588C59.8976 13.3818 60.0462 13.303 60.1738 13.2353C60.2205 13.2106 60.2644 13.1873 60.3039 13.1661C60.4745 13.0748 60.5705 13.0187 60.62 12.9839C61.2356 12.5511 61.8016 12.1402 62.3255 11.6876C62.4508 11.5794 62.5962 11.4651 62.722 11.3663C62.7517 11.3429 62.7803 11.3204 62.8073 11.2991C62.9631 11.1759 63.095 11.068 63.2071 10.9621C63.3829 10.796 63.428 10.7096 63.4374 10.6915C63.4352 10.5893 63.3643 10.3522 63.0548 10.0485C62.7412 9.74086 62.3385 9.5266 62.0351 9.45951C61.4659 9.33368 60.7821 9.40243 59.9669 9.52729C59.2047 9.64402 58.4499 9.77336 57.6843 9.90456ZM60.4382 15.5317C60.4379 15.5317 60.4409 15.5283 60.4484 15.5215C60.4423 15.5283 60.4385 15.5317 60.4382 15.5317Z" fill="black"/>
<path fill-rule="evenodd" clip-rule="evenodd" d="M32.8439 34.5844C33.4188 34.408 34.0261 34.7328 34.2003 35.3099C34.5825 36.5758 35.0309 37.8223 35.4916 39.1028C35.6906 39.6559 35.8918 40.2153 36.091 40.7854C36.7412 42.6462 37.3525 44.5775 37.6889 46.5707C37.7893 47.1654 37.3905 47.7305 36.7982 47.8328C36.2059 47.935 35.6444 47.5358 35.5441 46.9411C35.2394 45.1356 34.6782 43.3455 34.0382 41.5136C33.8537 40.9856 33.661 40.45 33.4666 39.9095C32.9973 38.6049 32.5179 37.2718 32.1184 35.9489C31.9442 35.3718 32.269 34.7609 32.8439 34.5844Z" fill="black"/>
<path fill-rule="evenodd" clip-rule="evenodd" d="M41.0878 42.1602C40.5452 42.0766 40.1094 42.1669 39.3271 42.3638C38.2729 42.6292 37.1543 42.7316 36.1438 42.8242C35.8386 42.8521 35.5434 42.8791 35.2627 42.9095C34.6653 42.9741 34.13 42.5401 34.0671 41.9401C34.0043 41.3401 34.4376 40.8013 35.0351 40.7367C35.3947 40.6978 35.7405 40.6659 36.0756 40.6351C37.0461 40.5456 37.928 40.4644 38.8032 40.2441C39.5749 40.0499 40.4 39.8424 41.4229 40.0001C42.0165 40.0916 42.4226 40.6493 42.3301 41.2458C42.2376 41.8423 41.6814 42.2517 41.0878 42.1602Z" fill="black"/>
<path fill-rule="evenodd" clip-rule="evenodd" d="M39.4841 33.111C40.0509 32.9099 40.6717 33.2081 40.8705 33.777C41.7981 36.4314 42.8403 38.9811 44.1114 41.4868C44.2316 41.7236 44.3624 41.97 44.4979 42.225C45.0142 43.197 45.5977 44.2955 45.9116 45.4754C46.0666 46.0581 45.7218 46.6578 45.1414 46.815C44.561 46.9721 43.9648 46.6272 43.8098 46.0445C43.5666 45.1302 43.1399 44.3239 42.6448 43.3881C42.4927 43.1009 42.3343 42.8014 42.1727 42.4828C40.8485 39.8726 39.7699 37.2302 38.8177 34.5054C38.6189 33.9364 38.9172 33.3121 39.4841 33.111Z" fill="black"/>
<path fill-rule="evenodd" clip-rule="evenodd" d="M44.9794 32.2539C45.5479 32.0575 46.1661 32.3608 46.3603 32.9314C47.0197 34.8697 47.5754 36.8174 48.1259 38.7469C48.2613 39.2216 48.3964 39.6951 48.5327 40.1672C48.5815 40.3363 48.6313 40.507 48.6814 40.6791C48.9057 41.4487 49.1381 42.2462 49.3314 43.053C49.3417 43.096 49.3498 43.1376 49.3558 43.1711C49.4605 43.1715 49.5782 43.1688 49.7063 43.1632C49.9569 43.1523 50.216 43.1316 50.4471 43.1112C50.5076 43.1058 50.5699 43.1001 50.631 43.0945C50.7819 43.0807 50.9256 43.0675 51.0172 43.062C52.2555 42.9884 53.4213 42.6548 54.5492 42.108C55.0907 41.8454 55.7405 42.073 56.0005 42.6164C56.2606 43.1598 56.0324 43.8131 55.4909 44.0757C54.1393 44.731 52.6968 45.151 51.1405 45.2436C51.0846 45.2469 51 45.2547 50.8776 45.2659C50.8086 45.2723 50.7275 45.2797 50.6327 45.2881C50.3913 45.3095 50.0946 45.3334 49.7958 45.3465C49.5036 45.3593 49.1761 45.3634 48.8813 45.3367C48.7346 45.3235 48.5656 45.3001 48.3988 45.2543C48.2536 45.2144 47.9935 45.1275 47.7647 44.9171C47.5349 44.7056 47.4305 44.4526 47.3857 44.3314C47.332 44.1862 47.2991 44.0434 47.278 43.9384C47.2567 43.8325 47.2409 43.7298 47.2302 43.6608L47.2295 43.6563C47.2185 43.5851 47.2148 43.5642 47.2151 43.5641C47.2151 43.5641 47.2156 43.5662 47.2164 43.5693C47.0366 42.819 46.8224 42.0837 46.5991 41.3172C46.5475 41.1402 46.4955 40.9615 46.4432 40.7805C46.3028 40.2939 46.1648 39.8105 46.0277 39.3299C45.4786 37.4056 44.9416 35.524 44.3016 33.6427C44.1074 33.0721 44.4109 32.4503 44.9794 32.2539Z" fill="black"/>
<path fill-rule="evenodd" clip-rule="evenodd" d="M52.5965 37.3466C52.937 37.843 52.8117 38.5236 52.3168 38.8668C51.5247 39.4161 50.4805 39.6624 49.5839 39.7965C48.783 39.9162 47.9603 39.9636 47.3242 40.0003C47.228 40.0058 47.136 40.0111 47.0491 40.0164C46.4494 40.0527 45.9351 39.5938 45.9004 38.9914C45.8657 38.389 46.3238 37.8713 46.9235 37.835C47.019 37.8292 47.1166 37.8235 47.216 37.8177C47.8583 37.7804 48.5734 37.7389 49.2686 37.6349C50.0968 37.5111 50.7222 37.3201 51.0839 37.0693C51.5788 36.7261 52.2561 36.8503 52.5965 37.3466Z" fill="black"/>
<path fill-rule="evenodd" clip-rule="evenodd" d="M53.6919 31.5362C53.8177 32.126 53.4434 32.7077 52.856 32.8354C50.3492 33.3808 47.8993 33.6768 45.3562 33.8074C44.7561 33.8382 44.246 33.3747 44.2168 32.772C44.1876 32.1693 44.6503 31.6557 45.2503 31.6249C47.694 31.4994 50.0253 31.2163 52.4006 30.6996C52.988 30.5719 53.5661 30.9464 53.6919 31.5362Z" fill="black"/>
<path fill-rule="evenodd" clip-rule="evenodd" d="M55.4553 29.916C55.9865 29.6327 56.6446 29.835 56.9253 30.3678C57.7951 32.0189 58.518 34.2251 59.1737 36.396C59.3505 36.9813 59.5225 37.5643 59.6918 38.138C60.164 39.7383 60.6149 41.2665 61.0893 42.5729C61.295 43.1394 61.0043 43.7673 60.4399 43.9753C59.8755 44.1834 59.2511 43.8928 59.0454 43.3263C58.546 41.9512 58.0663 40.3252 57.5879 38.7036C57.4227 38.1434 57.2576 37.5838 57.0919 37.0352C56.4321 34.851 55.7613 32.8351 55.002 31.3937C54.7213 30.8609 54.9242 30.1993 55.4553 29.916Z" fill="black"/>
<path fill-rule="evenodd" clip-rule="evenodd" d="M57.4347 31.7349C56.9542 31.8456 56.4425 31.9502 56.0164 31.972C55.4164 32.0029 54.9063 31.5393 54.8771 30.9366C54.8479 30.3339 55.3106 29.8204 55.9106 29.7895C56.1261 29.7785 56.4708 29.7161 56.9534 29.6049C57.2215 29.5432 57.4787 29.4796 57.7503 29.4125C57.9833 29.3549 58.2269 29.2947 58.4973 29.2308C59.0392 29.1026 59.616 28.9777 60.1506 28.9076C60.6589 28.841 61.2518 28.8052 61.7732 28.9384C62.2688 29.065 62.9068 29.2366 63.4176 29.6908C63.9693 30.1812 64.2266 30.8532 64.3618 31.6347C64.5347 32.6332 64.1799 33.4533 63.615 34.051C63.0903 34.6061 62.3889 34.9723 61.7724 35.224C61.1414 35.4817 60.494 35.6602 60.0119 35.7881C59.9475 35.8052 59.8873 35.821 59.831 35.8358C59.6652 35.8795 59.5326 35.9144 59.4213 35.9468C59.3641 35.9635 59.3256 35.9758 59.3012 35.9842C58.8171 36.2549 58.1992 36.1173 57.879 35.6505C57.5386 35.1541 57.6638 34.4735 58.1588 34.1303C58.3035 34.0299 58.4529 33.9712 58.5305 33.9422C58.6253 33.9068 58.7264 33.8754 58.8199 33.8481C58.9611 33.807 59.1333 33.7616 59.3074 33.7158C59.3589 33.7023 59.4105 33.6887 59.4615 33.6752C59.9352 33.5495 60.4659 33.4005 60.9575 33.1998C61.4636 32.9931 61.8295 32.7701 62.0391 32.5483C62.2085 32.369 62.255 32.2247 62.2186 32.0142C62.1232 31.4632 62.0009 31.3531 61.9736 31.3288C61.9055 31.2682 61.7651 31.1925 61.2324 31.0565C61.127 31.0296 60.8744 31.0159 60.427 31.0746C60.006 31.1298 59.5169 31.2335 58.9911 31.3579C58.7776 31.4084 58.5393 31.4671 58.2997 31.5261C57.9978 31.6004 57.6938 31.6753 57.4347 31.7349Z" fill="black"/>
<path fill-rule="evenodd" clip-rule="evenodd" d="M58.9836 35.247C59.2797 34.7212 59.9434 34.535 60.4661 34.8311C62.4688 35.9657 64.2295 37.1996 65.9914 38.4344C66.7965 38.9986 67.6019 39.563 68.4307 40.1183C68.9299 40.4527 69.0638 41.131 68.7297 41.6333C68.3956 42.1357 67.72 42.2718 67.2208 41.9374C66.3104 41.3275 65.4648 40.7346 64.6411 40.157C62.9261 38.9544 61.3061 37.8185 59.394 36.7353C58.8713 36.4392 58.6876 35.7729 58.9836 35.247Z" fill="black"/>
<path fill-rule="evenodd" clip-rule="evenodd" d="M68.7709 28.4506C69.343 28.2651 69.9553 28.5803 70.1386 29.1545C70.6825 30.8588 71.2807 32.5499 71.89 34.255C71.9593 34.4489 72.0288 34.643 72.0983 34.8373C72.5452 36.0864 72.9954 37.3446 73.4271 38.6108C73.9019 38.4816 74.5264 38.2735 75.1888 38.0366C75.8891 37.7863 76.6041 37.5138 77.1821 37.2907C77.3391 37.2301 77.49 37.1715 77.6293 37.1174C77.9804 36.9811 78.2577 36.8735 78.3736 36.8338C78.9425 36.6387 79.56 36.9435 79.7528 37.5146C79.9456 38.0857 79.6407 38.7068 79.0717 38.9018C78.999 38.9267 78.8003 39.0039 78.497 39.1216C78.3433 39.1813 78.1628 39.2514 77.9582 39.3304C77.3749 39.5555 76.6399 39.8357 75.9137 40.0953C75.1946 40.3524 74.4559 40.5996 73.8738 40.7513C73.5918 40.8248 73.2925 40.8905 73.0316 40.9112C72.9101 40.9209 72.7153 40.9285 72.5078 40.8809C72.3297 40.84 71.8232 40.6777 71.6315 40.1022C71.1283 38.5924 70.592 37.0933 70.0509 35.5811C69.9815 35.3869 69.9119 35.1925 69.8424 34.9979C69.2328 33.2924 68.6233 31.5699 68.0669 29.8263C67.8836 29.252 68.1988 28.6361 68.7709 28.4506Z" fill="black"/>
<path fill-rule="evenodd" clip-rule="evenodd" d="M75.5124 31.7337C75.8529 32.2301 75.7277 32.9107 75.2327 33.2539C74.8374 33.5281 74.3604 33.6544 74.0415 33.7288C73.8427 33.7751 73.6995 33.8038 73.577 33.8284C73.4336 33.8571 73.3185 33.8802 73.1755 33.9193C72.4094 34.1288 71.9109 34.4172 71.133 34.9157C70.626 35.2406 69.9538 35.0918 69.6316 34.5833C69.3094 34.0748 69.4591 33.3991 69.9661 33.0742C70.7883 32.5473 71.5137 32.1103 72.6087 31.8108C72.7793 31.7641 72.9577 31.7262 73.1119 31.6942C73.144 31.6876 73.1751 31.6812 73.2055 31.6749C73.3309 31.6491 73.4429 31.6261 73.5543 31.6001C73.6904 31.5683 73.7974 31.5385 73.8813 31.5084C73.922 31.4937 73.9519 31.481 73.9729 31.4708C73.992 31.4615 74.0001 31.4562 74.0001 31.4562C74.0003 31.4561 74.0001 31.4562 74.0001 31.4562C74.495 31.113 75.172 31.2373 75.5124 31.7337Z" fill="black"/>
<path fill-rule="evenodd" clip-rule="evenodd" d="M73.9238 26.4195C74.4659 26.6784 74.6954 27.3301 74.4364 27.8753C74.2472 28.2735 73.9207 28.5019 73.7151 28.6217C73.4895 28.7533 73.2473 28.8461 73.0472 28.9125C72.8416 28.9808 72.6363 29.0354 72.4737 29.0774C72.4331 29.0879 72.3966 29.0972 72.3637 29.1057C72.2473 29.1355 72.1752 29.154 72.1217 29.1708C71.2795 29.4342 70.3915 29.6239 69.5613 29.8014C69.2122 29.876 68.8733 29.9484 68.5524 30.0232C67.9669 30.1596 67.3833 29.7937 67.2489 29.2058C67.1145 28.618 67.4802 28.0308 68.0657 27.8944C68.4723 27.7996 68.8578 27.7174 69.2305 27.638C70.0114 27.4714 70.7359 27.3169 71.4797 27.0843C71.593 27.0489 71.7392 27.0115 71.862 26.9801C71.8882 26.9734 71.9132 26.967 71.9367 26.961C72.0919 26.9209 72.2373 26.8814 72.369 26.8377C72.4675 26.805 72.5374 26.7766 72.5833 26.7548C72.8875 26.344 73.4471 26.1919 73.9238 26.4195ZM72.642 26.7223C72.6423 26.7224 72.6391 26.7248 72.6315 26.7294C72.638 26.7245 72.6418 26.7222 72.642 26.7223Z" fill="black"/>
<path fill-rule="evenodd" clip-rule="evenodd" d="M11.0413 50.0166C11.3794 49.5625 11.2863 48.9261 10.8332 48.5952C8.26612 46.72 5.75574 44.7643 3.2338 42.7996C2.83582 42.4896 2.43756 42.1793 2.03873 41.8691C1.59599 41.5247 0.952067 41.6055 0.600496 42.0495C0.248925 42.4935 0.322836 43.1326 0.765582 43.4769C1.16222 43.7854 1.55914 44.0947 1.95648 44.4042C4.47681 46.3677 7.01426 48.3445 9.6086 50.2396C10.0617 50.5705 10.7031 50.4707 11.0413 50.0166Z" fill="black"/>
<path fill-rule="evenodd" clip-rule="evenodd" d="M13.5228 30.6644C13.5228 30.1025 13.0766 29.6444 12.5261 29.6412C11.5896 29.6359 10.6316 29.5726 9.63172 29.5065C9.21885 29.4792 8.79885 29.4515 8.37025 29.4271C6.93633 29.3457 5.44209 29.3061 4.00893 29.4962C3.46346 29.5686 3.0812 30.079 3.15513 30.6363C3.22907 31.1935 3.7312 31.5866 4.27667 31.5142C5.51822 31.3495 6.85958 31.3788 8.2706 31.459C8.65748 31.4809 9.05302 31.5071 9.45259 31.5335C10.4766 31.6011 11.527 31.6705 12.526 31.6762C13.0765 31.6794 13.5228 31.2264 13.5228 30.6644Z" fill="black"/>
<path fill-rule="evenodd" clip-rule="evenodd" d="M11.8578 9.90988C11.605 9.4034 10.9984 9.19961 10.5029 9.45471C7.82784 10.832 5.48687 12.4881 3.39111 14.7182C3.0073 15.1266 3.02253 15.7766 3.42512 16.1701C3.82772 16.5635 4.46522 16.5514 4.84902 16.143C6.76215 14.1072 8.90922 12.5807 11.4184 11.2888C11.9139 11.0337 12.1106 10.4164 11.8578 9.90988Z" fill="black"/>
</svg>
