<svg width="144" height="31" viewBox="0 0 144 31" fill="none" xmlns="http://www.w3.org/2000/svg">
<g clip-path="url(#clip0_8_6)">
<path d="M53.2324 11.7513H56.6015V13.1913C57.0347 12.6793 57.532 12.2713 58.0936 11.9673C58.6551 11.6633 59.2727 11.5113 59.9466 11.5113C60.4279 11.5113 60.8129 11.5753 61.1017 11.7033L60.6685 14.3433L60.5001 14.5113C60.1792 14.4313 59.9065 14.3913 59.6819 14.3913C59.024 14.3913 58.4305 14.5753 57.901 14.9433C57.3716 15.3113 56.9384 15.8473 56.6015 16.5513V23.7513H53.2324V11.7513Z" fill="#121515"/>
<path d="M65.2124 23.9913C64.5224 23.9913 63.8808 23.8473 63.2871 23.5593C62.7095 23.2553 62.2443 22.8313 61.8913 22.2873C61.5544 21.7273 61.3861 21.0793 61.3861 20.3433C61.3861 19.2553 61.763 18.3833 62.517 17.7273C63.2711 17.0553 64.3059 16.6553 65.6215 16.5273L68.8703 16.1913V15.6633C68.8703 15.1193 68.6938 14.6953 68.3407 14.3913C68.0038 14.0873 67.5225 13.9353 66.8968 13.9353C66.3354 13.9353 65.8861 14.0873 65.5492 14.3913C65.2123 14.6793 65.0037 15.0793 64.9235 15.5913L62.0838 15.3513L61.9636 15.2073C62.2043 14.0073 62.7738 13.0953 63.6721 12.4713C64.5706 11.8313 65.6616 11.5113 66.945 11.5113C68.4691 11.5113 69.7045 11.8953 70.6511 12.6633C71.5976 13.4153 72.0709 14.4793 72.0709 15.8553V20.1513C72.0709 20.5193 72.143 20.7993 72.2874 20.9913C72.4479 21.1833 72.6645 21.2793 72.9372 21.2793C73.1137 21.2793 73.2661 21.2553 73.3944 21.2073L73.5148 21.3513V23.6553C73.0335 23.8153 72.48 23.8953 71.8543 23.8953C70.5548 23.8953 69.6564 23.3513 69.1589 22.2633H68.9906C68.429 22.8393 67.8515 23.2713 67.2579 23.5593C66.6642 23.8473 65.9825 23.9913 65.2124 23.9913ZM65.9825 21.4473C66.56 21.4473 67.0653 21.3033 67.4984 21.0153C67.9477 20.7273 68.405 20.2873 68.8703 19.6953V18.3033L66.2231 18.6393C65.6616 18.7033 65.2284 18.8713 64.9235 19.1433C64.6347 19.4153 64.4903 19.7513 64.4903 20.1513C64.4903 20.5513 64.6268 20.8713 64.8994 21.1113C65.1882 21.3353 65.5493 21.4473 65.9825 21.4473Z" fill="#121515"/>
<path d="M79.2208 23.9911C78.0978 23.9911 77.2074 23.6871 76.5496 23.0791C75.8919 22.4711 75.5629 21.5591 75.5629 20.3431V14.5351H73.4211V11.7511H75.5629V8.3191H75.9961L78.9079 9.3271V11.7511H81.4588V14.5351H78.9079V20.0551C78.9079 20.4391 79.0203 20.7351 79.2449 20.9431C79.4695 21.1511 79.7904 21.2551 80.2075 21.2551C80.4642 21.2551 80.785 21.1991 81.1701 21.0871L81.3385 21.1831V23.7511C80.6487 23.9111 79.9427 23.9911 79.2208 23.9911Z" fill="#121515"/>
<path d="M88.6273 23.9913C87.44 23.9913 86.3732 23.7353 85.4266 23.2233C84.4962 22.6953 83.7662 21.9593 83.2367 21.0153C82.7073 20.0713 82.4426 18.9833 82.4426 17.7513C82.4426 16.5353 82.7233 15.4553 83.2849 14.5113C83.8624 13.5673 84.6244 12.8313 85.571 12.3033C86.5176 11.7753 87.5363 11.5113 88.6273 11.5113C89.8145 11.5113 90.8653 11.7593 91.7798 12.2553C92.6943 12.7513 93.4002 13.4633 93.8975 14.3913C94.411 15.3193 94.6676 16.4153 94.6676 17.6793V18.5673H85.6192C85.6994 19.3993 86.0123 20.0633 86.5577 20.5593C87.1193 21.0393 87.8332 21.2793 88.6995 21.2793C90.0793 21.2793 90.9937 20.6633 91.4429 19.4313L94.2585 19.7193L94.427 20.0073C93.9778 21.3353 93.2558 22.3353 92.2611 23.0073C91.2825 23.6633 90.0712 23.9913 88.6273 23.9913ZM91.491 16.4073C91.4108 15.6873 91.106 15.1113 90.5766 14.6793C90.0471 14.2473 89.3893 14.0313 88.6032 14.0313C87.8973 14.0313 87.2716 14.2473 86.7262 14.6793C86.1967 15.1113 85.8598 15.6873 85.7154 16.4073H91.491Z" fill="#121515"/>
<path d="M102.132 23.9913C100.961 23.9913 99.8939 23.7273 98.9313 23.1993C97.9848 22.6713 97.2308 21.9353 96.6692 20.9913C96.1078 20.0313 95.8269 18.9513 95.8269 17.7513C95.8269 16.5513 96.1078 15.4793 96.6692 14.5353C97.2308 13.5753 97.9848 12.8313 98.9313 12.3033C99.8939 11.7753 100.961 11.5113 102.132 11.5113C103.72 11.5113 105.028 11.9113 106.055 12.7113C107.097 13.5113 107.755 14.5993 108.028 15.9753L107.835 16.2153L105.044 16.5033C104.883 15.8633 104.555 15.3593 104.057 14.9913C103.56 14.6073 102.918 14.4153 102.132 14.4153C101.25 14.4153 100.52 14.7113 99.9421 15.3033C99.3806 15.8793 99.0998 16.6953 99.0998 17.7513C99.0998 18.8073 99.3806 19.6313 99.9421 20.2233C100.52 20.7993 101.25 21.0873 102.132 21.0873C102.918 21.0873 103.544 20.9113 104.009 20.5593C104.474 20.2073 104.819 19.6873 105.044 18.9993L107.835 19.2873L108.028 19.5033C107.659 20.9433 106.969 22.0553 105.958 22.8393C104.948 23.6073 103.672 23.9913 102.132 23.9913Z" fill="#121515"/>
<path d="M109.907 6.23112H113.276V23.7511H109.907V6.23112Z" fill="#121515"/>
<path d="M119.911 23.9912C118.595 23.9912 117.561 23.5992 116.806 22.8152C116.052 22.0312 115.675 20.9832 115.675 19.6712V11.7512H119.044V18.9752C119.044 19.6632 119.221 20.1912 119.574 20.5592C119.926 20.9272 120.424 21.1112 121.066 21.1112C121.643 21.1112 122.173 20.9512 122.654 20.6312C123.135 20.2952 123.529 19.8552 123.833 19.3112V11.7512H127.202V23.7512H123.833V22.2632C122.759 23.4152 121.451 23.9912 119.911 23.9912Z" fill="#121515"/>
<path d="M136.916 23.9911C135.343 23.9911 134.06 23.4791 133.066 22.4551V23.7511H129.697V6.23112H133.066V12.9031C134.14 11.9752 135.4 11.5111 136.844 11.5111C137.855 11.5111 138.793 11.7431 139.659 12.2071C140.541 12.6712 141.248 13.3751 141.777 14.3191C142.307 15.2632 142.571 16.4071 142.571 17.7511C142.571 19.0951 142.29 20.2391 141.729 21.1831C141.183 22.1111 140.478 22.8151 139.611 23.2951C138.745 23.7592 137.846 23.9911 136.916 23.9911ZM136.002 21.2071C136.932 21.2071 137.686 20.9032 138.264 20.2951C138.857 19.6871 139.154 18.8392 139.154 17.7511C139.154 16.6631 138.865 15.8152 138.288 15.2071C137.71 14.5991 136.964 14.2951 136.05 14.2951C135.199 14.2951 134.485 14.5591 133.908 15.0871C133.346 15.6151 133.066 16.3111 133.066 17.1751V18.3271C133.066 19.1911 133.354 19.8871 133.932 20.4151C134.51 20.9431 135.199 21.2071 136.002 21.2071Z" fill="#121515"/>
<path d="M37.5601 8.22754C35.8801 5.43826 33.3362 3.26941 30.3122 2.04809C27.288 0.82677 23.9477 0.619242 20.7951 1.45681C17.6424 2.29436 14.8482 4.13158 12.8341 6.69142C10.82 9.25114 9.69506 12.3947 9.62912 15.6479C9.56307 18.9009 10.5595 22.0873 12.4681 24.7263C14.3768 27.3653 17.0941 29.3137 20.2102 30.2778C23.3263 31.2419 26.6723 31.1693 29.7434 30.071C32.8146 28.9728 35.4444 26.9083 37.2362 24.1891L31.5259 20.4467C30.548 21.9306 29.113 23.0571 27.437 23.6564C25.7611 24.2558 23.9352 24.2954 22.2348 23.7693C20.5343 23.2433 19.0514 22.1799 18.0099 20.7398C16.9684 19.2997 16.4246 17.561 16.4606 15.7857C16.4967 14.0105 17.1105 12.2951 18.2096 10.8981C19.3087 9.50122 20.8334 8.49874 22.554 8.04166C24.2744 7.58458 26.0972 7.69786 27.7475 8.36434C29.3976 9.03082 30.7858 10.2144 31.7027 11.7365L37.5601 8.22754Z" fill="black"/>
<path d="M9.62602 15.3513L0 3.35128V27.3513L9.62602 15.3513Z" fill="#CED7FA"/>
<path d="M9.62602 15.3513L0 17.7512V27.3513L9.62602 15.3513Z" fill="#385FEA"/>
</g>
<defs>
<clipPath id="clip0_8_6">
<rect width="144" height="30" fill="white" transform="translate(0 0.95134)"/>
</clipPath>
</defs>
</svg>
