<svg width="29" height="28" viewBox="0 0 29 28" fill="none" xmlns="http://www.w3.org/2000/svg">
<path d="M19.6348 1.16507V4.91117C19.6348 6.01574 20.5302 6.91117 21.6348 6.91117H25.1552L22.3985 3.24782L19.6348 1.16507Z" fill="black"/>
<path d="M22.5674 27.1836H6.56738C5.18667 27.1836 4.06738 26.0643 4.06738 24.6836V3.68359C4.06738 2.30288 5.18667 1.18359 6.56738 1.18359H20.2281L25.0674 6.42656V24.6836C25.0674 26.0643 23.9481 27.1836 22.5674 27.1836Z" stroke="black"/>
<rect y="11.8555" width="29" height="9.90503" rx="2" fill="black"/>
<path d="M6.34668 17.2959H3.99805V18.5312H6.76172V19.6641H2.58203V13.9756H6.7666V15.1182H3.99805V16.1582H6.34668V17.2959ZM9.99863 15.8115L11.0045 13.9756H12.6354L10.8873 16.7979L12.7721 19.6641H11.1021L10.0182 17.7988L8.96836 19.6641H7.3375L9.13438 16.7979L7.38633 13.9756H9.00254L9.99863 15.8115ZM17.9066 17.7158C17.8676 18.3376 17.6218 18.8307 17.1693 19.1953C16.7201 19.5599 16.1277 19.7422 15.392 19.7422C14.601 19.7422 13.9776 19.5013 13.5219 19.0195C13.0694 18.5345 12.8367 17.8672 12.8236 17.0176V16.6953C12.8236 15.8457 13.0531 15.167 13.5121 14.6592C13.9743 14.1514 14.5977 13.8975 15.3822 13.8975C16.1179 13.8975 16.7071 14.0814 17.1498 14.4492C17.5925 14.8171 17.8464 15.3249 17.9115 15.9727H16.5004C16.4678 15.3477 16.0951 15.0352 15.3822 15.0352C14.64 15.0352 14.2576 15.5544 14.2348 16.5928V16.9541C14.2348 17.5368 14.3243 17.9583 14.5033 18.2188C14.6856 18.4792 14.9818 18.6094 15.392 18.6094C15.7468 18.6094 16.0137 18.5378 16.1928 18.3945C16.3751 18.2513 16.4743 18.0251 16.4906 17.7158H17.9066ZM22.4037 17.2959H20.0551V18.5312H22.8188V19.6641H18.6391V13.9756H22.8236V15.1182H20.0551V16.1582H22.4037V17.2959ZM24.8793 18.5312H27.4721V19.6641H23.4633V13.9756H24.8793V18.5312Z" fill="white"/>
</svg>
