<svg width="20" height="22" viewBox="0 0 20 22" fill="none" xmlns="http://www.w3.org/2000/svg">
<path fill-rule="evenodd" clip-rule="evenodd" d="M12.5 3.99589C12.5 3.17128 13.17 2.5 14 2.5C14.83 2.5 15.5 3.17128 15.5 3.99589C15.5 4.82051 14.83 5.49179 14 5.49179C13.17 5.49179 12.5 4.82051 12.5 3.99589ZM10.6465 5H0V3H10.644C11.0735 1.55367 12.4145 0.5 14 0.5C15.5855 0.5 16.9265 1.55367 17.356 3H20V5H17.3535C16.9214 6.4421 15.5825 7.49179 14 7.49179C12.4175 7.49179 11.0786 6.4421 10.6465 5ZM7.5 11.0041C7.5 11.8287 6.82998 12.5 6 12.5C5.17002 12.5 4.5 11.8287 4.5 11.0041C4.5 10.1795 5.17002 9.50821 6 9.50821C6.82998 9.50821 7.5 10.1795 7.5 11.0041ZM6 14.5C7.58552 14.5 8.92649 13.4463 9.35598 12L20 12V10L9.35353 10C8.92141 8.5579 7.58251 7.50821 6 7.50821C4.41749 7.50821 3.07859 8.5579 2.64647 10H0V12H2.64402C3.07351 13.4463 4.41448 14.5 6 14.5ZM14 16.5078C13.17 16.5078 12.5 17.1791 12.5 18.0037C12.5 18.8283 13.17 19.4996 14 19.4996C14.83 19.4996 15.5 18.8283 15.5 18.0037C15.5 17.1791 14.83 16.5078 14 16.5078ZM10.6464 17C11.0783 15.5577 12.4173 14.5078 14 14.5078C15.5827 14.5078 16.9217 15.5577 17.3536 17H20V19H17.3559C16.9262 20.4461 15.5854 21.4996 14 21.4996C12.4146 21.4996 11.0738 20.4461 10.6441 19H0V17H10.6464Z" fill="black"/>
</svg>
