<svg width="198" height="124" viewBox="0 0 198 124" fill="none" xmlns="http://www.w3.org/2000/svg">
<g clip-path="url(#clip0_834_4381)">
<path d="M4.36383 118.241C4.06675 118.241 3.91309 118.106 3.91309 117.837C3.91684 117.534 4.02976 117.243 4.23066 117.018C4.32362 116.905 4.4393 116.814 4.57 116.749C4.7007 116.685 4.84344 116.65 4.98873 116.646C5.22434 116.646 5.33703 116.811 5.33703 117.153C5.33874 117.434 5.24058 117.706 5.06044 117.92C4.9757 118.023 4.86904 118.105 4.74843 118.161C4.62782 118.216 4.49635 118.244 4.36383 118.241Z" fill="#1D1D1B"/>
<path d="M8.36921 118.241C8.07213 118.241 7.92871 118.106 7.92871 117.837C7.93246 117.534 8.04539 117.243 8.24628 117.018C8.33925 116.905 8.45492 116.814 8.58562 116.749C8.71633 116.685 8.85907 116.65 9.00435 116.646C9.22973 116.646 9.34241 116.811 9.34241 117.153C9.3435 117.432 9.24943 117.703 9.07606 117.92C8.99024 118.024 8.88194 118.107 8.75943 118.163C8.63692 118.219 8.50345 118.245 8.36921 118.241Z" fill="#1D1D1B"/>
<path d="M12.3848 118.241C12.0877 118.241 11.9341 118.106 11.9341 117.837C11.9416 117.533 12.0581 117.242 12.2619 117.018C12.3549 116.905 12.4705 116.814 12.6012 116.749C12.7319 116.685 12.8747 116.65 13.02 116.646C13.2453 116.646 13.358 116.811 13.358 117.153C13.3597 117.434 13.2616 117.706 13.0814 117.92C12.9977 118.024 12.8912 118.107 12.7704 118.163C12.6495 118.218 12.5176 118.245 12.3848 118.241Z" fill="#1D1D1B"/>
<path d="M20.1503 117.361C20.7505 117.22 21.3156 116.956 21.8098 116.584C22.5164 116.061 23.1841 115.486 23.8075 114.864C23.9406 114.864 24.0124 114.999 24.0226 115.289C24.0328 115.579 23.7767 115.796 23.2748 116.211C22.7355 116.653 22.1674 117.058 21.5742 117.423C21.1628 117.7 20.7273 117.939 20.2732 118.137C20.1119 118.194 19.9421 118.222 19.7712 118.22C19.4025 118.22 19.1976 118.086 19.1566 117.816C19.1982 117.626 19.2529 117.439 19.3205 117.257C19.4127 116.988 19.4947 116.77 19.5561 116.625L19.6791 116.294C19.5971 116.376 19.4025 116.604 19.1054 116.957C18.8565 117.253 18.5859 117.53 18.2961 117.785C18.0547 117.989 17.7811 118.15 17.4868 118.262H17.2819C17.1934 118.271 17.1041 118.271 17.0156 118.262C15.9399 118.262 15.397 117.423 15.397 115.745C15.397 114.067 16.5033 112.637 18.7263 111.601C19.5526 111.139 20.4765 110.883 21.4206 110.855C21.7665 110.863 22.1103 110.912 22.445 111C22.824 111.104 23.0084 111.27 23.0084 111.518V111.757C22.9374 111.869 22.8587 111.976 22.7728 112.078C22.2887 111.788 21.7456 111.615 21.185 111.57C20.8355 111.582 20.49 111.649 20.1605 111.767C19.6958 111.912 19.2489 112.11 18.8288 112.357C18.3555 112.618 17.9123 112.93 17.5073 113.29C16.8037 113.806 16.3262 114.579 16.1755 115.444C16.1797 115.517 16.1797 115.589 16.1755 115.662C16.1716 115.727 16.1716 115.793 16.1755 115.859C16.1755 116.894 16.4316 117.485 16.9541 117.537C17.2924 117.495 17.6102 117.35 17.8658 117.122C19.1725 115.958 20.2922 114.595 21.185 113.083C21.2648 112.935 21.3769 112.807 21.5128 112.71C21.6589 112.65 21.8166 112.625 21.9738 112.637C22.1889 112.637 22.3016 112.637 22.3016 112.761C22.282 112.857 22.2546 112.95 22.2196 113.041C21.6357 114.253 20.9493 115.703 20.1708 117.412" fill="#1D1D1B"/>
<path d="M25.262 112.792C25.3952 112.512 25.6103 111.953 25.9176 111.083C26.2249 110.213 26.4811 109.55 26.6654 109.073C26.9625 108.152 27.2494 107.302 27.5157 106.546C27.7821 105.79 28.1201 104.816 28.5401 103.656C28.5401 103.501 28.7245 103.418 28.9806 103.418C29.0285 103.413 29.0769 103.419 29.1222 103.435C29.1675 103.452 29.2085 103.478 29.2421 103.513C29.2756 103.548 29.3009 103.59 29.3159 103.637C29.331 103.683 29.3354 103.732 29.3289 103.78V103.863C29.251 104.341 29.124 104.81 28.9499 105.262C28.7143 105.925 28.3455 106.95 27.823 108.369L26.8703 110.938C26.3376 112.395 25.6308 114.467 24.7498 117.153C24.7498 117.226 24.8215 117.277 24.9854 117.319C25.0738 117.307 25.1633 117.307 25.2518 117.319C25.8576 117.081 26.4137 116.729 26.8908 116.283C27.5977 115.724 28.1406 115.247 28.5401 114.926C28.704 114.926 28.786 115.019 28.786 115.226C28.7862 115.335 28.7645 115.442 28.7222 115.542C28.6799 115.642 28.618 115.732 28.5401 115.806C27.923 116.446 27.2356 117.013 26.4913 117.495C25.8692 117.929 25.1367 118.174 24.381 118.199C23.9712 118.199 23.7459 118.065 23.7151 117.795C23.7254 117.761 23.7254 117.725 23.7151 117.692C23.7151 117.433 23.8483 117.06 23.9815 116.573C24.1146 116.086 24.2478 115.661 24.3708 115.278C24.4937 114.895 24.5756 114.605 24.6371 114.429L23.8176 115.299C23.4897 115.641 23.3054 115.827 23.2746 115.848C23.2204 115.856 23.1701 115.881 23.1312 115.92C23.0288 115.92 22.9775 115.786 22.9775 115.516C22.9789 115.358 23.0331 115.205 23.1312 115.081C23.3673 114.829 23.617 114.591 23.879 114.367C24.2273 114.056 24.5142 113.797 24.7191 113.579C24.9166 113.368 25.0854 113.131 25.221 112.875" fill="#1D1D1B"/>
<path d="M30.0257 112.792C30.1588 112.513 30.374 111.953 30.6813 111.083C30.9886 110.213 31.2447 109.55 31.4291 109.074C31.7364 108.152 32.013 107.302 32.2794 106.546C32.5457 105.79 32.8838 104.816 33.3038 103.656C33.3038 103.501 33.4882 103.418 33.7545 103.418C34.0209 103.418 34.0926 103.542 34.0926 103.781V103.863C34.0147 104.342 33.8876 104.81 33.7136 105.262C33.478 105.925 33.1092 106.95 32.597 108.369L31.6442 110.938C31.1115 112.399 30.3945 114.47 29.5134 117.153C29.5134 117.226 29.5954 117.277 29.7593 117.319C29.8442 117.306 29.9305 117.306 30.0154 117.319C30.6247 117.082 31.1842 116.73 31.6647 116.283C32.3613 115.724 32.9145 115.247 33.3038 114.926C33.4677 114.926 33.5497 115.019 33.5497 115.227C33.5499 115.335 33.5282 115.442 33.4859 115.542C33.4436 115.642 33.3817 115.732 33.3038 115.807C32.6867 116.446 31.9993 117.013 31.255 117.495C30.6328 117.929 29.9003 118.174 29.1447 118.199C28.7349 118.199 28.5095 118.065 28.4788 117.795C28.4885 117.762 28.4885 117.726 28.4788 117.692C28.5396 117.314 28.6251 116.94 28.7349 116.573L29.1242 115.278C29.2471 114.895 29.3291 114.605 29.3905 114.429L28.571 115.299C28.3994 115.491 28.2182 115.675 28.028 115.848C27.9738 115.856 27.9235 115.881 27.8846 115.921C27.7822 115.921 27.731 115.786 27.731 115.517C27.7324 115.358 27.7865 115.205 27.8846 115.081C28.0383 114.916 28.2841 114.678 28.6324 114.367C28.9808 114.056 29.2676 113.797 29.4725 113.58C29.6732 113.371 29.8424 113.134 29.9744 112.875" fill="#1D1D1B"/>
<path d="M39.7268 111.021H40.5975C40.4473 111.446 40.2694 111.862 40.0648 112.264C39.8702 112.678 39.6039 113.206 39.276 113.859C38.9482 114.511 38.6716 115.05 38.4872 115.485C38.3011 115.923 38.1437 116.373 38.016 116.832C38.016 116.832 38.016 116.894 38.098 116.956C38.292 116.871 38.4773 116.767 38.6511 116.645C39.0097 116.365 39.5629 115.848 40.3209 115.102C41.079 114.356 41.7859 113.6 42.4722 112.844C42.9707 112.315 43.4263 111.747 43.8347 111.145C43.8347 111.145 43.9884 111.062 44.2035 111.062C44.4186 111.062 44.7055 111.124 44.7055 111.228L43.7732 113.299L42.5337 115.961L41.5912 118.033L42.7898 116.997L44.5006 115.547C45.1152 115.029 45.4328 114.76 45.4738 114.739C45.5148 114.718 45.566 114.739 45.6069 114.863C45.6509 114.961 45.6719 115.067 45.6684 115.174C45.6788 115.251 45.6701 115.329 45.6433 115.401C45.6165 115.473 45.5723 115.538 45.5148 115.589L44.3981 116.51L42.882 117.971C42.38 118.406 41.919 118.831 41.4785 119.245C41.1768 119.514 40.9054 119.817 40.6692 120.146C40.4644 120.54 40.1673 121.182 39.7882 121.969C39.4092 122.757 39.1838 123.274 39.1326 123.43C39.0782 123.57 38.9902 123.695 38.8765 123.792C38.7429 123.917 38.5665 123.984 38.3848 123.979C38.3164 123.985 38.2476 123.976 38.1829 123.953C38.1182 123.93 38.0592 123.893 38.0097 123.845C37.9603 123.797 37.9215 123.739 37.8961 123.674C37.8707 123.61 37.8592 123.541 37.8623 123.471C37.8662 123.402 37.8662 123.333 37.8623 123.264C37.8623 123.171 37.8623 123.109 37.8623 123.057C38.0744 122.308 38.4218 121.606 38.8868 120.985C39.2614 120.382 39.6791 119.807 40.1366 119.266C40.2646 119.119 40.3715 118.956 40.4541 118.779C40.5258 118.613 40.6283 118.375 40.741 118.054C40.8536 117.733 40.9663 117.484 41.0483 117.298C41.1302 117.111 41.3863 116.573 41.7449 115.775L42.6361 113.859H42.5849C42.3288 114.107 41.8883 114.553 41.2737 115.185C40.659 115.816 40.1468 116.334 39.737 116.718C39.3483 117.1 38.9266 117.447 38.477 117.753C38.0793 118.02 37.6278 118.193 37.1555 118.261C36.8994 118.261 36.7662 118.137 36.7662 117.898C36.7854 117.679 36.8336 117.463 36.9096 117.256C37.1487 116.662 37.3638 116.165 37.555 115.765C37.7497 115.35 37.8931 115.071 37.9853 114.895L37.4218 115.475L36.8482 116.065C36.7775 116.044 36.7089 116.016 36.6433 115.982C36.6024 115.956 36.5693 115.919 36.5476 115.875C36.526 115.831 36.5166 115.782 36.5204 115.734C36.5479 115.473 36.6724 115.232 36.8687 115.06C37.0326 114.884 37.3604 114.542 37.8931 114.024C38.2678 113.684 38.6107 113.31 38.9175 112.906C39.0902 112.661 39.2345 112.397 39.3477 112.118L39.7575 111.176" fill="#1D1D1B"/>
<path d="M48.5265 110.596C48.6316 110.577 48.739 110.577 48.8441 110.596C49.1105 110.596 49.2334 110.71 49.2334 110.938C49.2334 111.166 49.1514 111.28 48.9773 111.311C47.9236 111.575 46.9953 112.206 46.3548 113.092C45.7899 113.869 45.4719 114.801 45.443 115.765C45.443 116.179 45.5352 116.49 45.5762 116.676C45.6211 116.869 45.7127 117.047 45.8425 117.194C45.9241 117.283 46.0222 117.354 46.1313 117.404C46.2403 117.454 46.3581 117.481 46.4777 117.484C46.9148 117.421 47.3241 117.23 47.6558 116.935C48.0243 116.678 48.3436 116.355 48.5982 115.982C48.3144 115.561 48.1644 115.062 48.168 114.553C48.1994 113.877 48.3557 113.213 48.629 112.595C48.7169 112.321 48.8878 112.081 49.1175 111.91C49.3472 111.739 49.6243 111.645 49.9095 111.642C50.2271 111.642 50.4217 111.735 50.5037 111.932C50.5985 112.208 50.6403 112.5 50.6266 112.792C50.627 113.206 50.5649 113.619 50.4422 114.014C50.3367 114.373 50.196 114.72 50.0222 115.05L49.6739 115.703H49.8378L50.0324 115.765C50.2939 115.748 50.5472 115.666 50.77 115.526C51.0239 115.38 51.264 115.21 51.4871 115.019L51.8456 114.719C51.8969 114.719 51.9276 114.832 51.9276 115.05C51.9248 115.274 51.856 115.492 51.7301 115.677C51.6043 115.861 51.4269 116.004 51.2208 116.086C50.7927 116.329 50.3171 116.474 49.8275 116.511L49.2231 116.386C48.8056 116.876 48.323 117.305 47.7889 117.66C47.3552 117.936 46.8566 118.09 46.3445 118.106C46.1087 118.12 45.873 118.076 45.6573 117.979C45.4416 117.881 45.2522 117.733 45.105 117.546C44.7756 116.966 44.6291 116.297 44.6849 115.63V115.423C44.6935 114.466 45.018 113.54 45.6069 112.792C46.0648 112.159 46.6386 111.621 47.2972 111.207C47.6994 110.962 48.1208 110.75 48.5573 110.575L48.5265 110.596ZM49.1617 115.33C49.3971 114.881 49.5958 114.413 49.7558 113.931C49.895 113.559 49.9779 113.168 50.0017 112.771C50.0017 112.533 50.0017 112.419 49.8685 112.419C49.7353 112.419 49.4178 112.626 49.2129 113.051C49.0143 113.491 48.8996 113.966 48.8748 114.449C48.8919 114.763 48.9909 115.067 49.1617 115.33Z" fill="#1D1D1B"/>
<path d="M58.7711 110.938H58.8633H59.2013H59.4779C59.2628 111.476 58.9042 112.274 58.4023 113.299C57.9003 114.325 57.5417 115.07 57.3778 115.506C57.1522 116.012 56.9539 116.531 56.7837 117.059C56.7837 117.132 56.7837 117.194 56.9476 117.225C57.1073 117.171 57.2616 117.101 57.4086 117.018C57.9631 116.683 58.4936 116.309 58.9964 115.899C59.6111 115.412 60.0721 115.029 60.3896 114.749C60.3896 114.749 60.4716 114.863 60.4716 115.081C60.4843 115.278 60.4489 115.476 60.3685 115.657C60.2882 115.837 60.1653 115.995 60.0106 116.117C59.5369 116.492 59.0409 116.838 58.5252 117.153L57.7364 117.67C57.4935 117.832 57.2363 117.971 56.9681 118.085C56.7242 118.186 56.4634 118.239 56.1998 118.24C56.1327 118.246 56.0652 118.238 56.0014 118.216C55.9376 118.194 55.8789 118.159 55.829 118.114C55.779 118.068 55.7389 118.012 55.7111 117.95C55.6832 117.888 55.6682 117.821 55.6671 117.753C55.7501 117.319 55.8806 116.895 56.0563 116.49C56.2305 116.075 56.4764 115.578 56.7837 114.988C57.091 114.397 57.3061 113.952 57.4496 113.589C56.8964 114.169 56.4251 114.625 56.0154 115.039C55.6056 115.454 55.2061 115.816 54.7758 116.189C54.3456 116.562 53.946 116.904 53.526 117.225C53.106 117.546 52.7372 117.815 52.3787 118.043C52.1415 118.189 51.8672 118.261 51.5899 118.251C51.2723 118.251 51.1186 118.157 51.1186 117.971C51.1137 117.923 51.1137 117.874 51.1186 117.826C51.1257 117.785 51.1257 117.743 51.1186 117.702C51.1186 117.608 51.344 117.132 51.6923 116.262C52.0406 115.392 52.266 114.874 52.3684 114.687L51.7845 115.423C51.6231 115.643 51.4214 115.829 51.1903 115.972C51.0572 115.972 50.9957 115.868 50.9957 115.651C50.9918 115.555 51.0071 115.46 51.0405 115.371C51.074 115.282 51.125 115.201 51.1903 115.133L52.0509 114.273C52.4401 113.879 52.727 113.6 52.9011 113.413C53.0449 113.242 53.1687 113.054 53.2699 112.854C53.41 112.595 53.5365 112.329 53.649 112.056L53.987 111.321C54.0895 111.155 54.1816 111.072 54.2738 111.072C54.6939 111.072 54.8987 111.072 54.8987 111.155C54.7859 111.637 54.6245 112.105 54.4173 112.553C54.2021 113.03 53.9153 113.589 53.567 114.252C53.2187 114.915 52.9421 115.412 52.7679 115.765C52.58 116.146 52.4191 116.541 52.2865 116.945C52.2865 116.997 52.3479 117.049 52.4504 117.09C52.6066 117.023 52.7574 116.943 52.9011 116.852C53.3724 116.5 53.9255 116.034 54.5709 115.454C55.2163 114.874 55.831 114.294 56.4251 113.682C57.0193 113.071 57.4496 112.543 57.8798 112.077L58.392 111.445C58.4505 111.364 58.5156 111.288 58.5867 111.217L58.8018 111.072" fill="#1D1D1B"/>
<path d="M65.358 113.155C65.5115 112.901 65.6353 112.629 65.7268 112.347C65.8485 111.977 66.0247 111.628 66.2492 111.311C66.3338 111.195 66.4454 111.102 66.5741 111.041C66.7029 110.979 66.8447 110.951 66.9868 110.959C67.051 110.971 67.1088 111.006 67.1501 111.057C67.1913 111.108 67.2133 111.172 67.2122 111.238C67.1827 111.395 67.1273 111.546 67.0483 111.684L66.8639 112.036C66.6897 112.409 66.4746 112.865 66.239 113.393L65.5834 114.864C65.3921 115.299 65.1975 115.723 64.9994 116.138H65.0711C65.358 115.837 65.8292 115.371 66.4644 114.729C67.0995 114.087 67.8268 113.414 68.6054 112.657C69.153 112.124 69.7499 111.646 70.3879 111.228L70.6338 111.073C70.74 110.996 70.8532 110.93 70.9718 110.876C71.0616 110.833 71.1596 110.812 71.2587 110.814C71.3822 110.814 71.5017 110.858 71.5967 110.938C71.6489 110.975 71.6911 111.025 71.7197 111.083C71.7482 111.141 71.7623 111.205 71.7606 111.269C71.7149 111.557 71.6177 111.835 71.4738 112.088C71.2791 112.481 71.1665 112.73 71.1357 112.823C70.1933 114.947 69.5888 116.324 69.3123 116.966C69.288 117.035 69.2571 117.101 69.2201 117.163C69.2201 117.163 69.2815 117.236 69.384 117.288C69.4484 117.251 69.5173 117.223 69.5889 117.205C70.1123 116.918 70.6006 116.571 71.0435 116.169L72.7236 114.864H72.8055C72.8875 114.864 72.9285 114.926 72.9285 115.06C72.9325 115.233 72.8937 115.404 72.8158 115.558C72.7154 115.715 72.5869 115.852 72.4367 115.962C71.8981 116.427 71.33 116.856 70.7362 117.246C70.2474 117.595 69.7174 117.88 69.1586 118.095C69.016 118.118 68.8709 118.118 68.7283 118.095C68.38 118.095 68.1956 117.961 68.1547 117.692C68.3006 117.137 68.4855 116.593 68.7078 116.065C68.9332 115.527 69.1893 115.029 69.4659 114.439C69.7425 113.849 70.0601 113.258 70.4289 112.523C70.4656 112.437 70.4864 112.346 70.4903 112.253C70.4903 112.202 70.4903 112.17 70.4289 112.17C70.3276 112.187 70.2323 112.23 70.1523 112.295C69.6307 112.649 69.1343 113.04 68.6669 113.465C68.2059 113.9 67.7142 114.387 67.2122 114.926L65.6653 116.583C65.1326 117.143 64.6409 117.619 64.2004 118.023C64.1068 118.085 63.9939 118.111 63.8828 118.095C63.6472 118.095 63.5345 118.002 63.5345 117.816V117.65C63.7599 117.08 64.1287 116.107 64.6306 114.729L64.0672 115.34C63.9149 115.514 63.7506 115.677 63.5755 115.827C63.4423 115.827 63.3706 115.641 63.3706 115.413C63.386 115.287 63.4267 115.167 63.4902 115.058C63.5536 114.949 63.6384 114.855 63.7394 114.781C63.8828 114.605 64.1492 114.346 64.5077 113.994C64.8292 113.704 65.1272 113.389 65.399 113.051" fill="#1D1D1B"/>
<path d="M78.5831 114.916C78.6651 114.916 78.7061 115.019 78.7061 115.226C78.7063 115.335 78.6846 115.442 78.6423 115.542C78.6 115.642 78.5381 115.732 78.4602 115.806C77.9173 116.262 77.4358 116.666 76.9646 116.998C76.462 117.359 75.9186 117.658 75.346 117.888C74.7129 118.153 74.0336 118.287 73.3484 118.282C73.0946 118.282 72.846 118.21 72.6319 118.072C72.4177 117.934 72.2469 117.738 72.1396 117.505C71.8957 116.872 71.7841 116.195 71.8117 115.516C71.8576 114.587 72.2448 113.708 72.8976 113.051C73.585 112.25 74.4291 111.601 75.3767 111.145C75.752 110.987 76.1495 110.889 76.5548 110.855C76.8791 110.846 77.1981 110.94 77.4665 111.124C77.5866 111.213 77.6831 111.33 77.7474 111.466C77.8118 111.602 77.842 111.751 77.8353 111.901C77.8642 112.449 77.7391 112.993 77.4743 113.472C77.2096 113.95 76.8162 114.343 76.3397 114.605C75.2121 115.211 73.9486 115.51 72.6723 115.475C72.6916 115.644 72.6916 115.814 72.6723 115.982C72.6626 116.408 72.7883 116.826 73.0308 117.174C73.1817 117.317 73.3612 117.427 73.5573 117.495C73.7534 117.563 73.9616 117.587 74.1679 117.567C74.8508 117.482 75.5058 117.241 76.0836 116.863C76.9756 116.281 77.8216 115.63 78.6139 114.916H78.5831ZM72.8771 114.76H73.1947C73.297 114.753 73.3997 114.753 73.502 114.76C74.0466 114.716 74.5817 114.59 75.0899 114.387C75.6198 114.19 76.0993 113.875 76.4933 113.465C76.6797 113.285 76.8276 113.068 76.9281 112.827C77.0285 112.587 77.0792 112.328 77.0772 112.067C77.0772 111.673 76.8621 111.477 76.4421 111.477C75.7731 111.551 75.1469 111.846 74.6596 112.316C73.839 112.898 73.2164 113.723 72.8771 114.677" fill="#1D1D1B"/>
<path d="M84.443 114.916C84.5147 114.916 84.5557 115.019 84.5557 115.226C84.5559 115.335 84.5342 115.442 84.4919 115.542C84.4496 115.642 84.3877 115.732 84.3098 115.806C83.7771 116.262 83.2854 116.666 82.8244 116.998C82.3169 117.356 81.7704 117.655 81.1956 117.888C80.5662 118.154 79.8902 118.288 79.2082 118.282C78.953 118.283 78.7028 118.211 78.4868 118.073C78.2709 117.935 78.0983 117.738 77.9892 117.505C77.7453 116.872 77.6337 116.195 77.6614 115.516C77.707 114.584 78.0984 113.704 78.7575 113.051C79.439 112.248 80.2802 111.598 81.2263 111.145C81.6016 110.987 81.9991 110.889 82.4044 110.855C82.7287 110.846 83.0477 110.94 83.3162 111.124C83.4362 111.213 83.5327 111.33 83.5971 111.466C83.6614 111.602 83.6916 111.751 83.6849 111.901C83.711 112.452 83.5812 112.999 83.3109 113.478C83.0405 113.957 82.6408 114.348 82.1586 114.605C81.0315 115.212 79.7676 115.512 78.4911 115.475C78.5104 115.644 78.5104 115.814 78.4911 115.982C78.4815 116.408 78.6071 116.826 78.8497 117.174C79.0021 117.318 79.1833 117.428 79.3812 117.496C79.5791 117.564 79.7891 117.588 79.997 117.567C80.6768 117.482 81.3283 117.241 81.9025 116.863C82.7945 116.281 83.6405 115.63 84.4328 114.916H84.443ZM78.696 114.76H79.0136C79.1159 114.753 79.2186 114.753 79.3209 114.76C79.8655 114.716 80.4006 114.59 80.9088 114.387C81.4405 114.187 81.9229 113.873 82.3225 113.465C82.506 113.283 82.6515 113.065 82.75 112.825C82.8486 112.585 82.8983 112.327 82.8961 112.067C82.8961 111.673 82.681 111.477 82.2712 111.477C81.5986 111.549 80.9685 111.844 80.4785 112.316C79.6579 112.898 79.0353 113.723 78.696 114.677" fill="#1D1D1B"/>
<path d="M89.3192 110.938C89.5548 110.119 89.7905 109.384 90.0261 108.721C90.2617 108.058 90.5178 107.416 90.8149 106.753C91.112 106.09 91.4603 105.417 91.8393 104.681C92.0062 104.363 92.2204 104.073 92.4745 103.821C92.6409 103.631 92.8706 103.51 93.1198 103.479C93.3964 103.479 93.5399 103.759 93.5399 104.319C93.5126 104.814 93.444 105.306 93.335 105.789C93.1847 106.48 92.9389 107.34 92.5974 108.369C92.1912 109.56 91.7157 110.725 91.1734 111.859C90.5391 113.221 89.8064 114.533 88.9812 115.785C88.9812 115.992 88.9812 116.282 88.8787 116.666C88.7763 117.049 89.0324 117.349 89.35 117.38C89.6836 117.293 90.0016 117.153 90.2924 116.966C90.6213 116.769 90.9332 116.543 91.2247 116.293L92.1671 115.495C92.5769 115.039 92.8535 114.822 92.9969 114.822C93.1403 114.822 93.0789 114.967 93.0789 115.247C93.0769 115.421 93.0154 115.589 92.9047 115.723C92.7908 115.869 92.6601 116.001 92.5154 116.117L92.0442 116.5C91.5525 116.914 91.1837 117.225 90.9276 117.422C90.631 117.646 90.3116 117.837 89.9749 117.992C89.6351 118.166 89.2598 118.258 88.8787 118.261C88.7539 118.276 88.6277 118.25 88.5188 118.186C88.4099 118.123 88.3242 118.025 88.2743 117.909C88.1694 117.608 88.1073 117.294 88.0899 116.976C88.102 116.873 88.102 116.769 88.0899 116.666C88.008 116.717 87.7621 116.925 87.3728 117.266C87.0562 117.545 86.7131 117.792 86.3484 118.002C86.059 118.148 85.7395 118.222 85.4162 118.219C84.3918 118.219 83.8591 117.536 83.8591 116.148C83.8515 115.217 84.0998 114.303 84.5762 113.506C85.0541 112.71 85.7283 112.054 86.5328 111.6C87.3654 111.131 88.3044 110.888 89.2578 110.896L89.3192 110.938ZM88.9709 111.559C88.8387 111.489 88.689 111.46 88.5407 111.476C88.1275 111.499 87.7248 111.616 87.3626 111.818C86.8729 112.06 86.4236 112.378 86.0308 112.761C85.6177 113.164 85.2718 113.633 85.0064 114.149C84.7342 114.655 84.5866 115.22 84.5762 115.796C84.5762 116.883 84.863 117.443 85.4469 117.484C86.0308 117.525 87.0655 116.8 88.1104 115.557C88.2911 115.064 88.4249 114.554 88.5099 114.035C88.7251 113.092 88.8787 112.263 89.0017 111.559H88.9709ZM89.2373 114.035C89.8395 113.16 90.3478 112.222 90.7534 111.238C91.2696 110.043 91.7176 108.818 92.0954 107.571C92.4042 106.639 92.6171 105.678 92.7306 104.702C92.1978 105.497 91.7383 106.339 91.3578 107.219C90.8617 108.323 90.4341 109.458 90.0773 110.616C89.7241 111.722 89.4435 112.85 89.2373 113.993V114.035Z" fill="#1D1D1B"/>
<path d="M99.3174 110.844C99.4506 110.43 99.6555 109.809 99.9525 108.887C100.25 107.965 100.567 107.064 100.905 106.09C101.116 105.438 101.362 104.798 101.643 104.174L102.042 103.542C102.078 103.506 102.122 103.478 102.17 103.462C102.218 103.446 102.269 103.441 102.319 103.449C102.473 103.449 102.555 103.635 102.555 103.863C102.565 103.966 102.565 104.07 102.555 104.174C102.548 104.284 102.548 104.395 102.555 104.505C102.16 105.912 101.688 107.295 101.141 108.648C100.301 110.855 99.6145 112.626 99.092 113.962C98.8154 114.656 98.4774 115.589 98.0676 116.759C97.6578 117.93 97.1661 119.007 96.8281 120.043C96.5894 120.72 96.3943 121.412 96.2441 122.114C96.2441 122.187 96.2441 122.29 96.2441 122.404C96.2374 122.484 96.2374 122.563 96.2441 122.643C96.2441 122.922 96.3261 123.067 96.5002 123.067C96.6744 123.067 96.8793 122.922 97.0739 122.643C97.4069 122.175 97.7048 121.684 97.9652 121.172C98.1745 120.757 98.3459 120.323 98.4774 119.877C98.5901 119.463 98.7027 118.976 98.8052 118.416C98.9076 117.857 98.9998 117.318 99.0818 116.821C99.4656 116.659 99.8386 116.473 100.198 116.262C100.825 115.889 101.409 115.448 101.94 114.946C101.97 114.907 102.014 114.881 102.063 114.874C102.176 114.874 102.227 114.988 102.227 115.216C102.225 115.402 102.152 115.58 102.022 115.713C101.309 116.306 100.541 116.826 99.7272 117.267C99.7105 117.933 99.6247 118.596 99.4711 119.245C99.3184 119.927 99.1129 120.595 98.8564 121.244C98.6654 121.753 98.4143 122.236 98.1086 122.684C97.9884 122.89 97.8401 123.079 97.6681 123.243C97.4522 123.495 97.196 123.709 96.91 123.875C96.6955 123.95 96.471 123.992 96.2441 124C95.7422 124 95.4963 123.616 95.4963 122.87C95.4824 122.629 95.4824 122.387 95.4963 122.145C95.6035 121.519 95.7472 120.9 95.9266 120.291C96.1212 119.608 96.408 118.758 96.7666 117.733C97.1251 116.707 97.5656 115.485 98.0779 114.066L97.0534 115.102C96.7813 115.4 96.4868 115.677 96.1724 115.93C96.0597 115.93 96.0085 115.744 96.0085 115.423C95.9966 115.368 95.9966 115.312 96.0085 115.257L96.1827 115.029L96.3261 114.863C96.4422 114.732 96.7598 114.411 97.2788 113.9C97.6923 113.506 98.0855 113.092 98.4569 112.657C98.5557 112.528 98.6351 112.385 98.6925 112.232C98.7847 112.036 98.8871 111.808 98.9896 111.528C99.092 111.248 99.1945 111 99.2867 110.793" fill="#1D1D1B"/>
<path d="M105.024 110.596C105.129 110.577 105.236 110.577 105.341 110.596C105.608 110.596 105.73 110.71 105.73 110.938C105.73 111.166 105.648 111.28 105.474 111.311C104.421 111.575 103.492 112.206 102.852 113.092C102.287 113.869 101.969 114.801 101.94 115.765C101.94 116.179 102.032 116.49 102.073 116.676C102.123 116.867 102.214 117.044 102.34 117.194C102.421 117.283 102.519 117.354 102.628 117.404C102.737 117.454 102.855 117.481 102.975 117.484C103.411 117.435 103.824 117.258 104.163 116.977C104.532 116.719 104.851 116.396 105.106 116.024C104.822 115.603 104.672 115.104 104.675 114.594C104.707 113.918 104.863 113.254 105.136 112.637C105.224 112.362 105.395 112.123 105.625 111.952C105.855 111.781 106.132 111.687 106.417 111.684C106.734 111.684 106.939 111.777 107.011 111.974C107.106 112.25 107.148 112.541 107.134 112.833C107.134 113.248 107.072 113.66 106.95 114.056C106.848 114.416 106.707 114.763 106.529 115.091L106.181 115.744H106.345L106.54 115.806C106.801 115.789 107.054 115.707 107.277 115.568C107.533 115.424 107.773 115.254 107.994 115.06L108.353 114.76C108.353 114.76 108.435 114.874 108.435 115.091C108.432 115.316 108.363 115.534 108.237 115.718C108.112 115.903 107.934 116.045 107.728 116.127C107.3 116.37 106.824 116.515 106.335 116.552L105.73 116.428C105.311 116.915 104.828 117.344 104.296 117.702C103.863 117.978 103.364 118.131 102.852 118.147C102.616 118.161 102.38 118.118 102.165 118.02C101.949 117.923 101.76 117.775 101.612 117.588C101.283 117.007 101.136 116.339 101.192 115.672V115.464C101.182 114.502 101.493 113.565 102.073 112.802C102.536 112.174 103.109 111.637 103.764 111.217C104.166 110.972 104.587 110.761 105.024 110.586V110.596ZM105.628 115.34C105.863 114.891 106.062 114.423 106.222 113.942C106.361 113.57 106.444 113.179 106.468 112.782C106.468 112.543 106.468 112.429 106.335 112.429C106.202 112.429 105.884 112.637 105.689 113.061C105.483 113.499 105.365 113.975 105.341 114.46C105.363 114.773 105.462 115.075 105.628 115.34Z" fill="#1D1D1B"/>
<path d="M110.063 111.601C109.944 111.5 109.851 111.37 109.794 111.224C109.736 111.077 109.716 110.918 109.736 110.762C109.726 110.611 109.765 110.461 109.846 110.335C109.927 110.208 110.046 110.111 110.186 110.058C110.223 110.066 110.262 110.066 110.299 110.058H110.412C110.657 110.058 110.811 110.13 110.862 110.286C110.95 110.552 111.015 110.826 111.057 111.104H111.569C112.594 111.104 113.065 111.466 113.065 112.14C113.062 112.354 113.027 112.567 112.962 112.772C112.865 113.05 112.752 113.324 112.624 113.59L112.358 114.191L111.764 115.506L111.221 116.728C111.146 116.887 111.091 117.054 111.057 117.226L111.159 117.308C111.513 117.195 111.84 117.012 112.122 116.77C112.594 116.449 113.024 116.107 113.444 115.734L114.345 114.988L114.438 114.895C114.453 114.877 114.472 114.862 114.493 114.851C114.514 114.84 114.537 114.834 114.561 114.833C114.653 114.833 114.694 114.833 114.694 114.947V115.258C114.692 115.356 114.667 115.453 114.621 115.539C114.574 115.626 114.508 115.7 114.427 115.755C113.751 116.335 113.239 116.791 112.901 117.039C112.47 117.368 112.011 117.655 111.528 117.899C111.219 118.093 110.867 118.207 110.504 118.23C110.374 118.235 110.247 118.193 110.146 118.111C110.044 118.029 109.975 117.914 109.951 117.785C110.063 117.433 110.196 117.06 110.35 116.687C110.504 116.314 110.698 115.827 110.965 115.237L111.641 113.673C111.836 113.217 111.999 112.803 112.122 112.43C112.119 112.388 112.119 112.347 112.122 112.305C112.131 112.264 112.131 112.222 112.122 112.181C112.122 111.912 111.877 111.777 111.375 111.777C111.245 111.765 111.115 111.765 110.985 111.777H110.668C109.82 113.249 108.787 114.604 107.594 115.807C107.451 115.807 107.39 115.63 107.39 115.392C107.382 115.292 107.404 115.191 107.451 115.102L107.748 114.76C108.344 114.206 108.871 113.58 109.316 112.896C109.609 112.437 109.879 111.963 110.125 111.477" fill="#1D1D1B"/>
<path d="M124.385 114.916C124.467 114.916 124.508 115.019 124.508 115.226C124.508 115.335 124.486 115.442 124.444 115.542C124.402 115.642 124.34 115.732 124.262 115.806C123.719 116.262 123.238 116.666 122.766 116.998C122.26 117.359 121.713 117.658 121.138 117.888C120.508 118.155 119.832 118.289 119.15 118.282C118.896 118.284 118.647 118.211 118.433 118.074C118.218 117.936 118.048 117.738 117.941 117.505C117.689 116.875 117.573 116.196 117.603 115.516C117.653 114.585 118.044 113.706 118.699 113.051C119.385 112.247 120.229 111.598 121.179 111.145C121.553 110.984 121.951 110.886 122.357 110.855C122.678 110.846 122.993 110.94 123.258 111.124C123.379 111.213 123.477 111.33 123.543 111.465C123.61 111.6 123.642 111.75 123.637 111.901C123.663 112.453 123.533 113.001 123.26 113.481C122.988 113.96 122.585 114.35 122.1 114.605C120.977 115.212 119.716 115.512 118.443 115.475C118.464 115.643 118.464 115.814 118.443 115.982C118.437 116.409 118.566 116.827 118.812 117.174C118.962 117.319 119.141 117.43 119.338 117.498C119.534 117.566 119.743 117.589 119.949 117.567C120.632 117.48 121.286 117.239 121.865 116.863C122.753 116.276 123.599 115.625 124.395 114.916H124.385ZM118.658 114.76H118.966C119.072 114.754 119.178 114.754 119.283 114.76C119.828 114.715 120.363 114.589 120.871 114.387C121.4 114.187 121.879 113.872 122.275 113.465C122.46 113.284 122.606 113.067 122.705 112.826C122.803 112.586 122.852 112.327 122.848 112.067C122.848 111.673 122.643 111.477 122.223 111.477C121.554 111.551 120.928 111.846 120.441 112.316C119.62 112.898 118.998 113.723 118.658 114.677" fill="#1D1D1B"/>
<path d="M125.512 113.155C125.656 112.897 125.776 112.627 125.87 112.347C125.992 111.977 126.168 111.628 126.393 111.311C126.479 111.196 126.59 111.105 126.719 111.043C126.847 110.982 126.988 110.953 127.13 110.959C127.196 110.969 127.255 111.003 127.296 111.055C127.338 111.106 127.359 111.172 127.356 111.238C127.332 111.397 127.276 111.548 127.192 111.684C127.079 111.891 127.028 112.015 127.007 112.036L126.383 113.393L125.737 114.843C125.543 115.278 125.338 115.703 125.143 116.117H125.225C125.512 115.817 125.983 115.351 126.628 114.708C127.274 114.066 127.981 113.393 128.759 112.637C129.309 112.106 129.906 111.628 130.542 111.207L130.788 111.052C130.895 110.978 131.008 110.912 131.126 110.855C131.216 110.814 131.314 110.793 131.412 110.793C131.539 110.794 131.661 110.838 131.761 110.917C131.81 110.956 131.85 111.007 131.877 111.064C131.904 111.122 131.916 111.185 131.914 111.249C131.874 111.538 131.776 111.816 131.628 112.067C131.443 112.461 131.32 112.709 131.29 112.803C130.357 114.926 129.743 116.304 129.466 116.946L129.384 117.143C129.384 117.143 129.384 117.215 129.548 117.267C129.611 117.227 129.68 117.199 129.753 117.184C130.274 116.899 130.759 116.552 131.197 116.148L132.867 114.791H132.949C133.031 114.791 133.072 114.853 133.072 114.988C133.079 115.16 133.044 115.331 132.97 115.485C132.866 115.64 132.738 115.777 132.591 115.889C132.048 116.354 131.477 116.783 130.88 117.174C130.392 117.525 129.862 117.81 129.302 118.023C129.16 118.045 129.014 118.045 128.872 118.023C128.534 118.023 128.339 117.888 128.308 117.619C128.446 117.063 128.628 116.519 128.851 115.993C129.087 115.454 129.333 114.957 129.609 114.367L130.583 112.45C130.617 112.365 130.634 112.273 130.634 112.181C130.634 112.129 130.634 112.098 130.583 112.098C130.478 112.114 130.379 112.157 130.296 112.222C129.776 112.575 129.283 112.966 128.821 113.393C128.349 113.828 127.868 114.315 127.356 114.853C126.844 115.392 126.331 115.889 125.809 116.511C125.286 117.132 124.784 117.547 124.354 117.951C124.256 118.012 124.141 118.038 124.026 118.023C123.791 118.023 123.678 117.93 123.678 117.743V117.578C123.903 117.008 124.272 116.034 124.774 114.657C124.641 114.812 124.457 115.019 124.221 115.268C124.063 115.44 123.896 115.603 123.719 115.755C123.586 115.755 123.524 115.568 123.524 115.34C123.54 115.216 123.579 115.096 123.641 114.988C123.702 114.879 123.785 114.784 123.883 114.708C124.037 114.532 124.293 114.273 124.662 113.921C124.98 113.629 125.278 113.314 125.553 112.979" fill="#1D1D1B"/>
<path d="M137.733 110.938C137.969 110.119 138.204 109.384 138.44 108.721C138.676 108.058 138.942 107.416 139.239 106.753C139.536 106.09 139.874 105.417 140.263 104.681C140.43 104.361 140.648 104.07 140.909 103.821C141.073 103.633 141.298 103.512 141.544 103.479C141.831 103.479 141.974 103.759 141.974 104.319C141.942 104.813 141.873 105.305 141.769 105.789C141.566 106.662 141.316 107.523 141.022 108.369C140.615 109.56 140.14 110.725 139.598 111.859C138.963 113.221 138.231 114.533 137.405 115.785C137.405 115.992 137.354 116.282 137.303 116.666C137.252 117.049 137.467 117.349 137.774 117.38C138.11 117.291 138.431 117.151 138.727 116.966C139.051 116.766 139.359 116.541 139.649 116.293L140.591 115.495C141.011 115.039 141.288 114.822 141.421 114.822C141.554 114.822 141.503 114.967 141.503 115.247C141.5 115.419 141.443 115.586 141.339 115.723C141.221 115.869 141.087 116.002 140.94 116.117L140.468 116.5C139.987 116.914 139.608 117.225 139.352 117.422C139.057 117.648 138.737 117.839 138.399 117.992C138.06 118.167 137.684 118.259 137.303 118.261C137.179 118.275 137.055 118.248 136.948 118.185C136.841 118.121 136.757 118.025 136.709 117.909C136.595 117.61 136.529 117.296 136.514 116.976C136.531 116.874 136.531 116.769 136.514 116.666C136.432 116.717 136.197 116.925 135.797 117.266C135.482 117.548 135.139 117.794 134.773 118.002C134.484 118.15 134.164 118.225 133.84 118.219C132.816 118.219 132.283 117.536 132.283 116.148C132.28 115.218 132.528 114.305 133 113.506C133.481 112.713 134.155 112.057 134.957 111.6C135.79 111.132 136.729 110.89 137.682 110.896L137.733 110.938ZM137.395 111.559C137.263 111.489 137.113 111.46 136.965 111.476C136.552 111.5 136.149 111.617 135.787 111.818C134.779 112.337 133.948 113.149 133.4 114.149C133.132 114.657 132.985 115.22 132.97 115.796C132.97 116.883 133.267 117.443 133.84 117.484C134.578 117.484 135.459 116.8 136.504 115.557C136.691 115.065 136.828 114.555 136.914 114.035C137.118 113.092 137.282 112.263 137.395 111.559ZM137.641 114.035C138.235 113.156 138.74 112.219 139.147 111.238C139.667 110.044 140.116 108.82 140.489 107.571C140.803 106.641 141.016 105.679 141.124 104.702C140.595 105.499 140.136 106.341 139.751 107.219C139.26 108.325 138.832 109.46 138.471 110.616C138.116 111.721 137.839 112.849 137.641 113.993V114.035Z" fill="#1D1D1B"/>
<path d="M144.351 110.597C144.456 110.577 144.564 110.577 144.669 110.597C144.925 110.597 145.048 110.711 145.048 110.938C145.048 111.166 144.966 111.28 144.792 111.311C143.739 111.578 142.811 112.209 142.169 113.093C141.609 113.872 141.291 114.803 141.257 115.765C141.257 116.18 141.36 116.491 141.391 116.677C141.44 116.87 141.535 117.048 141.667 117.195C141.746 117.284 141.842 117.356 141.95 117.406C142.057 117.456 142.174 117.483 142.292 117.485C142.728 117.435 143.141 117.259 143.48 116.977C143.851 116.723 144.171 116.399 144.423 116.024C144.138 115.604 143.991 115.104 144.003 114.595C144.025 113.919 144.178 113.254 144.454 112.637C144.542 112.361 144.714 112.12 144.946 111.949C145.178 111.778 145.457 111.685 145.744 111.684C146.062 111.684 146.257 111.777 146.338 111.974C146.424 112.252 146.462 112.543 146.451 112.834C146.455 113.248 146.396 113.66 146.277 114.056C146.168 114.415 146.024 114.762 145.847 115.092L145.498 115.745H145.673L145.867 115.807C146.128 115.787 146.381 115.705 146.605 115.569C146.857 115.42 147.097 115.25 147.322 115.061L147.67 114.761C147.721 114.761 147.752 114.875 147.752 115.092C147.749 115.316 147.681 115.534 147.555 115.719C147.429 115.903 147.252 116.046 147.045 116.128C146.62 116.37 146.148 116.515 145.662 116.553L145.048 116.428C144.633 116.92 144.15 117.35 143.614 117.702C143.183 117.977 142.688 118.131 142.179 118.148C141.943 118.164 141.707 118.121 141.491 118.023C141.275 117.926 141.086 117.777 140.94 117.589C140.601 117.011 140.451 116.341 140.51 115.672V115.465C140.503 114.502 140.817 113.564 141.401 112.803C141.859 112.17 142.432 111.632 143.091 111.218C143.493 110.973 143.915 110.762 144.351 110.586V110.597ZM144.956 115.341C145.183 114.89 145.378 114.422 145.539 113.942C145.679 113.57 145.761 113.179 145.785 112.782C145.785 112.544 145.785 112.43 145.662 112.43C145.539 112.43 145.212 112.637 145.007 113.062C144.804 113.501 144.689 113.976 144.669 114.46C144.686 114.774 144.785 115.078 144.956 115.341Z" fill="#1D1D1B"/>
<path d="M147.024 114.957C148.483 113.672 149.82 112.254 151.02 110.72C151.1 110.532 151.155 110.333 151.184 110.13C151.236 109.84 151.34 109.563 151.491 109.311C151.561 109.203 151.659 109.115 151.775 109.059C151.89 109.002 152.019 108.979 152.147 108.99C152.372 108.99 152.474 109.135 152.474 109.425C152.454 109.692 152.374 109.951 152.239 110.181C152.081 110.463 151.88 110.718 151.645 110.938C151.582 111.223 151.554 111.515 151.563 111.808C151.563 112.357 151.563 112.657 151.563 112.699C151.563 112.74 151.563 113.04 151.563 113.175C151.563 113.31 151.563 113.444 151.563 113.6C151.563 113.755 151.563 113.952 151.563 114.159C151.532 114.782 151.408 115.397 151.194 115.982C151.069 116.317 150.915 116.639 150.733 116.945C151.393 116.72 152.02 116.406 152.597 116.013C153.087 115.718 153.543 115.371 153.96 114.977C153.96 114.977 154.021 114.905 154.062 114.905C154.103 114.905 154.144 115.008 154.144 115.205C154.154 115.329 154.154 115.454 154.144 115.578C154.111 115.656 154.062 115.727 154.001 115.785C153.591 116.096 152.997 116.5 152.218 116.997C151.605 117.428 150.905 117.718 150.169 117.847C149.968 117.881 149.772 117.94 149.585 118.023L149.073 118.209C148.913 118.254 148.747 118.272 148.582 118.261C147.66 118.261 147.209 118.064 147.209 117.671C147.209 117.474 147.321 117.38 147.547 117.38H147.854H148.213L148.674 117.443C149.027 117.42 149.373 117.336 149.698 117.194C150.149 116.977 150.446 116.407 150.6 115.495C150.753 114.584 150.866 113.424 150.958 112.108C150.805 112.305 150.548 112.574 150.2 112.937L148.725 114.397L147.701 115.433C147.552 115.593 147.383 115.733 147.199 115.847C147.086 115.847 147.035 115.713 147.035 115.516C147.028 115.42 147.043 115.323 147.079 115.233C147.114 115.144 147.169 115.063 147.24 114.998" fill="#1D1D1B"/>
<path d="M159.574 114.998C159.602 114.996 159.63 115.001 159.656 115.014C159.681 115.027 159.702 115.046 159.717 115.071C159.751 115.099 159.773 115.14 159.779 115.185C159.779 115.464 159.727 115.64 159.615 115.723C158.913 116.405 158.144 117.012 157.32 117.536C156.589 118.011 155.741 118.269 154.872 118.282C154.624 118.277 154.377 118.25 154.134 118.199C153.963 118.14 153.807 118.042 153.679 117.913C153.551 117.784 153.455 117.626 153.396 117.453C153.183 116.917 153.085 116.342 153.11 115.765C153.097 115.585 153.097 115.405 153.11 115.226C153.173 114.633 153.392 114.068 153.745 113.589C154.121 113.062 154.569 112.591 155.077 112.191C155.566 111.793 156.095 111.446 156.654 111.155C157.04 110.96 157.462 110.847 157.894 110.824C158.235 110.808 158.57 110.911 158.846 111.114C158.957 111.205 159.045 111.321 159.103 111.452C159.162 111.583 159.19 111.726 159.184 111.87C159.171 112.299 159.074 112.722 158.898 113.113C158.703 113.569 158.467 113.828 158.181 113.879C158.125 113.849 158.067 113.825 158.006 113.807C157.958 113.794 157.914 113.768 157.88 113.732C157.845 113.695 157.822 113.649 157.812 113.6C157.812 113.444 157.976 113.196 158.14 112.833C158.278 112.584 158.378 112.315 158.437 112.036C158.441 111.955 158.421 111.875 158.379 111.807C158.336 111.738 158.274 111.684 158.201 111.652C158.056 111.573 157.894 111.531 157.73 111.528C157.559 111.531 157.39 111.559 157.228 111.611C156.094 112.141 155.129 112.981 154.441 114.035C154.097 114.552 153.895 115.153 153.857 115.775C153.857 116.914 154.257 117.515 155.077 117.577C155.833 117.42 156.555 117.125 157.207 116.707C158.008 116.173 158.778 115.592 159.512 114.967" fill="#1D1D1B"/>
<path d="M162.657 110.597C162.766 110.577 162.877 110.577 162.985 110.597C163.241 110.597 163.364 110.71 163.364 110.938C163.364 111.166 163.282 111.28 163.108 111.311C162.12 111.563 161.24 112.135 160.602 112.939C159.964 113.743 159.603 114.735 159.574 115.765C159.625 116.18 159.666 116.49 159.707 116.677C159.756 116.87 159.851 117.048 159.984 117.195C160.062 117.284 160.159 117.356 160.266 117.406C160.374 117.456 160.49 117.483 160.608 117.485C161.045 117.435 161.457 117.259 161.797 116.977C162.165 116.72 162.485 116.397 162.739 116.024C162.455 115.603 162.305 115.105 162.309 114.595C162.34 113.919 162.497 113.255 162.77 112.637C162.858 112.361 163.031 112.12 163.263 111.949C163.494 111.778 163.774 111.685 164.061 111.684C164.378 111.684 164.573 111.777 164.655 111.974C164.741 112.252 164.779 112.543 164.768 112.834C164.766 113.248 164.708 113.659 164.593 114.056C164.485 114.415 164.341 114.762 164.163 115.092L163.815 115.745H163.989L164.184 115.807C164.445 115.787 164.697 115.705 164.921 115.569C165.172 115.422 165.408 115.252 165.628 115.061L165.987 114.761C166.038 114.761 166.069 114.875 166.069 115.092C166.066 115.316 165.997 115.534 165.871 115.719C165.745 115.903 165.568 116.046 165.362 116.128C164.937 116.37 164.465 116.514 163.979 116.553L163.364 116.428C162.947 116.918 162.464 117.347 161.93 117.702C161.499 117.977 161.004 118.131 160.496 118.148C160.26 118.163 160.023 118.121 159.807 118.023C159.591 117.926 159.402 117.777 159.256 117.588C158.918 117.011 158.767 116.341 158.826 115.672V115.465C158.82 114.502 159.134 113.564 159.717 112.803C160.175 112.17 160.749 111.632 161.407 111.218C161.805 110.971 162.223 110.76 162.657 110.586V110.597ZM163.272 115.341C163.5 114.889 163.695 114.422 163.856 113.942C163.995 113.57 164.078 113.179 164.102 112.782C164.102 112.544 164.102 112.43 163.979 112.43C163.743 112.43 163.518 112.637 163.323 113.062C163.115 113.499 163 113.975 162.985 114.46C163.002 114.774 163.101 115.078 163.272 115.341Z" fill="#1D1D1B"/>
<path d="M169.336 111.02L169.091 111.839L168.845 112.657C169.138 112.242 169.483 111.866 169.869 111.538C170.31 111.094 170.889 110.816 171.508 110.751C171.73 110.715 171.958 110.732 172.172 110.801C172.386 110.869 172.582 110.988 172.742 111.148C172.903 111.307 173.024 111.502 173.096 111.718C173.168 111.933 173.189 112.163 173.158 112.388C173.162 112.736 173.124 113.084 173.045 113.424C172.886 114.178 172.56 114.886 172.092 115.495C171.759 115.999 171.393 116.48 170.996 116.935C171.627 116.913 172.24 116.716 172.768 116.365C173.484 115.915 174.168 115.417 174.817 114.874C174.93 114.874 174.981 114.977 174.981 115.174C174.977 115.292 174.95 115.408 174.901 115.515C174.851 115.622 174.781 115.717 174.694 115.796C173.368 117.076 171.62 117.814 169.787 117.867C169.408 118.099 168.97 118.211 168.527 118.188C168.291 118.205 168.054 118.159 167.841 118.054C167.664 117.924 167.52 117.754 167.421 117.557C167.421 117.308 167.656 117.184 168.128 117.184H168.363C168.575 117.166 168.787 117.166 168.998 117.184H169.326H169.48C169.982 116.795 170.442 116.354 170.853 115.868C171.265 115.364 171.609 114.807 171.877 114.211C172.141 113.669 172.281 113.074 172.287 112.471C172.287 111.88 172.072 111.59 171.621 111.59C171.295 111.609 170.98 111.716 170.709 111.901C170.253 112.211 169.843 112.584 169.49 113.009C169.127 113.412 168.785 113.834 168.466 114.273C168.21 114.646 168.035 114.905 167.933 115.081C167.569 115.687 167.267 116.329 167.032 116.997C166.806 117.654 166.624 118.325 166.489 119.007C166.345 119.663 166.192 120.471 166.028 121.431C165.864 122.384 165.761 122.953 165.72 123.129C165.665 123.344 165.567 123.544 165.433 123.72C165.29 123.886 165.167 123.979 165.054 123.979C164.942 123.979 164.768 123.792 164.768 123.419C164.803 122.72 164.91 122.026 165.085 121.348C165.29 120.405 165.556 119.421 165.853 118.365C166.151 117.308 166.448 116.376 166.724 115.526C167.001 114.677 167.216 114.128 167.339 113.869L166.366 114.905C165.884 115.412 165.577 115.733 165.433 115.858C165.29 115.982 165.433 115.858 165.341 115.93C165.306 115.929 165.272 115.919 165.241 115.9C165.211 115.882 165.186 115.857 165.167 115.827C165.116 115.751 165.091 115.66 165.095 115.568C165.091 115.478 165.108 115.388 165.143 115.306C165.179 115.223 165.232 115.15 165.3 115.091C165.485 114.884 165.853 114.522 166.386 114.055C166.787 113.658 167.163 113.236 167.513 112.792C167.724 112.567 167.916 112.324 168.087 112.067C168.236 111.863 168.35 111.635 168.425 111.393C168.466 111.207 168.537 111.093 168.64 111.052C168.789 111.003 168.945 110.982 169.101 110.989C169.196 110.97 169.293 110.97 169.388 110.989" fill="#1D1D1B"/>
<path d="M177.102 111.021H177.973C177.821 111.444 177.647 111.859 177.45 112.264L176.651 113.859C176.313 114.511 176.047 115.05 175.862 115.485C175.675 115.921 175.521 116.372 175.401 116.832C175.414 116.879 175.438 116.922 175.473 116.956C175.667 116.871 175.852 116.767 176.026 116.645C176.61 116.161 177.167 115.646 177.696 115.102C178.444 114.356 179.161 113.6 179.847 112.844C180.348 112.315 180.807 111.747 181.22 111.145C181.22 111.145 181.363 111.062 181.579 111.062C181.794 111.062 182.091 111.124 182.091 111.228C181.855 111.735 181.548 112.419 181.148 113.299L179.95 115.951L179.007 118.023L180.196 116.987L181.906 115.537L182.931 114.729C182.931 114.729 183.023 114.729 183.064 114.853C183.112 114.95 183.136 115.056 183.136 115.164C183.144 115.241 183.133 115.319 183.105 115.392C183.076 115.464 183.03 115.528 182.972 115.578C182.818 115.702 182.449 116.003 181.865 116.5L180.226 117.888C179.735 118.323 179.263 118.748 178.833 119.162C178.526 119.426 178.254 119.729 178.024 120.063C177.809 120.457 177.522 121.099 177.133 121.886C176.891 122.361 176.676 122.849 176.487 123.347C176.428 123.488 176.337 123.612 176.221 123.71C176.087 123.834 175.911 123.901 175.729 123.896C175.661 123.902 175.592 123.893 175.527 123.87C175.463 123.847 175.403 123.81 175.354 123.762C175.305 123.714 175.266 123.656 175.24 123.591C175.215 123.527 175.203 123.458 175.207 123.388C175.207 123.388 175.207 123.274 175.207 123.181C175.207 123.088 175.207 123.026 175.207 122.974C175.427 122.229 175.774 121.528 176.231 120.902C176.606 120.299 177.023 119.725 177.481 119.183C177.609 119.037 177.716 118.873 177.798 118.696C177.87 118.53 177.973 118.292 178.085 117.971C178.198 117.65 178.311 117.401 178.393 117.215C178.475 117.028 178.731 116.49 179.099 115.692L179.98 113.776C179.714 114.024 179.284 114.47 178.669 115.102C178.055 115.734 177.532 116.251 177.122 116.635C176.734 117.017 176.312 117.364 175.862 117.671C175.465 117.937 175.013 118.11 174.541 118.178C174.285 118.178 174.162 118.054 174.162 117.816C174.176 117.596 174.221 117.38 174.295 117.173C174.534 116.579 174.749 116.082 174.94 115.682C175.135 115.267 175.289 114.988 175.381 114.812L174.817 115.392L174.254 115.982C174.182 115.965 174.113 115.937 174.049 115.899C174.008 115.873 173.975 115.836 173.953 115.792C173.932 115.748 173.922 115.7 173.926 115.651C173.951 115.391 174.072 115.151 174.264 114.977C174.428 114.801 174.766 114.459 175.289 113.942C175.659 113.597 176.002 113.223 176.313 112.823C176.477 112.575 176.618 112.311 176.733 112.036L177.143 111.093" fill="#1D1D1B"/>
<path d="M183.361 118.24H183.187C183.122 118.249 183.056 118.236 183.001 118.202C182.945 118.168 182.902 118.116 182.879 118.054C182.833 117.882 182.812 117.704 182.818 117.526C182.865 117.279 183 117.058 183.197 116.904C183.389 116.733 183.637 116.64 183.893 116.645C184.119 116.645 184.231 116.811 184.231 117.153C184.228 117.406 184.134 117.649 183.965 117.836C183.819 118.041 183.604 118.185 183.361 118.24ZM184.078 115.392L187.346 106.556C187.359 106.465 187.402 106.381 187.469 106.318C187.599 106.214 187.764 106.166 187.93 106.183C187.975 106.177 188.021 106.181 188.064 106.195C188.107 106.209 188.147 106.233 188.179 106.265C188.212 106.297 188.237 106.336 188.252 106.379C188.268 106.423 188.273 106.469 188.268 106.515C188.279 106.59 188.279 106.667 188.268 106.743L184.774 115.433C184.747 115.528 184.695 115.613 184.622 115.679C184.55 115.745 184.461 115.789 184.365 115.806C184.304 115.8 184.246 115.775 184.201 115.734C184.153 115.686 184.121 115.624 184.109 115.558C184.114 115.502 184.114 115.447 184.109 115.392" fill="#1D1D1B"/>
<path d="M183.883 39.2794L179.97 43.9821L181.579 49.8967L175.954 47.5971L170.884 50.9636L171.324 44.8522L166.571 41.0196L172.471 39.5383L174.602 33.7998L177.819 39.0101L183.883 39.2794Z" fill="#FBB800"/>
<path d="M124.56 41.9104C124.564 42.714 124.393 43.5087 124.058 44.2376C123.724 44.9665 123.234 45.6114 122.623 46.1263C121.335 47.2498 119.69 47.8678 117.988 47.8678C116.286 47.8678 114.641 47.2498 113.352 46.1263C112.743 45.6109 112.255 44.9656 111.922 44.2367C111.589 43.5078 111.42 42.7133 111.426 41.9104C111.44 41.4077 111.505 40.9079 111.621 40.4188C110.884 40.3567 110.412 40.3152 110.218 40.3152C107.718 40.3152 106.479 41.3511 106.479 43.4849C106.479 44.5207 107.206 46.9757 108.681 50.7357C110.156 54.4958 110.884 57.4273 110.884 59.5507C110.884 64.1015 108.398 67.5129 103.426 69.7848C99.3027 71.5435 94.8587 72.4012 90.3849 72.3019C86.2764 72.3715 82.187 71.7232 78.2967 70.3856C73.3453 68.597 70.8731 65.8348 70.8799 62.0989C70.8799 56.678 75.4386 53.971 84.5559 53.9779H93.9396L95.7323 57.9555H88.418C86.7652 57.9198 85.1249 58.2522 83.6134 58.9292C82.843 59.2061 82.1748 59.7149 81.6987 60.387C81.2226 61.0592 80.9613 61.8626 80.95 62.6893C80.95 64.5745 82.1793 66.0351 84.6276 67.102C86.5401 67.9315 88.6009 68.3546 90.682 68.345C93.0843 68.4319 95.4584 67.7976 97.5046 66.5219C98.5148 65.8987 99.3425 65.0145 99.9025 63.9603C100.462 62.9062 100.734 61.7202 100.691 60.5244C100.467 57.846 99.7732 55.2293 98.6417 52.7971C97.5029 50.3346 96.809 47.6861 96.5929 44.9765C96.5929 38.9134 101.694 35.8819 111.898 35.8819H117.983C119.634 35.8778 121.228 36.4901 122.459 37.6013C123.105 38.1158 123.629 38.7697 123.992 39.5153C124.356 40.2609 124.549 41.0793 124.56 41.9104Z" fill="#4D4D4D"/>
<path d="M128.882 51.8745H129.61C131.658 51.8745 132.734 52.6203 132.734 54.0912C132.757 54.545 132.671 54.9977 132.484 55.4107C132.297 55.8238 132.014 56.1849 131.658 56.4633C130.752 57.0741 129.673 57.3687 128.585 57.3023H126.782L123.484 65.5061H126.239C128.288 65.5061 129.374 66.2416 129.374 67.7228C129.394 68.1768 129.305 68.6289 129.114 69.0403C128.923 69.4516 128.636 69.81 128.278 70.0845C127.374 70.7018 126.293 71.0004 125.205 70.9339H120.8C119.74 70.9926 118.693 70.6858 117.829 70.0638C117.472 69.7853 117.187 69.4247 116.996 69.0121C116.806 68.5995 116.715 68.1468 116.733 67.6917C116.745 66.9789 116.895 66.2753 117.173 65.6201L117.644 64.5221L120.554 57.2712H120.185C118.341 57.2712 117.419 56.5565 117.419 55.1063C117.404 54.6455 117.499 54.1879 117.695 53.7716C117.891 53.3554 118.183 52.9926 118.546 52.7135C119.448 52.0912 120.529 51.7888 121.619 51.8538H122.746L124.057 48.5702L124.324 47.8969C125.102 46.0531 126.311 45.1312 127.97 45.1312C128.619 45.1202 129.245 45.3698 129.712 45.8252C129.943 46.0328 130.128 46.2881 130.254 46.574C130.379 46.8599 130.442 47.1698 130.439 47.4826C130.386 48.3127 130.167 49.1233 129.794 49.865L128.882 51.8745Z" fill="#4D4D4D"/>
<path d="M148.561 65.5066H151.276C153.325 65.5066 154.349 66.2316 154.349 67.6922C154.37 68.1502 154.28 68.6064 154.087 69.0215C153.894 69.4365 153.605 69.7979 153.243 70.0746C152.341 70.697 151.26 70.9993 150.17 70.9343H147.025C146.441 70.9842 145.856 70.8534 145.347 70.5593C144.838 70.2651 144.43 69.8215 144.177 69.2874C143.233 70.2695 141.963 70.8636 140.612 70.9551H137.805C136.979 70.9835 136.156 70.8221 135.401 70.483C134.645 70.1439 133.975 69.6359 133.441 68.9973C132.283 67.5559 131.689 65.7352 131.771 63.8803C131.765 60.7157 132.931 57.6634 135.039 55.3243C135.914 54.1811 137.03 53.2495 138.306 52.5973C139.582 51.945 140.986 51.5886 142.415 51.5538C143.306 51.4813 144.2 51.6458 145.009 52.031C145.818 52.4163 146.513 53.0088 147.025 53.7498C147.352 53.1782 147.823 52.704 148.39 52.3748C148.956 52.0457 149.598 51.8733 150.252 51.8749C150.924 51.8587 151.576 52.1119 152.065 52.5793C152.298 52.7964 152.484 53.0609 152.609 53.3554C152.734 53.6499 152.797 53.9678 152.792 54.2884C152.766 54.8685 152.631 55.4381 152.393 55.9665L152.126 56.6398L148.561 65.5066ZM139.618 65.6309H140.243C140.809 65.6843 141.376 65.5507 141.86 65.2499C142.344 64.9491 142.719 64.4976 142.927 63.9632L144.648 59.6541C144.848 59.2062 144.966 58.7254 144.996 58.235C144.991 57.9989 144.929 57.7677 144.814 57.5617C144.7 57.3558 144.537 57.1815 144.341 57.0541C143.888 56.7153 143.336 56.5402 142.773 56.5569C142.07 56.621 141.391 56.8453 140.786 57.2131C140.181 57.5809 139.666 58.0825 139.28 58.6804C138.218 59.895 137.615 61.4511 137.58 63.0723C137.58 64.7711 138.256 65.6309 139.618 65.6309Z" fill="#4D4D4D"/>
<path d="M161.469 57.3332L160.64 59.4049C159.882 61.259 158.898 62.1913 157.679 62.1913C157.001 62.2163 156.341 61.975 155.835 61.518C155.599 61.3116 155.41 61.0552 155.283 60.7671C155.155 60.4789 155.092 60.1659 155.097 59.8503C155.168 59.1726 155.348 58.5112 155.63 57.8925L158.417 50.9421C159.1 49.264 160.052 48.425 161.275 48.425C161.798 48.368 162.323 48.517 162.741 48.841C163.159 49.165 163.437 49.6392 163.518 50.1652L163.713 50.9421C163.73 51.0921 163.779 51.2366 163.857 51.3654C163.934 51.4942 164.039 51.6043 164.164 51.6879C164.636 51.824 165.129 51.8731 165.618 51.8329H171.376C173.527 51.8329 174.602 52.5994 174.602 54.1324C174.602 56.2041 173.237 57.24 170.505 57.24L170.228 57.4886C167.626 60.016 166.315 61.9634 166.315 63.341C166.315 64.7187 167.073 65.4127 168.579 65.4127H171.652C173.701 65.4127 174.787 66.1378 174.787 67.5983C174.81 68.0572 174.722 68.5149 174.531 68.9318C174.34 69.3487 174.052 69.7123 173.691 69.9911C172.787 70.6098 171.707 70.9085 170.617 70.8405H165.792C165.038 70.8655 164.288 70.7247 163.593 70.4278C162.898 70.131 162.275 69.6851 161.766 69.121C160.692 67.8941 160.13 66.2937 160.199 64.6565C160.202 63.4751 160.49 62.3124 161.039 61.2694C161.862 59.8108 162.856 58.4579 164 57.24L161.469 57.3332Z" fill="#4D4D4D"/>
<path d="M184.109 58.6803L183.648 59.8197C182.921 61.4667 181.896 62.2954 180.575 62.2954C179.903 62.2969 179.255 62.0416 178.761 61.5806C178.516 61.3851 178.317 61.1367 178.179 60.8535C178.041 60.5704 177.967 60.2597 177.962 59.944C178.029 59.1298 178.274 58.3408 178.679 57.6341L181.958 50.9011C182.757 49.2956 183.761 48.4876 184.959 48.4876C185.571 48.4772 186.162 48.7075 186.609 49.1299C186.826 49.3134 187.002 49.543 187.122 49.8026C187.242 50.0621 187.305 50.3452 187.305 50.6318C187.279 50.9599 187.227 51.2854 187.151 51.6055C187.091 51.9266 187.056 52.2523 187.049 52.5792C187.083 53.7572 187.488 54.8933 188.207 55.8214L189.61 57.7895C190.915 59.4561 191.664 61.4975 191.751 63.6212C191.766 64.6127 191.567 65.5954 191.167 66.5008C190.767 67.4061 190.176 68.2122 189.436 68.8626C187.842 70.2664 185.781 71.0068 183.668 70.9342H178.546C176.497 70.9342 175.422 70.1988 175.422 68.7383C175.403 68.2819 175.494 67.8278 175.687 67.4147C175.879 67.0016 176.168 66.6418 176.528 66.3662C177.428 65.7387 178.511 65.4359 179.601 65.5064H182.46C184.744 65.5064 185.891 64.6674 185.891 62.9894C185.849 62.2262 185.628 61.4843 185.246 60.8245L184.109 58.6803Z" fill="#4D4D4D"/>
<path d="M0 16.9258H22.1787V23.9488H9.05588V31.3239H17.8557V38.3469H9.05588V45.9188H22.1787V53.2422H0V16.9258Z" fill="#1A1A1A"/>
<path d="M24.8525 27.6363H32.7406V31.0546H32.8328C33.6349 29.8065 34.7346 28.7823 36.0307 28.0764C37.3267 27.3705 38.7775 27.0054 40.2496 27.0148C43.6165 27.1253 45.3478 29.052 45.4434 32.7948V53.2422H37.5656V35.1047C37.618 34.8107 37.6032 34.5085 37.5222 34.2212C37.4413 33.9339 37.2964 33.6691 37.0986 33.4471C36.9009 33.2252 36.6555 33.0519 36.3813 32.9407C36.1071 32.8294 35.8114 32.783 35.5168 32.8052C35.0871 32.7973 34.661 32.8862 34.2694 33.0654C33.8779 33.2445 33.5306 33.5094 33.2528 33.841L32.7816 34.4418V53.1904H24.8525V27.6363Z" fill="#1A1A1A"/>
<path d="M70.6953 53.2422H63.0839V50.7562H63.0224C62.1392 51.6826 61.0982 52.4405 59.9491 52.9936C58.9683 53.3715 57.9254 53.5578 56.8759 53.5426C55.6623 53.5567 54.47 53.2201 53.4392 52.5723C52.4084 51.9246 51.582 50.9926 51.0572 49.8861C49.7009 47.2771 49.0306 44.3593 49.1108 41.413C48.9911 38.0952 49.5853 34.7907 50.8523 31.7279C51.363 30.4642 52.2448 29.3893 53.3788 28.6483C54.5127 27.9074 55.8442 27.5361 57.1934 27.5845C58.2793 27.5614 59.3609 27.7296 60.3896 28.0817C61.2994 28.548 62.1211 29.1721 62.8175 29.9255V16.9258H70.6953V53.2422ZM62.8175 33.3956C62.4905 32.9898 62.0703 32.6711 61.5936 32.4671C61.1169 32.2631 60.598 32.18 60.0823 32.2251C59.7808 32.21 59.4799 32.2669 59.2041 32.391C58.9283 32.5152 58.6852 32.7032 58.4945 32.9398C58.0201 33.5345 57.7218 34.2527 57.6339 35.0115C57.3588 36.6815 57.2354 38.3736 57.2652 40.0664C57.1992 42.1451 57.3227 44.2255 57.6339 46.2814C57.9139 47.8559 58.5969 48.6431 59.6828 48.6431C60.3488 48.6389 60.9995 48.4411 61.5575 48.0734C62.0749 47.7097 62.5111 47.2404 62.838 46.6957L62.8175 33.3956Z" fill="#1A1A1A"/>
<path d="M74.2909 40.3558C74.1426 36.9267 75.1344 33.5462 77.108 30.7536C79.0032 28.2987 81.8204 27.0453 85.5493 27.0142C89.2781 26.9831 92.1568 28.2883 94.052 30.7536C95.9912 33.5572 96.9666 36.927 96.8281 40.3454C96.8281 44.3921 95.9198 47.6205 94.1032 50.0305C92.2797 52.558 89.4455 53.8355 85.6005 53.8631C81.7555 53.8907 78.9247 52.6132 77.108 50.0305C75.2299 47.6274 74.2909 44.4025 74.2909 40.3558ZM82.4862 40.3558C82.357 42.5811 82.6207 44.8119 83.2648 46.9437C83.3949 47.4542 83.693 47.9047 84.1101 48.221C84.5272 48.5373 85.0384 48.7006 85.5595 48.6839C86.0707 48.6833 86.5689 48.5203 86.9834 48.2178C87.4225 47.9017 87.755 47.457 87.9362 46.9437C88.496 44.7961 88.7241 42.5739 88.6123 40.3558C88.6928 38.2265 88.5 36.0956 88.0386 34.0165C87.8633 33.4936 87.5304 33.0394 87.0866 32.7178C86.6429 32.3961 86.1106 32.2231 85.5646 32.2231C85.0186 32.2231 84.4864 32.3961 84.0426 32.7178C83.5989 33.0394 83.2659 33.4936 83.0906 34.0165C82.5621 36.0845 82.3582 38.2237 82.4862 40.3558Z" fill="#1A1A1A"/>
<path d="M151.45 5.48993L147.537 10.1823L149.156 16.1073L143.532 13.7973L138.461 17.1742L138.881 11.0524L134.148 7.21978L140.038 5.73854L142.179 0L145.386 5.21026L151.45 5.48993Z" fill="#FBB800"/>
<path d="M174.172 7.96552L170.269 12.6682L171.877 18.5828L166.253 16.2729L161.193 19.6498L161.623 13.528L156.87 9.69537L162.76 8.21412L164.901 2.47559L168.118 7.68584L174.172 7.96552Z" fill="#FBB800"/>
<path d="M107.257 17.1843L103.354 21.887L104.952 27.8016L99.328 25.4917L94.2674 28.8685L94.6977 22.7467L89.9546 18.9141L95.845 17.4329L97.9861 11.6943L101.192 16.9046L107.257 17.1843Z" fill="#FBB800"/>
<path d="M129.22 9.61298L125.317 14.3157L126.926 20.2199L121.302 17.91L116.231 21.2972L116.661 15.1754L111.918 11.3428L117.808 9.86158L119.949 4.12305L123.156 9.3333L129.22 9.61298Z" fill="#FBB800"/>
<path d="M189.641 18.904L185.738 23.6067L187.346 29.5213L181.712 27.2114L176.651 30.5882L177.081 24.4768L172.328 20.6338L178.229 19.163L180.37 13.4141L183.576 18.6243L189.641 18.904Z" fill="#FBB800"/>
<path d="M16.4624 69.9186L20.3654 65.2263L18.7571 59.3013L24.3812 61.6112L29.4521 58.2344L29.0218 64.3562L33.7649 68.1888L27.8744 69.6597L25.7334 75.4085L22.527 70.1983L16.4624 69.9186Z" fill="#FBB800"/>
<path d="M64.2515 97.4932L68.1648 92.8009L66.5564 86.8759L72.1805 89.1962L77.2514 85.8193L76.8211 91.9411L81.5642 95.7634L75.6738 97.2446L73.5327 102.983L70.316 97.7729L64.2515 97.4932Z" fill="#FBB800"/>
<path d="M40.5054 97.0989L44.4084 92.3962L42.8001 86.4816L48.4241 88.7915L53.495 85.4043L53.0648 91.5261L57.8078 95.3587L51.9174 96.8399L49.7764 102.589L46.5699 97.3682L40.5054 97.0989Z" fill="#FBB800"/>
<path d="M107.421 83.7266L111.334 79.0343L109.726 73.1196L115.35 75.4192L120.411 72.0527L119.991 78.1642L124.734 81.9968L118.833 83.478L116.692 89.2166L113.496 84.0063L107.421 83.7266Z" fill="#FBB800"/>
<path d="M86.4814 92.3444L90.3947 87.6417L88.7762 81.7271L94.4002 84.037L99.4711 80.6602L99.0409 86.7819L103.784 90.6145L97.8935 92.0854L95.7525 97.8343L92.546 92.6241L86.4814 92.3444Z" fill="#FBB800"/>
<path d="M17.876 92.3659L21.779 87.6735L20.1707 81.7589L25.7947 84.0585L30.8656 80.6816L30.4251 86.8034L35.1784 90.636L29.288 92.1173L27.147 97.8558L23.9303 92.6456L17.876 92.3659Z" fill="#FBB800"/>
<path d="M193.308 38.6991C193.928 38.6955 194.543 38.8225 195.111 39.072C195.675 39.3159 196.186 39.6677 196.617 40.1079C197.048 40.5439 197.395 41.0566 197.642 41.6202C197.885 42.1947 198.01 42.8131 198.01 43.4381C198.01 44.063 197.885 44.6814 197.642 45.256C197.402 45.8262 197.054 46.3434 196.617 46.7786C196.188 47.2162 195.68 47.5676 195.122 47.8145C194.544 48.0721 193.919 48.2027 193.288 48.1977C192.661 48.2012 192.041 48.0743 191.464 47.8248C190.912 47.5729 190.408 47.222 189.979 46.789C189.544 46.3567 189.196 45.8431 188.955 45.2767C188.711 44.6795 188.596 44.037 188.617 43.3915C188.613 42.968 188.668 42.5461 188.78 42.1381C188.892 41.739 189.054 41.3561 189.262 40.9987C189.464 40.6486 189.712 40.328 190 40.0457C190.284 39.7572 190.605 39.5065 190.952 39.2999C191.305 39.0903 191.684 38.93 192.079 38.8234C192.481 38.7237 192.895 38.6818 193.308 38.6991ZM193.308 47.4001C193.826 47.401 194.338 47.2953 194.814 47.0894C195.28 46.8887 195.704 46.6005 196.064 46.24C196.419 45.8731 196.707 45.4452 196.914 44.9763C197.132 44.4776 197.237 43.9362 197.222 43.3915C197.225 42.8712 197.12 42.356 196.914 41.8791C196.708 41.4122 196.424 40.9846 196.074 40.6154C195.712 40.2551 195.289 39.9639 194.825 39.7557C194.338 39.5477 193.816 39.4405 193.288 39.4405C192.76 39.4405 192.237 39.5477 191.751 39.7557C191.289 39.9625 190.869 40.254 190.512 40.6154C190.152 40.9765 189.867 41.406 189.672 41.8791C189.466 42.356 189.361 42.8712 189.364 43.3915C189.362 43.9183 189.467 44.44 189.672 44.9245C189.874 45.3961 190.162 45.8249 190.522 46.1882C190.878 46.5563 191.303 46.8486 191.772 47.048C192.25 47.2729 192.77 47.393 193.298 47.4001H193.308ZM195.439 46.0639H194.497L194.097 44.9556C194.026 44.6527 193.854 44.384 193.609 44.1951C193.365 44.0063 193.063 43.909 192.755 43.9197H192.1V45.9914H191.29V40.9572H193.185C194.551 40.9572 195.234 41.4234 195.234 42.3556C195.258 42.5417 195.242 42.7307 195.186 42.9097C195.131 43.0888 195.037 43.2534 194.913 43.3923C194.788 43.5312 194.635 43.6411 194.464 43.7143C194.293 43.7874 194.109 43.8222 193.923 43.8161C194.157 43.8825 194.373 44.0046 194.551 44.1722C194.729 44.3397 194.865 44.548 194.947 44.7795L195.439 46.0639ZM192.1 43.2257H193.124C193.933 43.2257 194.333 42.9668 194.333 42.4488C194.333 41.9309 193.913 41.6512 193.083 41.6512H192.059L192.1 43.2257Z" fill="black"/>
</g>
<defs>
<clipPath id="clip0_834_4381">
<rect width="198" height="124" fill="white"/>
</clipPath>
</defs>
</svg>
