<svg width="56" height="36" viewBox="0 0 56 36" fill="none" xmlns="http://www.w3.org/2000/svg">
<g clip-path="url(#clip0_834_5643)">
<path d="M1.23393 34.0867C1.14991 34.0867 1.10645 34.0487 1.10645 33.9727C1.10751 33.8872 1.13944 33.8051 1.19626 33.7417C1.22256 33.7098 1.25527 33.684 1.29224 33.6658C1.3292 33.6477 1.36958 33.6377 1.41067 33.6365C1.47731 33.6365 1.50918 33.6833 1.50918 33.7797C1.50966 33.859 1.4819 33.9358 1.43095 33.9961C1.40698 34.0252 1.37682 34.0484 1.3427 34.0641C1.30859 34.0798 1.27141 34.0876 1.23393 34.0867Z" fill="#1D1D1B"/>
<path d="M2.36677 34.0867C2.28275 34.0867 2.24219 34.0487 2.24219 33.9727C2.24325 33.8872 2.27519 33.8051 2.33201 33.7417C2.3583 33.7098 2.39101 33.684 2.42798 33.6658C2.46495 33.6477 2.50532 33.6377 2.54641 33.6365C2.61015 33.6365 2.64202 33.6833 2.64202 33.7797C2.64233 33.8585 2.61572 33.9349 2.56669 33.9961C2.54242 34.0256 2.51179 34.0491 2.47714 34.0648C2.44249 34.0805 2.40474 34.088 2.36677 34.0867Z" fill="#1D1D1B"/>
<path d="M3.50248 34.0867C3.41846 34.0867 3.375 34.0487 3.375 33.9727C3.37712 33.8869 3.41007 33.8048 3.46772 33.7417C3.49401 33.7098 3.52672 33.684 3.56369 33.6658C3.60066 33.6477 3.64103 33.6377 3.68212 33.6365C3.74586 33.6365 3.77773 33.6833 3.77773 33.7797C3.77822 33.859 3.75045 33.9358 3.6995 33.9961C3.67582 34.0255 3.64571 34.049 3.61153 34.0647C3.57735 34.0805 3.54003 34.088 3.50248 34.0867Z" fill="#1D1D1B"/>
<path d="M5.69886 33.84C5.86863 33.8004 6.02844 33.7257 6.16824 33.6207C6.36807 33.4731 6.5569 33.3109 6.73322 33.1354C6.77089 33.1354 6.79117 33.1734 6.79406 33.2553C6.79696 33.3371 6.72453 33.3985 6.58256 33.5155C6.43004 33.6403 6.26936 33.7546 6.1016 33.8576C5.98523 33.9359 5.86207 34.0034 5.73363 34.0593C5.68801 34.0753 5.63997 34.0832 5.59166 34.0827C5.48736 34.0827 5.42941 34.0447 5.41782 33.9687C5.42958 33.915 5.44507 33.8622 5.46418 33.8108C5.49025 33.7348 5.51343 33.6734 5.53082 33.6324L5.56559 33.5389C5.54241 33.5623 5.48736 33.6266 5.40333 33.726C5.33294 33.8096 5.25642 33.8878 5.17444 33.9599C5.10618 34.0174 5.0288 34.0628 4.94555 34.0944H4.88761C4.86257 34.0971 4.83731 34.0971 4.81227 34.0944C4.50805 34.0944 4.35449 33.8576 4.35449 33.3839C4.35449 32.9103 4.66741 32.5068 5.29613 32.2144C5.52982 32.0838 5.79112 32.0116 6.05814 32.0039C6.15597 32.006 6.25322 32.0198 6.34787 32.0448C6.45507 32.0741 6.50723 32.1209 6.50723 32.191V32.2583C6.48714 32.29 6.46487 32.3203 6.44059 32.3489C6.30367 32.2672 6.15006 32.2182 5.9915 32.2056C5.89266 32.209 5.79494 32.2278 5.70176 32.2612C5.57031 32.302 5.44393 32.358 5.32511 32.4278C5.19126 32.5013 5.06591 32.5896 4.95135 32.691C4.75236 32.8367 4.61729 33.0548 4.57469 33.2991C4.57588 33.3196 4.57588 33.3401 4.57469 33.3605C4.57359 33.379 4.57359 33.3976 4.57469 33.4161C4.57469 33.7084 4.64712 33.8751 4.79489 33.8897C4.89056 33.8779 4.98045 33.8371 5.05275 33.7728C5.42232 33.4441 5.73901 33.0594 5.9915 32.6325C6.01407 32.5908 6.04578 32.5548 6.08421 32.5273C6.12553 32.5104 6.17015 32.5034 6.21459 32.5068C6.27544 32.5068 6.30731 32.5068 6.30731 32.5419C6.30177 32.5688 6.29402 32.5952 6.28413 32.6208C6.11898 32.9629 5.92486 33.3722 5.70466 33.8546" fill="#1D1D1B"/>
<path d="M7.14464 32.5488C7.18231 32.4699 7.24315 32.312 7.33007 32.0664C7.41699 31.8208 7.48943 31.6337 7.54158 31.4992C7.6256 31.239 7.70673 30.9993 7.78206 30.7858C7.85739 30.5724 7.95301 30.2976 8.0718 29.9701C8.0718 29.9262 8.12395 29.9029 8.19638 29.9029C8.20993 29.9014 8.22362 29.9031 8.23643 29.9077C8.24924 29.9124 8.26083 29.92 8.27032 29.9298C8.27981 29.9397 8.28695 29.9516 8.29121 29.9646C8.29547 29.9777 8.29673 29.9916 8.29489 30.0052V30.0286C8.27285 30.1635 8.23692 30.2958 8.18769 30.4233C8.12105 30.6104 8.01675 30.8998 7.86898 31.3004L7.59953 32.0255C7.44887 32.4368 7.24895 33.0215 6.99978 33.7797C6.99978 33.8002 7.02006 33.8148 7.06642 33.8265C7.09142 33.8232 7.11674 33.8232 7.14175 33.8265C7.3131 33.7593 7.47037 33.6601 7.60532 33.5341C7.80524 33.3762 7.9588 33.2418 8.0718 33.1511C8.11815 33.1511 8.14133 33.1774 8.14133 33.2359C8.14139 33.2665 8.13525 33.2969 8.12329 33.325C8.11134 33.3532 8.09381 33.3786 8.0718 33.3996C7.89725 33.5802 7.70284 33.7401 7.49233 33.8762C7.31637 33.9988 7.1092 34.0679 6.89547 34.075C6.77958 34.075 6.71584 34.037 6.70714 33.961C6.71005 33.9515 6.71005 33.9413 6.70714 33.9318C6.70714 33.8587 6.74481 33.7534 6.78248 33.616C6.82014 33.4786 6.85781 33.3587 6.89257 33.2505C6.92734 33.1424 6.95052 33.0605 6.96791 33.0108L6.73612 33.2564C6.6434 33.3529 6.59125 33.4055 6.58256 33.4113C6.56722 33.4136 6.553 33.4208 6.542 33.4318C6.51302 33.4318 6.49854 33.3938 6.49854 33.3178C6.49893 33.2731 6.51424 33.2298 6.542 33.195C6.60878 33.1239 6.67939 33.0565 6.7535 32.9932C6.85201 32.9055 6.93314 32.8324 6.99108 32.771C7.04695 32.7114 7.09469 32.6446 7.13305 32.5722" fill="#1D1D1B"/>
<path d="M8.49178 32.5488C8.52945 32.4699 8.59029 32.312 8.67721 32.0664C8.76413 31.8208 8.83657 31.6337 8.88872 31.4992C8.97564 31.239 9.05387 30.9992 9.1292 30.7858C9.20453 30.5724 9.30014 30.2975 9.41893 29.9701C9.41893 29.9262 9.47109 29.9028 9.54642 29.9028C9.62175 29.9028 9.64203 29.9379 9.64203 30.0052V30.0286C9.61999 30.1635 9.58406 30.2958 9.53483 30.4233C9.46819 30.6104 9.36388 30.8998 9.21902 31.3004L8.94956 32.0255C8.7989 32.4377 8.59609 33.0225 8.34691 33.7797C8.34691 33.8002 8.37009 33.8148 8.41645 33.8265C8.44045 33.8227 8.46488 33.8227 8.48888 33.8265C8.6612 33.7595 8.81946 33.6603 8.95536 33.5341C9.15238 33.3762 9.30884 33.2417 9.41893 33.1511C9.46529 33.1511 9.48847 33.1774 9.48847 33.2359C9.48853 33.2665 9.48239 33.2968 9.47043 33.325C9.45848 33.3531 9.44095 33.3785 9.41893 33.3996C9.24439 33.5802 9.04997 33.7401 8.83946 33.8762C8.66351 33.9988 8.45633 34.0678 8.24261 34.075C8.12671 34.075 8.06297 34.037 8.05428 33.961C8.05702 33.9514 8.05702 33.9413 8.05428 33.9317C8.07148 33.825 8.09567 33.7195 8.12671 33.616L8.23681 33.2505C8.27158 33.1423 8.29476 33.0605 8.31214 33.0108L8.08036 33.2564C8.03183 33.3106 7.98058 33.3623 7.9268 33.4113C7.91145 33.4136 7.89724 33.4208 7.88623 33.4318C7.85726 33.4318 7.84277 33.3938 7.84277 33.3178C7.84317 33.2731 7.85848 33.2298 7.88623 33.195C7.92969 33.1482 7.99923 33.0809 8.09774 32.9932C8.19625 32.9055 8.27738 32.8324 8.33532 32.771C8.3921 32.7122 8.43994 32.6452 8.47729 32.5722" fill="#1D1D1B"/>
<path d="M11.2352 32.0508H11.4815C11.439 32.171 11.3887 32.2882 11.3308 32.4016C11.2758 32.5186 11.2005 32.6677 11.1077 32.8519C11.015 33.0361 10.9368 33.1881 10.8846 33.3109C10.832 33.4345 10.7875 33.5615 10.7514 33.691C10.7514 33.691 10.7514 33.7085 10.7745 33.7261C10.8294 33.7021 10.8818 33.6727 10.931 33.6384C11.0324 33.5594 11.1889 33.4132 11.4033 33.2027C11.6177 32.9922 11.8176 32.7788 12.0117 32.5654C12.1527 32.4162 12.2816 32.2559 12.3971 32.0859C12.3971 32.0859 12.4405 32.0625 12.5014 32.0625C12.5622 32.0625 12.6433 32.08 12.6433 32.1093L12.3797 32.694L12.0291 33.4454L11.7625 34.0301L12.1015 33.7378L12.5854 33.3285C12.7592 33.1823 12.849 33.1062 12.8606 33.1004C12.8722 33.0946 12.8867 33.1004 12.8983 33.1355C12.9107 33.163 12.9167 33.193 12.9157 33.2232C12.9186 33.2448 12.9162 33.2668 12.9086 33.2872C12.901 33.3076 12.8885 33.3258 12.8722 33.3401L12.5564 33.6004L12.1276 34.0126C11.9856 34.1354 11.8553 34.2553 11.7307 34.3722C11.6453 34.4483 11.5686 34.5336 11.5018 34.6266C11.4438 34.7377 11.3598 34.919 11.2526 35.1412C11.1454 35.3634 11.0817 35.5096 11.0672 35.5534C11.0518 35.593 11.0269 35.6282 10.9947 35.6557C10.957 35.6909 10.9071 35.7098 10.8557 35.7084C10.8363 35.7101 10.8169 35.7076 10.7986 35.701C10.7803 35.6945 10.7636 35.6841 10.7496 35.6706C10.7356 35.657 10.7246 35.6406 10.7175 35.6224C10.7103 35.6042 10.707 35.5847 10.7079 35.5651C10.709 35.5456 10.709 35.5261 10.7079 35.5066C10.7079 35.4803 10.7079 35.4628 10.7079 35.4482C10.7679 35.2369 10.8661 35.0386 10.9976 34.8634C11.1036 34.6932 11.2217 34.5309 11.3511 34.3781C11.3873 34.3368 11.4176 34.2905 11.4409 34.2407C11.4612 34.1939 11.4902 34.1266 11.5221 34.036C11.5539 33.9454 11.5858 33.8752 11.609 33.8226C11.6322 33.7699 11.7046 33.6179 11.806 33.3928L12.0581 32.8519H12.0436C11.9712 32.9221 11.8466 33.0478 11.6727 33.2261C11.4989 33.4045 11.354 33.5507 11.2381 33.6588C11.1282 33.7668 11.0089 33.8646 10.8818 33.9512C10.7693 34.0264 10.6416 34.0754 10.508 34.0945C10.4356 34.0945 10.3979 34.0594 10.3979 33.9921C10.4033 33.9302 10.417 33.8692 10.4385 33.8109C10.5061 33.6432 10.5669 33.5029 10.621 33.3898C10.676 33.2729 10.7166 33.194 10.7427 33.1443L10.5833 33.308L10.4211 33.4746C10.4011 33.4687 10.3817 33.4608 10.3631 33.4512C10.3516 33.4438 10.3422 33.4334 10.3361 33.421C10.33 33.4087 10.3273 33.3949 10.3284 33.3811C10.3362 33.3074 10.3714 33.2395 10.4269 33.191C10.4732 33.1413 10.5659 33.0448 10.7166 32.8987C10.8226 32.8026 10.9196 32.6969 11.0063 32.5829C11.0552 32.5138 11.096 32.4392 11.128 32.3607L11.2439 32.0946" fill="#1D1D1B"/>
<path d="M13.7246 31.9277C13.7543 31.9225 13.7847 31.9225 13.8144 31.9277C13.8897 31.9277 13.9245 31.9599 13.9245 32.0242C13.9245 32.0885 13.9013 32.1207 13.852 32.1295C13.554 32.2042 13.2915 32.3821 13.1103 32.6323C12.9506 32.8516 12.8606 33.1147 12.8525 33.3867C12.8525 33.5036 12.8785 33.5913 12.8901 33.644C12.9028 33.6982 12.9287 33.7485 12.9654 33.7901C12.9885 33.8151 13.0163 33.8352 13.0471 33.8493C13.078 33.8634 13.1113 33.8711 13.1451 33.872C13.2687 33.8541 13.3845 33.8002 13.4783 33.717C13.5825 33.6444 13.6728 33.5532 13.7448 33.4481C13.6646 33.3292 13.6221 33.1884 13.6231 33.0446C13.632 32.8538 13.6762 32.6664 13.7535 32.492C13.7784 32.4146 13.8267 32.3469 13.8917 32.2987C13.9567 32.2504 14.035 32.224 14.1157 32.223C14.2055 32.223 14.2606 32.2493 14.2837 32.3049C14.3106 32.3828 14.3224 32.4652 14.3185 32.5476C14.3186 32.6646 14.3011 32.7809 14.2664 32.8926C14.2365 32.9938 14.1967 33.0917 14.1476 33.1849L14.0491 33.3691H14.0954L14.1505 33.3867C14.2244 33.3818 14.2961 33.3588 14.3591 33.3194C14.4309 33.278 14.4988 33.2301 14.5619 33.1762L14.6633 33.0914C14.6778 33.0914 14.6865 33.1235 14.6865 33.1849C14.6857 33.2482 14.6662 33.3098 14.6306 33.3618C14.595 33.4139 14.5449 33.4541 14.4866 33.4773C14.3655 33.5459 14.231 33.5868 14.0925 33.5972L13.9216 33.5621C13.8035 33.7003 13.667 33.8213 13.5159 33.9217C13.3933 33.9996 13.2523 34.043 13.1074 34.0474C13.0407 34.0514 12.9741 34.0391 12.9131 34.0116C12.8521 33.9841 12.7985 33.9423 12.7568 33.8895C12.6637 33.7256 12.6223 33.5369 12.638 33.3487V33.2902C12.6405 33.0202 12.7323 32.7588 12.8988 32.5476C13.0283 32.3689 13.1906 32.2171 13.3769 32.1002C13.4906 32.031 13.6098 31.9714 13.7332 31.9219L13.7246 31.9277ZM13.9042 33.2639C13.9708 33.1371 14.027 33.0051 14.0722 32.8692C14.1116 32.7642 14.135 32.6538 14.1418 32.5417C14.1418 32.4745 14.1418 32.4423 14.1041 32.4423C14.0664 32.4423 13.9766 32.5008 13.9187 32.6206C13.8625 32.745 13.8301 32.8789 13.8231 33.0154C13.8279 33.104 13.8559 33.1897 13.9042 33.2639Z" fill="#1D1D1B"/>
<path d="M16.6221 32.0273H16.6482H16.7438H16.822C16.7612 32.1794 16.6598 32.4045 16.5178 32.694C16.3758 32.9834 16.2744 33.1939 16.2281 33.3167C16.1643 33.4597 16.1082 33.6061 16.06 33.7553C16.06 33.7757 16.06 33.7933 16.1064 33.8021C16.1515 33.7867 16.1952 33.7671 16.2368 33.7436C16.3936 33.649 16.5436 33.5435 16.6858 33.4278C16.8597 33.2904 16.9901 33.1822 17.0799 33.1033C17.0799 33.1033 17.1031 33.1354 17.1031 33.1968C17.1067 33.2526 17.0966 33.3084 17.0739 33.3594C17.0512 33.4104 17.0164 33.4549 16.9727 33.4892C16.8387 33.5953 16.6984 33.6929 16.5526 33.7816L16.3295 33.9278C16.2608 33.9734 16.188 34.0126 16.1122 34.0447C16.0432 34.0733 15.9694 34.0882 15.8949 34.0886C15.8759 34.0902 15.8568 34.0878 15.8388 34.0817C15.8207 34.0755 15.8041 34.0657 15.79 34.0528C15.7759 34.04 15.7645 34.0243 15.7567 34.0068C15.7488 33.9893 15.7445 33.9704 15.7442 33.9512C15.7677 33.8285 15.8046 33.7089 15.8543 33.5945C15.9036 33.4775 15.9731 33.3372 16.06 33.1705C16.1469 33.0039 16.2078 32.8781 16.2483 32.7758C16.0919 32.9395 15.9586 33.0682 15.8427 33.1851C15.7268 33.3021 15.6138 33.4044 15.4921 33.5097C15.3704 33.6149 15.2575 33.7114 15.1387 33.8021C15.0199 33.8927 14.9156 33.9687 14.8142 34.033C14.7471 34.0742 14.6695 34.0945 14.5911 34.0915C14.5012 34.0915 14.4578 34.0652 14.4578 34.0126C14.4564 33.999 14.4564 33.9852 14.4578 33.9716C14.4598 33.96 14.4598 33.9482 14.4578 33.9365C14.4578 33.9102 14.5215 33.7757 14.62 33.5301C14.7185 33.2846 14.7823 33.1384 14.8113 33.0857L14.6461 33.2933C14.6005 33.3554 14.5434 33.408 14.4781 33.4483C14.4404 33.4483 14.423 33.419 14.423 33.3576C14.4219 33.3308 14.4262 33.304 14.4357 33.2789C14.4452 33.2537 14.4596 33.2308 14.4781 33.2115L14.7214 32.9688C14.8315 32.8577 14.9127 32.7787 14.9619 32.7261C15.0026 32.6777 15.0376 32.6247 15.0662 32.5682C15.1058 32.4951 15.1416 32.42 15.1734 32.3431L15.269 32.1355C15.298 32.0887 15.3241 32.0654 15.3502 32.0654C15.469 32.0654 15.5269 32.0654 15.5269 32.0887C15.495 32.2247 15.4494 32.3569 15.3907 32.4834C15.3299 32.6179 15.2488 32.7758 15.1503 32.9629C15.0517 33.1501 14.9735 33.2904 14.9243 33.3898C14.8711 33.4975 14.8256 33.6089 14.7881 33.7231C14.7881 33.7377 14.8055 33.7523 14.8344 33.764C14.8786 33.7451 14.9213 33.7226 14.9619 33.6968C15.0952 33.5974 15.2517 33.4658 15.4342 33.3021C15.6167 33.1384 15.7906 32.9746 15.9586 32.8021C16.1267 32.6296 16.2483 32.4805 16.37 32.349L16.5149 32.1706C16.5315 32.1477 16.5499 32.1261 16.57 32.1063L16.6308 32.0654" fill="#1D1D1B"/>
<path d="M18.4849 32.653C18.5284 32.5813 18.5634 32.5048 18.5892 32.4249C18.6237 32.3205 18.6735 32.222 18.737 32.1325C18.7609 32.0999 18.7925 32.0737 18.8289 32.0563C18.8653 32.039 18.9054 32.031 18.9456 32.0331C18.9638 32.0366 18.9801 32.0464 18.9918 32.0609C19.0035 32.0753 19.0097 32.0934 19.0094 32.1121C19.001 32.1563 18.9854 32.1988 18.963 32.2378L18.9109 32.3372C18.8616 32.4425 18.8008 32.5711 18.7341 32.7202L18.5487 33.1354C18.4946 33.2582 18.4395 33.3781 18.3835 33.495H18.4038C18.4849 33.4102 18.6182 33.2787 18.7979 33.0974C18.9775 32.9161 19.1832 32.7261 19.4034 32.5126C19.5583 32.3622 19.7271 32.2271 19.9075 32.1092L19.9771 32.0653C20.0071 32.0438 20.0391 32.0252 20.0727 32.0098C20.0981 31.9978 20.1258 31.9918 20.1538 31.9922C20.1888 31.9924 20.2226 32.0048 20.2494 32.0273C20.2642 32.0378 20.2761 32.0519 20.2842 32.0682C20.2923 32.0845 20.2963 32.1026 20.2958 32.1209C20.2829 32.2022 20.2554 32.2804 20.2147 32.3518C20.1596 32.4629 20.1277 32.5331 20.119 32.5594C19.8525 33.1588 19.6815 33.5476 19.6033 33.7289C19.5965 33.7482 19.5877 33.7668 19.5772 33.7845C19.5772 33.7845 19.5946 33.8049 19.6236 33.8195C19.6418 33.8092 19.6613 33.8014 19.6815 33.7962C19.8296 33.7154 19.9677 33.6172 20.093 33.5038L20.5681 33.1354H20.5913C20.6145 33.1354 20.6261 33.1529 20.6261 33.1909C20.6272 33.2397 20.6163 33.2879 20.5942 33.3313C20.5658 33.3757 20.5295 33.4144 20.487 33.4453C20.3347 33.5766 20.174 33.6977 20.0061 33.8078C19.8678 33.9062 19.7179 33.9868 19.5599 34.0476C19.5195 34.0538 19.4785 34.0538 19.4382 34.0476C19.3397 34.0476 19.2875 34.0096 19.2759 33.9336C19.3172 33.777 19.3695 33.6236 19.4324 33.4745C19.4961 33.3225 19.5686 33.1822 19.6468 33.0155C19.725 32.8489 19.8148 32.6822 19.9191 32.4746C19.9295 32.4506 19.9354 32.4248 19.9365 32.3986C19.9365 32.384 19.9365 32.3752 19.9191 32.3752C19.8905 32.3799 19.8635 32.392 19.8409 32.4103C19.6934 32.5104 19.553 32.6208 19.4208 32.7407C19.2904 32.8635 19.1513 33.0009 19.0094 33.1529L18.5719 33.6207C18.4212 33.7786 18.2821 33.9131 18.1575 34.0271C18.1311 34.0447 18.0991 34.052 18.0677 34.0476C18.0011 34.0476 17.9692 34.0213 17.9692 33.9687V33.9219C18.033 33.7611 18.1373 33.4862 18.2792 33.0974L18.1199 33.2699C18.0768 33.319 18.0303 33.3649 17.9808 33.4073C17.9431 33.4073 17.9229 33.3547 17.9229 33.2903C17.9272 33.255 17.9387 33.2209 17.9567 33.1903C17.9746 33.1596 17.9986 33.1329 18.0272 33.112C18.0677 33.0623 18.1431 32.9892 18.2445 32.8898C18.3354 32.808 18.4197 32.7191 18.4965 32.6237" fill="#1D1D1B"/>
<path d="M22.2249 33.1463C22.2481 33.1463 22.2597 33.1755 22.2597 33.234C22.2597 33.2646 22.2536 33.2949 22.2416 33.3231C22.2297 33.3512 22.2121 33.3766 22.1901 33.3977C22.0366 33.5264 21.9004 33.6404 21.7671 33.7339C21.625 33.8358 21.4713 33.9202 21.3093 33.9854C21.1303 34.0602 20.9382 34.098 20.7444 34.0965C20.6726 34.0966 20.6023 34.076 20.5417 34.0372C20.4811 33.9983 20.4328 33.9428 20.4025 33.8772C20.3335 33.6986 20.3019 33.5074 20.3098 33.3158C20.3227 33.0534 20.4322 32.8053 20.6169 32.62C20.8113 32.3938 21.05 32.2106 21.318 32.082C21.4242 32.0373 21.5366 32.0097 21.6512 32.0002C21.743 31.9976 21.8332 32.0242 21.9091 32.0762C21.943 32.1012 21.9703 32.1343 21.9885 32.1726C22.0067 32.2109 22.0153 32.2531 22.0134 32.2955C22.0216 32.45 21.9862 32.6037 21.9113 32.7388C21.8364 32.8738 21.7252 32.9847 21.5904 33.0586C21.2715 33.2295 20.9141 33.3141 20.5531 33.3042C20.5586 33.3517 20.5586 33.3998 20.5531 33.4474C20.5504 33.5676 20.5859 33.6854 20.6545 33.7836C20.6972 33.8242 20.748 33.8551 20.8034 33.8743C20.8589 33.8934 20.9178 33.9004 20.9761 33.8947C21.1693 33.8706 21.3545 33.8026 21.5179 33.6959C21.7702 33.5317 22.0095 33.3479 22.2336 33.1463H22.2249ZM20.6111 33.1024H20.7009C20.7298 33.1005 20.7589 33.1005 20.7878 33.1024C20.9418 33.0899 21.0932 33.0544 21.2369 32.9972C21.3868 32.9414 21.5224 32.8525 21.6338 32.737C21.6866 32.686 21.7284 32.6247 21.7568 32.5568C21.7852 32.4889 21.7996 32.4159 21.799 32.3422C21.799 32.2311 21.7381 32.1756 21.6194 32.1756C21.4301 32.1967 21.253 32.2799 21.1152 32.4124C20.8831 32.5769 20.707 32.8097 20.6111 33.079" fill="#1D1D1B"/>
<path d="M23.8821 33.1463C23.9024 33.1463 23.914 33.1755 23.914 33.234C23.914 33.2646 23.9079 33.2949 23.8959 33.3231C23.884 33.3512 23.8665 33.3766 23.8444 33.3977C23.6938 33.5264 23.5547 33.6404 23.4243 33.7339C23.2808 33.8352 23.1262 33.9196 22.9636 33.9854C22.7856 34.0603 22.5944 34.0981 22.4016 34.0965C22.3294 34.0968 22.2586 34.0763 22.1975 34.0375C22.1365 33.9987 22.0876 33.9431 22.0568 33.8772C21.9878 33.6986 21.9562 33.5074 21.9641 33.3158C21.977 33.0528 22.0877 32.8043 22.2741 32.62C22.4668 32.3932 22.7047 32.2099 22.9723 32.082C23.0785 32.0373 23.1909 32.0097 23.3055 32.0002C23.3973 31.9976 23.4875 32.0242 23.5634 32.0762C23.5974 32.1012 23.6247 32.1343 23.6428 32.1726C23.661 32.2109 23.6696 32.2531 23.6677 32.2955C23.6751 32.4509 23.6384 32.6053 23.5619 32.7404C23.4854 32.8756 23.3724 32.9859 23.236 33.0586C22.9172 33.2299 22.5598 33.3145 22.1987 33.3042C22.2042 33.3517 22.2042 33.3998 22.1987 33.4474C22.196 33.5676 22.2316 33.6854 22.3002 33.7836C22.3433 33.8244 22.3945 33.8555 22.4505 33.8746C22.5065 33.8938 22.5658 33.9007 22.6247 33.8947C22.8169 33.8706 23.0012 33.8026 23.1636 33.6959C23.4159 33.5317 23.6551 33.3479 23.8792 33.1463H23.8821ZM22.2567 33.1024H22.3465C22.3755 33.1005 22.4045 33.1005 22.4334 33.1024C22.5875 33.0899 22.7388 33.0544 22.8825 32.9972C23.0329 32.9407 23.1693 32.8519 23.2824 32.737C23.3343 32.6855 23.3754 32.6241 23.4033 32.5563C23.4312 32.4884 23.4452 32.4157 23.4446 32.3422C23.4446 32.2311 23.3838 32.1756 23.2679 32.1756C23.0776 32.1961 22.8994 32.2793 22.7608 32.4124C22.5287 32.5769 22.3527 32.8097 22.2567 33.079" fill="#1D1D1B"/>
<path d="M25.2621 32.027C25.3288 31.796 25.3954 31.5884 25.462 31.4013C25.5287 31.2142 25.6011 31.0329 25.6851 30.8458C25.7692 30.6587 25.8677 30.4686 25.9749 30.261C26.0221 30.1713 26.0827 30.0895 26.1545 30.0184C26.2016 29.9647 26.2665 29.9304 26.337 29.9219C26.4153 29.9219 26.4558 30.0008 26.4558 30.1587C26.4481 30.2985 26.4287 30.4374 26.3979 30.5739C26.3554 30.7688 26.2858 31.0115 26.1893 31.3019C26.0744 31.638 25.9399 31.967 25.7865 32.2872C25.6071 32.6714 25.3999 33.0418 25.1665 33.3953C25.1665 33.4537 25.1665 33.5356 25.1375 33.6438C25.1086 33.752 25.181 33.8367 25.2708 33.8455C25.3652 33.8208 25.4551 33.7814 25.5374 33.7286C25.6304 33.6728 25.7186 33.6092 25.801 33.5385L26.0676 33.3134C26.1835 33.1848 26.2617 33.1234 26.3023 33.1234C26.3428 33.1234 26.3254 33.1643 26.3254 33.2432C26.3249 33.2925 26.3075 33.34 26.2762 33.3777C26.244 33.419 26.207 33.4563 26.1661 33.4888L26.0328 33.597C25.8937 33.714 25.7894 33.8017 25.717 33.8572C25.6331 33.9204 25.5428 33.9743 25.4475 34.018C25.3514 34.0673 25.2453 34.0933 25.1375 34.094C25.1022 34.0982 25.0665 34.0908 25.0357 34.0729C25.0049 34.055 24.9807 34.0276 24.9666 33.9946C24.9369 33.9099 24.9194 33.8213 24.9144 33.7315C24.9178 33.7024 24.9178 33.6729 24.9144 33.6438C24.8913 33.6584 24.8217 33.7169 24.7116 33.8134C24.6221 33.8921 24.525 33.9616 24.4219 34.0209C24.34 34.0621 24.2497 34.0832 24.1582 34.0823C23.8685 34.0823 23.7178 33.8894 23.7178 33.4976C23.7157 33.2349 23.7859 32.9768 23.9206 32.752C24.0558 32.5274 24.2465 32.342 24.474 32.2141C24.7095 32.0815 24.9751 32.013 25.2447 32.0153L25.2621 32.027ZM25.1636 32.2024C25.1262 32.1827 25.0839 32.1745 25.0419 32.179C24.9251 32.1854 24.8112 32.2184 24.7087 32.2755C24.5702 32.3439 24.4431 32.4336 24.3321 32.5415C24.2152 32.6555 24.1174 32.7878 24.0423 32.9333C23.9653 33.0762 23.9236 33.2356 23.9206 33.3982C23.9206 33.7052 24.0018 33.8631 24.1669 33.8748C24.3321 33.8865 24.6247 33.6818 24.9202 33.3309C24.9713 33.1916 25.0092 33.0477 25.0332 32.9012C25.0941 32.6351 25.1375 32.4012 25.1723 32.2024H25.1636ZM25.2389 32.9012C25.4093 32.6541 25.553 32.3895 25.6677 32.1117C25.8137 31.7743 25.9405 31.4288 26.0473 31.0767C26.1346 30.8137 26.1948 30.5424 26.2269 30.2669C26.0763 30.4912 25.9463 30.729 25.8387 30.9773C25.6984 31.2891 25.5774 31.6094 25.4765 31.9363C25.3766 32.2484 25.2973 32.5668 25.2389 32.8895V32.9012Z" fill="#1D1D1B"/>
<path d="M28.0895 31.9991C28.1272 31.8821 28.1851 31.7067 28.2692 31.4465C28.3532 31.1863 28.443 30.9319 28.5386 30.6571C28.5983 30.4731 28.6679 30.2925 28.7472 30.1162L28.8602 29.9379C28.8704 29.9277 28.8827 29.92 28.8963 29.9154C28.9099 29.9109 28.9243 29.9095 28.9385 29.9115C28.9819 29.9115 29.0051 29.9642 29.0051 30.0285C29.0079 30.0577 29.0079 30.087 29.0051 30.1162C29.0031 30.1474 29.0031 30.1786 29.0051 30.2098C28.8936 30.6068 28.7601 30.9973 28.6053 31.3793C28.3677 32.002 28.1736 32.502 28.0258 32.8791C27.9476 33.075 27.852 33.3382 27.7361 33.6685C27.6202 33.9989 27.4811 34.303 27.3855 34.5954C27.318 34.7865 27.2628 34.9818 27.2203 35.1801C27.2203 35.2006 27.2203 35.2298 27.2203 35.262C27.2184 35.2843 27.2184 35.3068 27.2203 35.3292C27.2203 35.4082 27.2435 35.4491 27.2928 35.4491C27.342 35.4491 27.4 35.4082 27.455 35.3292C27.5492 35.1974 27.6334 35.0586 27.7071 34.9141C27.7663 34.7969 27.8148 34.6746 27.852 34.5486C27.8838 34.4316 27.9157 34.2942 27.9447 34.1363C27.9736 33.9785 27.9997 33.8264 28.0229 33.6861C28.1315 33.6404 28.237 33.5877 28.3387 33.5282C28.5159 33.4231 28.6811 33.2986 28.8313 33.1569C28.8399 33.1459 28.8523 33.1386 28.866 33.1364C28.8979 33.1364 28.9124 33.1686 28.9124 33.2329C28.9119 33.2855 28.8911 33.3359 28.8544 33.3732C28.6529 33.5407 28.4356 33.6876 28.2054 33.8118C28.2007 34 28.1764 34.1872 28.133 34.3702C28.0898 34.5626 28.0317 34.7513 27.9592 34.9345C27.9051 35.0781 27.8341 35.2145 27.7476 35.3409C27.7136 35.3992 27.6717 35.4523 27.6231 35.4988C27.562 35.57 27.4895 35.6303 27.4087 35.6771C27.348 35.6983 27.2845 35.7102 27.2203 35.7122C27.0784 35.7122 27.0088 35.6041 27.0088 35.3935C27.0049 35.3254 27.0049 35.257 27.0088 35.1889C27.0391 35.0122 27.0798 34.8374 27.1305 34.6655C27.1856 34.4726 27.2667 34.2328 27.3681 33.9434C27.4695 33.6539 27.5941 33.3089 27.739 32.9084L27.4492 33.2007C27.3723 33.2851 27.289 33.3633 27.2 33.4346C27.1682 33.4346 27.1537 33.382 27.1537 33.2914C27.1503 33.276 27.1503 33.26 27.1537 33.2446L27.2029 33.1803L27.2435 33.1335C27.2763 33.0965 27.3662 33.0058 27.513 32.8616C27.6299 32.7505 27.7411 32.6334 27.8462 32.5107C27.8741 32.4743 27.8966 32.4339 27.9128 32.3909C27.9389 32.3353 27.9678 32.271 27.9968 32.1921C28.0258 32.1131 28.0548 32.0429 28.0808 31.9845" fill="#1D1D1B"/>
<path d="M29.7031 31.929C29.7328 31.9237 29.7632 31.9237 29.7929 31.929C29.8683 31.929 29.903 31.9611 29.903 32.0255C29.903 32.0898 29.8798 32.1219 29.8306 32.1307C29.5326 32.2054 29.27 32.3834 29.0889 32.6336C28.9291 32.8528 28.8392 33.1159 28.831 33.3879C28.831 33.5049 28.8571 33.5926 28.8687 33.6452C28.8826 33.699 28.9084 33.749 28.944 33.7914C28.9671 33.8164 28.9948 33.8365 29.0257 33.8506C29.0565 33.8646 29.0898 33.8723 29.1236 33.8733C29.247 33.8592 29.3637 33.8095 29.4597 33.73C29.5639 33.6573 29.6543 33.5662 29.7263 33.461C29.646 33.3421 29.6036 33.2014 29.6046 33.0575C29.6135 32.8667 29.6577 32.6793 29.735 32.505C29.7598 32.4275 29.8082 32.3599 29.8731 32.3116C29.9381 32.2634 30.0165 32.2369 30.0971 32.236C30.187 32.236 30.2449 32.2623 30.2652 32.3178C30.292 32.3957 30.3038 32.4781 30.3 32.5605C30.3001 32.6775 30.2825 32.7939 30.2478 32.9055C30.2192 33.0072 30.1793 33.1052 30.129 33.1979L30.0305 33.3821H30.0769L30.1319 33.3996C30.2059 33.3948 30.2775 33.3717 30.3405 33.3324C30.4128 33.2917 30.4807 33.2437 30.5433 33.1891L30.6447 33.1043C30.6447 33.1043 30.6679 33.1365 30.6679 33.1979C30.6671 33.2611 30.6477 33.3227 30.6121 33.3748C30.5765 33.4268 30.5263 33.467 30.468 33.4903C30.3469 33.5589 30.2124 33.5998 30.074 33.6101L29.903 33.575C29.7843 33.7126 29.6479 33.8336 29.4974 33.9347C29.3747 34.0125 29.2337 34.0559 29.0889 34.0604C29.0222 34.0643 28.9555 34.052 28.8945 34.0245C28.8335 33.9971 28.7799 33.9552 28.7383 33.9025C28.6451 33.7386 28.6037 33.5499 28.6195 33.3616V33.3031C28.6167 33.0316 28.7044 32.7669 28.8687 32.5517C28.9996 32.3744 29.1616 32.2228 29.3467 32.1044C29.4605 32.0352 29.5797 31.9755 29.7031 31.9261V31.929ZM29.874 33.268C29.9406 33.1413 29.9968 33.0093 30.0421 32.8733C30.0814 32.7683 30.1049 32.6579 30.1116 32.5459C30.1116 32.4786 30.1116 32.4465 30.074 32.4465C30.0363 32.4465 29.9465 32.505 29.8914 32.6248C29.833 32.7485 29.7995 32.8827 29.7929 33.0195C29.7992 33.1079 29.827 33.1933 29.874 33.268Z" fill="#1D1D1B"/>
<path d="M31.1287 32.2125C31.0948 32.184 31.0686 32.1474 31.0524 32.106C31.0362 32.0646 31.0306 32.0198 31.036 31.9757C31.0333 31.9331 31.0442 31.8908 31.0672 31.855C31.0901 31.8192 31.1239 31.7918 31.1634 31.7769C31.1739 31.7791 31.1848 31.7791 31.1953 31.7769H31.2272C31.2967 31.7769 31.3402 31.7973 31.3547 31.8412C31.3795 31.9165 31.3979 31.9937 31.4097 32.0722H31.5546C31.8443 32.0722 31.9776 32.1745 31.9776 32.3645C31.9767 32.4251 31.9669 32.4852 31.9486 32.5429C31.921 32.6216 31.8891 32.6987 31.853 32.7738L31.7777 32.9434L31.6096 33.3147L31.4561 33.6597C31.4349 33.7044 31.4194 33.7515 31.4097 33.8001L31.4387 33.8235C31.5386 33.7915 31.6311 33.7398 31.711 33.6714C31.8443 33.5808 31.966 33.4843 32.0848 33.3791L32.3398 33.1686L32.3658 33.1422C32.3702 33.1371 32.3755 33.1329 32.3814 33.1299C32.3874 33.1268 32.3939 33.1251 32.4006 33.1247C32.4267 33.1247 32.4383 33.1247 32.4383 33.1569V33.2446C32.4379 33.2724 32.4308 33.2996 32.4177 33.3241C32.4045 33.3485 32.3858 33.3694 32.3629 33.3849C32.1717 33.5486 32.0269 33.6773 31.9312 33.7475C31.8095 33.8402 31.6795 33.9214 31.543 33.9901C31.4555 34.0449 31.356 34.077 31.2533 34.0837C31.2166 34.085 31.1807 34.0731 31.152 34.05C31.1233 34.027 31.1037 33.9943 31.0968 33.958C31.1287 33.8586 31.1663 33.7533 31.2098 33.648C31.2533 33.5428 31.3083 33.4054 31.3836 33.2387L31.5749 32.7972C31.6299 32.6686 31.6763 32.5516 31.711 32.4464C31.7101 32.4347 31.7101 32.423 31.711 32.4113C31.7134 32.3997 31.7134 32.3878 31.711 32.3762C31.711 32.3002 31.6415 32.2622 31.4995 32.2622C31.4629 32.2587 31.4261 32.2587 31.3894 32.2622H31.2996C31.0599 32.6777 30.7677 33.06 30.4304 33.3995C30.3899 33.3995 30.3725 33.3498 30.3725 33.2826C30.3704 33.2542 30.3764 33.2258 30.3899 33.2007L30.4739 33.1042C30.6425 32.9478 30.7913 32.7711 30.9172 32.578C31.0002 32.4485 31.0766 32.3148 31.1461 32.1774" fill="#1D1D1B"/>
<path d="M35.1791 33.1463C35.2023 33.1463 35.2139 33.1755 35.2139 33.234C35.2139 33.2646 35.2078 33.2949 35.1959 33.3231C35.1839 33.3512 35.1664 33.3766 35.1444 33.3977C34.9908 33.5264 34.8546 33.6404 34.7213 33.7339C34.5782 33.8358 34.4235 33.9202 34.2607 33.9854C34.0827 34.0606 33.8915 34.0984 33.6986 34.0965C33.6267 34.097 33.5563 34.0765 33.4956 34.0376C33.435 33.9987 33.3868 33.9431 33.3567 33.8772C33.2852 33.6992 33.2526 33.5077 33.2611 33.3158C33.2751 33.0531 33.3856 32.805 33.5711 32.62C33.7649 32.3931 34.0038 32.2099 34.2723 32.082C34.3782 32.0367 34.4907 32.009 34.6054 32.0002C34.6963 31.9976 34.7856 32.0242 34.8604 32.0762C34.8947 32.1011 34.9224 32.1341 34.9411 32.1723C34.9598 32.2106 34.9689 32.2529 34.9676 32.2955C34.9751 32.4513 34.9381 32.606 34.8611 32.7412C34.784 32.8765 34.6702 32.9866 34.533 33.0586C34.2153 33.2299 33.8588 33.3146 33.4987 33.3042C33.5045 33.3517 33.5045 33.3998 33.4987 33.4474C33.4968 33.5679 33.5333 33.6858 33.603 33.7836C33.6453 33.8247 33.696 33.8559 33.7516 33.8751C33.8071 33.8943 33.8662 33.901 33.9246 33.8947C34.1176 33.8701 34.3027 33.8022 34.4664 33.6959C34.7177 33.5303 34.9568 33.3466 35.182 33.1463H35.1791ZM33.5595 33.1024H33.6464C33.6763 33.1005 33.7063 33.1005 33.7362 33.1024C33.8902 33.0895 34.0415 33.0541 34.1853 32.9972C34.3349 32.9407 34.4703 32.8518 34.5823 32.737C34.6346 32.6858 34.676 32.6244 34.7039 32.5566C34.7318 32.4887 34.7456 32.4157 34.7445 32.3422C34.7445 32.2311 34.6866 32.1756 34.5678 32.1756C34.3786 32.1967 34.2015 32.2799 34.0636 32.4124C33.8315 32.5769 33.6555 32.8097 33.5595 33.079" fill="#1D1D1B"/>
<path d="M35.4981 32.6512C35.5389 32.5786 35.5728 32.5022 35.5995 32.4232C35.634 32.3188 35.6838 32.2202 35.7473 32.1308C35.7715 32.0985 35.8032 32.0726 35.8395 32.0553C35.8758 32.038 35.9158 32.0298 35.9559 32.0314C35.9743 32.0343 35.991 32.0439 36.0028 32.0585C36.0146 32.0731 36.0206 32.0916 36.0196 32.1103C36.0128 32.155 35.997 32.1978 35.9733 32.2361C35.9414 32.2945 35.9269 32.3296 35.9211 32.3355L35.7444 32.7185L35.5619 33.1278C35.5068 33.2506 35.4489 33.3705 35.3938 33.4874H35.417C35.4981 33.4026 35.6314 33.2711 35.8139 33.0898C35.9965 32.9085 36.1964 32.7185 36.4166 32.505C36.5721 32.3553 36.7408 32.2202 36.9207 32.1016L36.9903 32.0577C37.0207 32.0369 37.0527 32.0183 37.0859 32.0022C37.1113 31.9905 37.139 31.9845 37.167 31.9846C37.2028 31.985 37.2374 31.9974 37.2655 32.0197C37.2795 32.0307 37.2908 32.045 37.2983 32.0612C37.3059 32.0775 37.3095 32.0953 37.309 32.1133C37.2975 32.195 37.2699 32.2735 37.2278 32.3442C37.1757 32.4553 37.1409 32.5255 37.1322 32.5518C36.8686 33.1512 36.6947 33.54 36.6165 33.7213L36.5933 33.7769C36.5933 33.7769 36.5933 33.7973 36.6397 33.812C36.6574 33.8007 36.6771 33.7928 36.6976 33.7886C36.8451 33.7082 36.9822 33.61 37.1061 33.4962L37.5784 33.1132H37.6016C37.6248 33.1132 37.6364 33.1307 37.6364 33.1687C37.6384 33.2172 37.6284 33.2654 37.6074 33.3091C37.5782 33.3528 37.5419 33.3913 37.5002 33.4231C37.3468 33.5543 37.1852 33.6754 37.0163 33.7856C36.8785 33.8847 36.7285 33.9653 36.5701 34.0254C36.5298 34.0316 36.4888 34.0316 36.4485 34.0254C36.3528 34.0254 36.2978 33.9874 36.2891 33.9114C36.3281 33.7545 36.3794 33.601 36.4427 33.4523C36.5093 33.3003 36.5788 33.16 36.6571 32.9933L36.9323 32.4524C36.942 32.4283 36.9469 32.4024 36.9468 32.3764C36.9468 32.3618 36.9468 32.353 36.9323 32.353C36.9027 32.3575 36.8748 32.3696 36.8512 32.3881C36.7041 32.4875 36.5646 32.5979 36.434 32.7185C36.3007 32.8413 36.1645 32.9787 36.0196 33.1307C35.8748 33.2828 35.7299 33.4231 35.5821 33.5985C35.4344 33.7739 35.2924 33.8909 35.1707 34.0049C35.1431 34.0223 35.1103 34.0295 35.078 34.0254C35.0114 34.0254 34.9795 33.9991 34.9795 33.9464V33.8997C35.0432 33.7389 35.1475 33.464 35.2895 33.0752C35.2518 33.119 35.1997 33.1775 35.1331 33.2477C35.0885 33.2963 35.0411 33.3422 34.9911 33.3851C34.9534 33.3851 34.936 33.3325 34.936 33.2681C34.9404 33.2331 34.9516 33.1993 34.969 33.1687C34.9864 33.1381 35.0097 33.1112 35.0374 33.0898C35.0809 33.0401 35.1533 32.967 35.2576 32.8676C35.3478 32.7851 35.4321 32.6961 35.5097 32.6015" fill="#1D1D1B"/>
<path d="M38.9545 32.027C39.0211 31.796 39.0878 31.5884 39.1544 31.4013C39.221 31.2142 39.2964 31.0329 39.3804 30.8458C39.4644 30.6587 39.56 30.4686 39.6701 30.261C39.7173 30.1706 39.779 30.0886 39.8527 30.0184C39.899 29.9653 39.9628 29.9311 40.0323 29.9219C40.1134 29.9219 40.154 30.0008 40.154 30.1587C40.1448 30.2983 40.1254 30.4371 40.096 30.5739C40.0386 30.8202 39.968 31.0632 39.8845 31.3019C39.7696 31.638 39.6352 31.967 39.4818 32.2872C39.3024 32.6714 39.0952 33.0418 38.8618 33.3953C38.8618 33.4537 38.8473 33.5356 38.8328 33.6438C38.8183 33.752 38.8792 33.8367 38.9661 33.8455C39.0612 33.8203 39.152 33.7809 39.2355 33.7286C39.3271 33.6721 39.4143 33.6085 39.4963 33.5385L39.7628 33.3134C39.8816 33.1848 39.9599 33.1234 39.9975 33.1234C40.0352 33.1234 40.0207 33.1643 40.0207 33.2432C40.0199 33.2919 40.0036 33.339 39.9743 33.3777C39.9411 33.4191 39.9032 33.4563 39.8613 33.4888L39.7281 33.597C39.5919 33.714 39.4847 33.8017 39.4123 33.8572C39.3288 33.921 39.2384 33.9749 39.1428 34.018C39.0468 34.0676 38.9406 34.0936 38.8328 34.094C38.7979 34.0981 38.7626 34.0905 38.7323 34.0726C38.702 34.0547 38.6783 34.0273 38.6647 33.9946C38.6326 33.9104 38.614 33.8216 38.6097 33.7315C38.6145 33.7025 38.6145 33.6728 38.6097 33.6438C38.5865 33.6584 38.5199 33.7169 38.4069 33.8134C38.3179 33.8927 38.2207 33.9623 38.1171 34.0209C38.0355 34.0628 37.945 34.0838 37.8535 34.0823C37.5638 34.0823 37.4131 33.8894 37.4131 33.4976C37.4123 33.2351 37.4824 32.9773 37.6159 32.752C37.7519 32.5281 37.9424 32.3429 38.1693 32.2141C38.4049 32.0819 38.6704 32.0134 38.94 32.0153L38.9545 32.027ZM38.8589 32.2024C38.8215 32.1827 38.7791 32.1745 38.7372 32.179C38.6204 32.1857 38.5065 32.2187 38.404 32.2755C38.119 32.422 37.884 32.6511 37.7289 32.9333C37.6532 33.0767 37.6116 33.2358 37.6072 33.3982C37.6072 33.7052 37.6912 33.8631 37.8535 33.8748C38.0621 33.8748 38.3113 33.6818 38.6068 33.3309C38.6598 33.192 38.6986 33.048 38.7227 32.9012C38.7806 32.6351 38.827 32.4012 38.8589 32.2024ZM38.9284 32.9012C39.0965 32.6533 39.2393 32.3888 39.3543 32.1117C39.5015 31.7748 39.6283 31.4292 39.7339 31.0767C39.8226 30.8141 39.8828 30.5426 39.9135 30.2669C39.7639 30.4919 39.634 30.7296 39.5253 30.9773C39.3862 31.2896 39.2653 31.6098 39.1631 31.9363C39.0627 32.2481 38.9843 32.5666 38.9284 32.8895V32.9012Z" fill="#1D1D1B"/>
<path d="M40.8264 31.9289C40.8561 31.9234 40.8865 31.9234 40.9162 31.9289C40.9886 31.9289 41.0234 31.9611 41.0234 32.0254C41.0234 32.0897 41.0002 32.1219 40.9509 32.1307C40.6532 32.206 40.3909 32.3839 40.2092 32.6335C40.0508 32.8535 39.961 33.1161 39.9514 33.3879C39.9514 33.5048 39.9803 33.5925 39.989 33.6452C40.0029 33.6996 40.0298 33.7498 40.0673 33.7913C40.0896 33.8165 40.1168 33.8368 40.1472 33.8509C40.1776 33.8649 40.2105 33.8725 40.244 33.8732C40.3674 33.8592 40.4841 33.8094 40.5801 33.7299C40.685 33.6581 40.7754 33.5668 40.8466 33.461C40.7662 33.3423 40.7246 33.2012 40.7279 33.0575C40.7342 32.8667 40.7775 32.6789 40.8553 32.5049C40.8804 32.427 40.9291 32.359 40.9947 32.3107C41.0602 32.2624 41.1392 32.2362 41.2204 32.2359C41.3102 32.2359 41.3653 32.2622 41.3884 32.3178C41.4127 32.3962 41.4235 32.4783 41.4203 32.5604C41.4214 32.6773 41.4048 32.7937 41.3711 32.9054C41.3403 33.0068 41.2996 33.1047 41.2494 33.1978L41.1509 33.382H41.2001L41.2552 33.3996C41.329 33.3939 41.4004 33.3709 41.4638 33.3323C41.5351 33.2902 41.603 33.2423 41.6666 33.1891L41.7651 33.1043C41.7796 33.1043 41.7883 33.1364 41.7883 33.1978C41.7875 33.2611 41.768 33.3227 41.7324 33.3747C41.6968 33.4268 41.6467 33.467 41.5884 33.4902C41.4682 33.5584 41.3347 33.5993 41.1972 33.6101L41.0234 33.575C40.906 33.7139 40.7694 33.835 40.6178 33.9346C40.496 34.0121 40.356 34.0555 40.2121 34.0603C40.1454 34.0647 40.0786 34.0527 40.0175 34.0252C39.9564 33.9977 39.9029 33.9555 39.8615 33.9024C39.7658 33.7395 39.7232 33.5503 39.7399 33.3615V33.3031C39.7381 33.0312 39.8268 32.7666 39.9919 32.5517C40.1214 32.373 40.2837 32.2212 40.47 32.1043C40.5837 32.0351 40.7029 31.9755 40.8264 31.926V31.9289ZM40.9973 33.268C41.0617 33.1406 41.1169 33.0087 41.1625 32.8733C41.2018 32.7683 41.2253 32.6579 41.232 32.5458C41.232 32.4786 41.232 32.4464 41.1972 32.4464C41.1625 32.4464 41.0697 32.5049 41.0118 32.6248C40.9543 32.7486 40.9218 32.8828 40.9162 33.0195C40.921 33.1081 40.949 33.1938 40.9973 33.268Z" fill="#1D1D1B"/>
<path d="M41.582 33.1615C41.9944 32.7989 42.3727 32.3986 42.712 31.9656C42.7348 31.9125 42.7504 31.8564 42.7584 31.799C42.7731 31.7173 42.8026 31.639 42.8453 31.568C42.8651 31.5373 42.8929 31.5127 42.9255 31.4967C42.9582 31.4808 42.9946 31.4741 43.0307 31.4774C43.0945 31.4774 43.1234 31.5183 43.1234 31.6002C43.1178 31.6756 43.095 31.7486 43.0568 31.8136C43.0121 31.8932 42.9554 31.9652 42.8887 32.027C42.871 32.1076 42.8632 32.1901 42.8656 32.2726C42.8656 32.4276 42.8656 32.5124 42.8656 32.5241C42.8656 32.5358 42.8656 32.6206 42.8656 32.6586C42.8656 32.6966 42.8656 32.7346 42.8656 32.7784C42.8656 32.8223 42.8656 32.8779 42.8656 32.9363C42.857 33.1122 42.8219 33.2858 42.7613 33.4509C42.7259 33.5453 42.6823 33.6363 42.6309 33.7228C42.8175 33.6591 42.9948 33.5706 43.1582 33.4597C43.2966 33.3764 43.4258 33.2784 43.5435 33.1673C43.5435 33.1673 43.5609 33.1468 43.5725 33.1468C43.5841 33.1468 43.5957 33.1761 43.5957 33.2316C43.5984 33.2667 43.5984 33.3018 43.5957 33.3369C43.5862 33.3589 43.5724 33.3788 43.5551 33.3954C43.4392 33.4831 43.2712 33.5971 43.051 33.7374C42.8775 33.859 42.6797 33.9409 42.4715 33.9772C42.4147 33.9868 42.3592 34.0035 42.3064 34.0269L42.1615 34.0795C42.1163 34.0922 42.0693 34.0971 42.0224 34.0941C41.7617 34.0941 41.6342 34.0386 41.6342 33.9275C41.6342 33.8719 41.6661 33.8456 41.7298 33.8456H41.8167H41.9181L42.0485 33.8632C42.1484 33.8568 42.2464 33.833 42.3382 33.793C42.4657 33.7316 42.5498 33.5708 42.5932 33.3135C42.6367 33.0562 42.6685 32.7287 42.6946 32.3574C42.6512 32.413 42.5787 32.489 42.4802 32.5913L42.063 33.0036L41.7733 33.2959C41.7313 33.3411 41.6836 33.3805 41.6313 33.4129C41.5994 33.4129 41.5849 33.3749 41.5849 33.3193C41.5831 33.2921 41.5873 33.2649 41.5974 33.2396C41.6074 33.2143 41.6229 33.1915 41.6429 33.1731" fill="#1D1D1B"/>
<path d="M45.1317 33.1716C45.1397 33.1709 45.1477 33.1725 45.1549 33.1761C45.162 33.1797 45.168 33.1852 45.1723 33.1921C45.1819 33.2002 45.1881 33.2117 45.1897 33.2242C45.1897 33.3032 45.1752 33.3529 45.1433 33.3763C44.9447 33.5686 44.7273 33.74 44.4943 33.8879C44.2875 34.022 44.0476 34.0949 43.8018 34.0984C43.7317 34.0972 43.6619 34.0894 43.5932 34.075C43.5448 34.0585 43.5007 34.0309 43.4646 33.9944C43.4284 33.9578 43.401 33.9134 43.3846 33.8645C43.3242 33.7133 43.2965 33.5508 43.3035 33.388C43.2999 33.3373 43.2999 33.2865 43.3035 33.2359C43.3213 33.0685 43.3834 32.909 43.4831 32.774C43.5895 32.6251 43.7163 32.4922 43.8598 32.3793C43.9983 32.2669 44.1478 32.1689 44.306 32.0869C44.4152 32.0318 44.5346 31.9999 44.6565 31.9933C44.753 31.989 44.848 32.0179 44.926 32.0752C44.9572 32.1009 44.9821 32.1336 44.9986 32.1706C45.0152 32.2076 45.0231 32.248 45.0216 32.2886C45.0179 32.4099 44.9903 32.5291 44.9405 32.6395C44.8854 32.7681 44.8188 32.8412 44.7377 32.8558C44.722 32.8472 44.7055 32.8404 44.6884 32.8354C44.6747 32.8318 44.6623 32.8245 44.6526 32.8141C44.6428 32.8038 44.6362 32.7909 44.6334 32.7769C44.6334 32.733 44.6797 32.6629 44.7261 32.5605C44.7652 32.4902 44.7936 32.4143 44.8101 32.3354C44.8113 32.3127 44.8056 32.2901 44.7937 32.2707C44.7818 32.2514 44.7642 32.2362 44.7435 32.2272C44.7025 32.2049 44.6568 32.1929 44.6102 32.1922C44.562 32.1929 44.5142 32.2008 44.4682 32.2155C44.1476 32.3653 43.8747 32.6022 43.6801 32.8997C43.5827 33.0457 43.5257 33.2152 43.515 33.3909C43.515 33.7125 43.628 33.8821 43.8598 33.8996C44.0737 33.8552 44.2779 33.772 44.4624 33.654C44.6889 33.5031 44.9066 33.3391 45.1143 33.1628" fill="#1D1D1B"/>
<path d="M46.0036 31.9289C46.0343 31.9234 46.0657 31.9234 46.0964 31.9289C46.1688 31.9289 46.2036 31.9611 46.2036 32.0254C46.2036 32.0897 46.1804 32.1219 46.1311 32.1306C45.8516 32.2018 45.6027 32.3631 45.4223 32.59C45.2419 32.8169 45.1398 33.0971 45.1315 33.3878C45.146 33.5048 45.1576 33.5925 45.1692 33.6451C45.1831 33.6996 45.2099 33.7498 45.2474 33.7913C45.2697 33.8165 45.2969 33.8368 45.3273 33.8508C45.3577 33.8649 45.3907 33.8725 45.4242 33.8732C45.5475 33.8592 45.6643 33.8094 45.7603 33.7299C45.8645 33.6572 45.9548 33.5661 46.0268 33.4609C45.9465 33.3421 45.9041 33.2013 45.9051 33.0575C45.914 32.8667 45.9582 32.6792 46.0355 32.5049C46.0605 32.427 46.1093 32.359 46.1748 32.3107C46.2404 32.2624 46.3194 32.2362 46.4006 32.2359C46.4904 32.2359 46.5454 32.2622 46.5686 32.3178C46.5928 32.3962 46.6036 32.4783 46.6005 32.5604C46.6002 32.6772 46.5836 32.7933 46.5512 32.9054C46.5205 33.0068 46.4797 33.1047 46.4295 33.1978L46.331 33.382H46.3803L46.4353 33.3995C46.5091 33.3939 46.5806 33.3709 46.6439 33.3323C46.7148 33.2909 46.7818 33.2429 46.8439 33.189L46.9453 33.1042C46.9598 33.1042 46.9684 33.1364 46.9684 33.1978C46.9676 33.2611 46.9482 33.3226 46.9126 33.3747C46.877 33.4268 46.8268 33.467 46.7685 33.4902C46.6483 33.5584 46.5149 33.5993 46.3774 33.6101L46.2036 33.575C46.0855 33.7132 45.949 33.8342 45.7979 33.9346C45.6762 34.0121 45.5362 34.0555 45.3923 34.0603C45.3255 34.0647 45.2587 34.0527 45.1976 34.0252C45.1365 33.9976 45.083 33.9555 45.0417 33.9024C44.946 33.7395 44.9034 33.5502 44.92 33.3615V33.3031C44.9182 33.0312 45.007 32.7666 45.1721 32.5517C45.3016 32.373 45.4639 32.2212 45.6502 32.1043C45.7627 32.0347 45.8809 31.975 46.0036 31.926V31.9289ZM46.1775 33.268C46.2419 33.1406 46.2971 33.0087 46.3426 32.8733C46.382 32.7683 46.4054 32.6579 46.4122 32.5458C46.4122 32.4786 46.4122 32.4464 46.3774 32.4464C46.3108 32.4464 46.247 32.5049 46.192 32.6248C46.1332 32.7482 46.1006 32.8826 46.0964 33.0195C46.1012 33.1081 46.1292 33.1938 46.1775 33.268Z" fill="#1D1D1B"/>
<path d="M47.8928 32.05L47.8233 32.281L47.7537 32.512C47.8368 32.3949 47.9341 32.2888 48.0435 32.1962C48.1682 32.0707 48.3318 31.9922 48.507 31.974C48.5698 31.9638 48.6342 31.9685 48.6948 31.988C48.7554 32.0074 48.8107 32.041 48.8561 32.0859C48.9015 32.1309 48.9358 32.186 48.9562 32.2468C48.9766 32.3076 48.9825 32.3724 48.9735 32.436C48.9747 32.5344 48.964 32.6326 48.9416 32.7283C48.8966 32.9413 48.8045 33.1412 48.6722 33.3131C48.578 33.4554 48.4744 33.5912 48.3622 33.7195C48.5407 33.7133 48.7141 33.6577 48.8634 33.5587C49.0657 33.4317 49.2593 33.291 49.4429 33.1377C49.4748 33.1377 49.4892 33.1669 49.4892 33.2225C49.4882 33.2557 49.4805 33.2884 49.4665 33.3186C49.4526 33.3487 49.4327 33.3757 49.4081 33.3979C49.033 33.7592 48.5386 33.9675 48.0203 33.9826C47.9132 34.0482 47.789 34.0797 47.6639 34.0733C47.597 34.078 47.5301 34.0649 47.4698 34.0353C47.4198 33.9986 47.379 33.9505 47.351 33.8949C47.351 33.8248 47.4176 33.7897 47.5509 33.7897H47.6176C47.6773 33.7846 47.7374 33.7846 47.7972 33.7897H47.8899H47.9334C48.0753 33.6799 48.2054 33.5555 48.3216 33.4184C48.4382 33.276 48.5356 33.1187 48.6113 32.9506C48.6859 32.7976 48.7255 32.6298 48.7272 32.4594C48.7272 32.2927 48.6664 32.2108 48.5389 32.2108C48.4467 32.2161 48.3576 32.2464 48.281 32.2986C48.1521 32.386 48.0361 32.4913 47.9363 32.6114C47.8336 32.7252 47.7369 32.8442 47.6465 32.9681C47.5741 33.0733 47.5248 33.1464 47.4959 33.1961C47.393 33.3673 47.3076 33.5485 47.2409 33.737C47.1771 33.9224 47.1258 34.1119 47.0873 34.3042C47.0468 34.4894 47.0033 34.7175 46.957 34.9884C46.9106 35.2574 46.8816 35.4182 46.87 35.4679C46.8543 35.5283 46.8267 35.585 46.7889 35.6345C46.7483 35.6813 46.7136 35.7076 46.6817 35.7076C46.6498 35.7076 46.6006 35.655 46.6006 35.5497C46.6107 35.3523 46.6408 35.1563 46.6904 34.965C46.7484 34.6989 46.8237 34.4212 46.9077 34.123C46.9917 33.8248 47.0757 33.5616 47.154 33.3219C47.2322 33.0821 47.2931 32.9272 47.3278 32.8541L47.0526 33.1464C46.9164 33.2897 46.8295 33.3803 46.7889 33.4154C46.7483 33.4505 46.7889 33.4154 46.7628 33.4359C46.7529 33.4355 46.7432 33.4326 46.7346 33.4275C46.726 33.4224 46.7188 33.4152 46.7136 33.4067C46.6992 33.3852 46.692 33.3595 46.6933 33.3336C46.6922 33.3082 46.6968 33.2828 46.7068 33.2595C46.7169 33.2362 46.7321 33.2155 46.7512 33.1991C46.8034 33.1406 46.9077 33.0383 47.0584 32.9067C47.1717 32.7945 47.2781 32.6753 47.3771 32.55C47.4367 32.4865 47.491 32.418 47.5393 32.3453C47.5816 32.2879 47.6139 32.2236 47.6349 32.1553C47.6465 32.1027 47.6668 32.0705 47.6958 32.0588C47.7379 32.0452 47.782 32.0392 47.8262 32.0413C47.8529 32.0358 47.8805 32.0358 47.9073 32.0413" fill="#1D1D1B"/>
<path d="M50.0888 32.0508H50.3351C50.2924 32.1704 50.243 32.2875 50.1873 32.4016L49.9614 32.8519C49.8657 33.0361 49.7904 33.1881 49.7383 33.3109C49.6853 33.4341 49.6417 33.5611 49.6079 33.691C49.6114 33.7043 49.6184 33.7165 49.6282 33.7261C49.683 33.7021 49.7354 33.6727 49.7846 33.6384C49.9496 33.5018 50.1073 33.3563 50.2569 33.2027C50.4684 32.9922 50.6712 32.7788 50.8653 32.5654C51.007 32.4161 51.1368 32.2557 51.2536 32.0859C51.2536 32.0859 51.2941 32.0625 51.355 32.0625C51.4158 32.0625 51.4998 32.08 51.4998 32.1093C51.4332 32.2525 51.3463 32.4455 51.2333 32.694L50.8943 33.4425L50.6277 34.0272L50.9638 33.7349L51.4477 33.3255L51.7374 33.0975C51.7374 33.0975 51.7635 33.0975 51.7751 33.1326C51.7886 33.1598 51.7956 33.1898 51.7954 33.2203C51.7977 33.2421 51.7947 33.2642 51.7866 33.2846C51.7785 33.3049 51.7656 33.323 51.749 33.3372C51.7055 33.3723 51.6012 33.4571 51.4361 33.5974L50.9725 33.9892C50.8335 34.112 50.7002 34.2319 50.5785 34.3488C50.4915 34.4232 50.4146 34.5087 50.3496 34.6032C50.2888 34.7143 50.2076 34.8956 50.0975 35.1178C50.0293 35.2517 49.9684 35.3894 49.915 35.53C49.8984 35.5697 49.8725 35.6048 49.8397 35.6324C49.8019 35.6675 49.752 35.6864 49.7006 35.685C49.6813 35.6867 49.6618 35.6842 49.6435 35.6776C49.6252 35.6711 49.6085 35.6607 49.5945 35.6472C49.5805 35.6336 49.5696 35.6172 49.5624 35.599C49.5552 35.5808 49.5519 35.5613 49.5528 35.5417C49.5528 35.5417 49.5528 35.5096 49.5528 35.4832C49.5528 35.4569 49.5528 35.4394 49.5528 35.4248C49.6153 35.2145 49.7133 35.0166 49.8426 34.84C49.9485 34.6698 50.0667 34.5076 50.196 34.3547C50.2322 34.3134 50.2625 34.2671 50.2859 34.2173C50.3061 34.1705 50.3351 34.1032 50.367 34.0126C50.3989 33.922 50.4307 33.8518 50.4539 33.7992C50.4771 33.7465 50.5495 33.5945 50.6538 33.3694L50.903 32.8285C50.8277 32.8987 50.706 33.0244 50.5321 33.2027C50.3583 33.3811 50.2105 33.5273 50.0946 33.6354C49.9847 33.7434 49.8654 33.8412 49.7383 33.9278C49.6258 34.003 49.4981 34.052 49.3645 34.0711C49.2921 34.0711 49.2573 34.036 49.2573 33.9688C49.2614 33.9068 49.274 33.8458 49.295 33.7875C49.3626 33.6199 49.4234 33.4795 49.4775 33.3665C49.5325 33.2495 49.576 33.1706 49.6021 33.1209L49.4427 33.2846L49.2834 33.4512C49.263 33.4463 49.2435 33.4384 49.2254 33.4279C49.2139 33.4205 49.2045 33.41 49.1984 33.3977C49.1923 33.3853 49.1896 33.3715 49.1907 33.3577C49.1977 33.2845 49.2318 33.2166 49.2863 33.1676C49.3326 33.1179 49.4282 33.0215 49.576 32.8753C49.6809 32.7781 49.7778 32.6725 49.8657 32.5595C49.9122 32.4894 49.952 32.415 49.9845 32.3373L50.1004 32.0712" fill="#1D1D1B"/>
<path d="M51.8589 34.0878H51.8096C51.7914 34.0903 51.7728 34.0865 51.757 34.0769C51.7412 34.0673 51.7291 34.0526 51.7227 34.0352C51.7096 33.9867 51.7037 33.9364 51.7053 33.8861C51.7188 33.8164 51.7569 33.7541 51.8125 33.7107C51.8668 33.6623 51.9371 33.6362 52.0096 33.6376C52.0733 33.6376 52.1052 33.6844 52.1052 33.7808C52.1043 33.8523 52.0775 33.9209 52.0298 33.9738C51.9885 34.0316 51.9277 34.0721 51.8589 34.0878ZM52.0617 33.2838L52.986 30.7899C52.9896 30.7641 53.0019 30.7404 53.0207 30.7226C53.0576 30.6932 53.1044 30.6796 53.1511 30.6846C53.1638 30.6827 53.1768 30.6838 53.1891 30.6878C53.2013 30.6918 53.2125 30.6986 53.2217 30.7076C53.231 30.7167 53.238 30.7277 53.2424 30.74C53.2467 30.7522 53.2482 30.7653 53.2467 30.7782C53.2499 30.7995 53.2499 30.8212 53.2467 30.8425L52.2587 33.2955C52.2511 33.3222 52.2361 33.3462 52.2157 33.3648C52.1952 33.3834 52.1699 33.3959 52.1428 33.4008C52.1256 33.3991 52.1094 33.3919 52.0965 33.3803C52.0829 33.3668 52.0738 33.3495 52.0704 33.3306C52.0718 33.315 52.0718 33.2994 52.0704 33.2838" fill="#1D1D1B"/>
<path d="M52.0078 11.7967L50.9011 13.124L51.3559 14.7935L49.7653 14.1444L48.3311 15.0946L48.4557 13.3696L47.1113 12.2878L48.7802 11.8697L49.3828 10.25L50.2926 11.7206L52.0078 11.7967Z" fill="#FBB800"/>
<path d="M35.229 12.5415C35.2303 12.7683 35.1819 12.9926 35.0873 13.1983C34.9926 13.4041 34.854 13.5861 34.6814 13.7314C34.3169 14.0485 33.8516 14.223 33.3704 14.223C32.8891 14.223 32.4238 14.0485 32.0593 13.7314C31.8871 13.586 31.7489 13.4038 31.6547 13.1981C31.5606 12.9923 31.5127 12.7681 31.5146 12.5415C31.5184 12.3996 31.5369 12.2585 31.5697 12.1204C31.361 12.1029 31.2278 12.0912 31.1727 12.0912C30.4658 12.0912 30.1152 12.3836 30.1152 12.9859C30.1152 13.2782 30.3209 13.9712 30.7381 15.0325C31.1553 16.0938 31.361 16.9212 31.361 17.5206C31.361 18.8051 30.658 19.768 29.2518 20.4092C28.0857 20.9056 26.8288 21.1477 25.5634 21.1197C24.4015 21.1393 23.2448 20.9563 22.1446 20.5788C20.7442 20.074 20.0449 19.2943 20.0469 18.2398C20.0469 16.7097 21.3362 15.9457 23.9148 15.9476H26.5688L27.0759 17.0703H25.0071C24.5397 17.0602 24.0758 17.1541 23.6483 17.3452C23.4304 17.4233 23.2414 17.5669 23.1067 17.7566C22.9721 17.9464 22.8982 18.1731 22.895 18.4065C22.895 18.9386 23.2427 19.3508 23.9351 19.652C24.476 19.8861 25.0589 20.0055 25.6475 20.0028C26.3269 20.0274 26.9984 19.8483 27.5771 19.4882C27.8628 19.3123 28.0969 19.0628 28.2553 18.7652C28.4137 18.4677 28.4906 18.1329 28.4782 17.7954C28.415 17.0394 28.2187 16.3008 27.8987 15.6143C27.5766 14.9193 27.3804 14.1717 27.3192 13.4069C27.3192 11.6955 28.7621 10.8398 31.6479 10.8398H33.3689C33.8358 10.8387 34.2867 11.0115 34.6351 11.3252C34.8177 11.4704 34.9658 11.655 35.0686 11.8654C35.1713 12.0759 35.2262 12.3069 35.229 12.5415Z" fill="#4D4D4D"/>
<path d="M36.4515 15.3529H36.6572C37.2367 15.3529 37.5409 15.5634 37.5409 15.9786C37.5475 16.1067 37.5232 16.2345 37.4702 16.351C37.4173 16.4676 37.3371 16.5696 37.2367 16.6481C36.9803 16.8205 36.6751 16.9037 36.3675 16.8849H35.8576L34.9246 19.2005H35.704C36.2835 19.2005 36.5906 19.4081 36.5906 19.8262C36.5962 19.9544 36.571 20.082 36.517 20.1981C36.463 20.3142 36.3818 20.4153 36.2806 20.4928C36.0249 20.6671 35.7193 20.7513 35.4114 20.7326H34.1655C33.8659 20.7491 33.5697 20.6625 33.3253 20.487C33.2245 20.4084 33.1438 20.3066 33.0898 20.1901C33.0359 20.0737 33.0103 19.9459 33.0152 19.8175C33.0189 19.6162 33.0612 19.4177 33.1398 19.2327L33.2731 18.9228L34.096 16.8762H33.9917C33.4701 16.8762 33.2094 16.6744 33.2094 16.2651C33.2053 16.1351 33.232 16.0059 33.2875 15.8884C33.3429 15.7709 33.4254 15.6685 33.5281 15.5897C33.7832 15.4141 34.0889 15.3287 34.3973 15.3471H34.716L35.0869 14.4202L35.1622 14.2302C35.3824 13.7098 35.7243 13.4496 36.1936 13.4496C36.3771 13.4464 36.5542 13.5169 36.6862 13.6455C36.7517 13.704 36.8039 13.7761 36.8394 13.8568C36.8749 13.9375 36.8928 14.025 36.8919 14.1132C36.8769 14.3476 36.8148 14.5764 36.7094 14.7857L36.4515 15.3529Z" fill="#4D4D4D"/>
<path d="M42.0175 19.2006H42.7853C43.3647 19.2006 43.6545 19.4052 43.6545 19.8175C43.6602 19.9468 43.6348 20.0755 43.5803 20.1927C43.5258 20.3098 43.4438 20.4118 43.3416 20.4899C43.0864 20.6656 42.7807 20.7509 42.4723 20.7326H41.5829C41.4177 20.7467 41.2522 20.7098 41.1084 20.6267C40.9645 20.5437 40.8491 20.4185 40.7774 20.2677C40.5105 20.5449 40.1513 20.7126 39.7691 20.7384H38.9752C38.7415 20.7465 38.509 20.7009 38.2952 20.6052C38.0814 20.5095 37.8919 20.3661 37.741 20.1859C37.4136 19.779 37.2456 19.2651 37.2687 18.7415C37.2671 17.8483 37.5968 16.9868 38.193 16.3265C38.4405 16.0038 38.7561 15.7409 39.117 15.5568C39.4778 15.3727 39.8748 15.2721 40.2791 15.2623C40.5311 15.2418 40.784 15.2882 41.0128 15.397C41.2415 15.5057 41.438 15.673 41.5829 15.8821C41.6755 15.7208 41.8086 15.5869 41.9689 15.494C42.1291 15.4011 42.3107 15.3525 42.4955 15.3529C42.6858 15.3484 42.8701 15.4198 43.0084 15.5517C43.0743 15.613 43.1268 15.6877 43.1622 15.7708C43.1977 15.8539 43.2153 15.9437 43.2141 16.0342C43.2068 16.1979 43.1684 16.3587 43.1011 16.5078L43.0257 16.6978L42.0175 19.2006ZM39.4881 19.2356H39.6648C39.8248 19.2507 39.9853 19.213 40.1222 19.1281C40.2591 19.0432 40.365 18.9158 40.4239 18.7649L40.9107 17.5486C40.9672 17.4222 41.0006 17.2865 41.0092 17.1481C41.0077 17.0815 40.9901 17.0162 40.9577 16.9581C40.9254 16.8999 40.8794 16.8507 40.8238 16.8148C40.6958 16.7192 40.5396 16.6697 40.3805 16.6745C40.1816 16.6925 39.9894 16.7558 39.8183 16.8597C39.6471 16.9635 39.5016 17.1051 39.3925 17.2738C39.0919 17.6166 38.9215 18.0559 38.9115 18.5135C38.9115 18.993 39.1027 19.2356 39.4881 19.2356Z" fill="#4D4D4D"/>
<path d="M45.6685 16.8928L45.4338 17.4775C45.2194 18.0009 44.9412 18.264 44.5964 18.264C44.4048 18.2711 44.2179 18.203 44.0749 18.074C44.0081 18.0157 43.9548 17.9434 43.9187 17.862C43.8827 17.7807 43.8648 17.6923 43.8663 17.6032C43.8862 17.412 43.9371 17.2253 44.017 17.0506L44.805 15.0888C44.9982 14.6152 45.2677 14.3784 45.6134 14.3784C45.7614 14.3623 45.9099 14.4043 46.0281 14.4958C46.1462 14.5872 46.225 14.7211 46.2479 14.8695L46.303 15.0888C46.3077 15.1312 46.3216 15.1719 46.3436 15.2083C46.3657 15.2447 46.3953 15.2757 46.4305 15.2993C46.5641 15.3377 46.7034 15.3516 46.8419 15.3403H48.4702C49.0786 15.3403 49.3828 15.5566 49.3828 15.9893C49.3828 16.5741 48.9965 16.8665 48.2239 16.8665L48.1457 16.9366C47.4098 17.65 47.0389 18.1997 47.0389 18.5885C47.0389 18.9774 47.2533 19.1733 47.6792 19.1733H48.5484C49.1279 19.1733 49.435 19.3779 49.435 19.7902C49.4416 19.9197 49.4168 20.0489 49.3628 20.1666C49.3088 20.2843 49.2271 20.3869 49.125 20.4656C48.8695 20.6402 48.5638 20.7245 48.2558 20.7053H46.8911C46.6778 20.7124 46.4656 20.6726 46.269 20.5888C46.0724 20.505 45.8962 20.3792 45.7525 20.22C45.4486 19.8737 45.2897 19.422 45.3092 18.9598C45.31 18.6264 45.3916 18.2982 45.5468 18.0038C45.7796 17.5921 46.0607 17.2102 46.3841 16.8665L45.6685 16.8928Z" fill="#4D4D4D"/>
<path d="M52.0709 17.2755L51.9405 17.5971C51.7348 18.062 51.4451 18.2959 51.0713 18.2959C50.8813 18.2963 50.6981 18.2242 50.5585 18.0941C50.4892 18.0389 50.4329 17.9688 50.3938 17.8889C50.3547 17.809 50.3338 17.7213 50.3325 17.6322C50.3514 17.4024 50.4207 17.1797 50.5353 16.9802L51.4625 15.0798C51.6885 14.6266 51.9724 14.3985 52.3114 14.3985C52.4843 14.3956 52.6516 14.4606 52.7779 14.5798C52.8395 14.6316 52.889 14.6964 52.9231 14.7697C52.9571 14.8429 52.9748 14.9228 52.9749 15.0037C52.9674 15.0963 52.9529 15.1882 52.9314 15.2786C52.9142 15.3692 52.9045 15.4611 52.9025 15.5534C52.912 15.8859 53.0267 16.2066 53.2299 16.4685L53.6268 17.024C53.9958 17.4945 54.2077 18.0707 54.2323 18.6701C54.2366 18.9499 54.1802 19.2273 54.0671 19.4829C53.954 19.7384 53.7869 19.9659 53.5775 20.1495C53.1268 20.5458 52.5438 20.7547 51.9463 20.7343H50.4977C49.9182 20.7343 49.614 20.5267 49.614 20.1144C49.6087 19.9856 49.6344 19.8574 49.6888 19.7408C49.7433 19.6242 49.825 19.5227 49.9269 19.4449C50.1814 19.2678 50.4876 19.1823 50.7961 19.2022H51.6044C52.2505 19.2022 52.5751 18.9654 52.5751 18.4918C52.563 18.2764 52.5004 18.0669 52.3925 17.8807L52.0709 17.2755Z" fill="#4D4D4D"/>
<path d="M0 5.48828H6.27277V7.47057H2.56126V9.55227H5.05008V11.5346H2.56126V13.6718H6.27277V15.7389H0V5.48828Z" fill="#1A1A1A"/>
<path d="M7.02881 8.51141H9.25977V9.47624H9.28584C9.51272 9.12395 9.82374 8.83488 10.1903 8.63563C10.5569 8.43638 10.9672 8.33334 11.3835 8.33599C12.3358 8.36717 12.8254 8.91099 12.8525 9.96743V15.7389H10.6244V10.6194C10.6392 10.5364 10.635 10.4511 10.6122 10.37C10.5893 10.2889 10.5483 10.2142 10.4923 10.1516C10.4364 10.0889 10.367 10.04 10.2895 10.0086C10.2119 9.97719 10.1283 9.96411 10.045 9.97035C9.92342 9.96815 9.80292 9.99324 9.69218 10.0438C9.58143 10.0944 9.48322 10.1691 9.40464 10.2627L9.27136 10.4323V15.7243H7.02881V8.51141Z" fill="#1A1A1A"/>
<path d="M19.9947 15.7389H17.842V15.0372H17.8246C17.5748 15.2987 17.2804 15.5126 16.9554 15.6687C16.678 15.7754 16.383 15.828 16.0862 15.8237C15.743 15.8277 15.4057 15.7326 15.1142 15.5498C14.8227 15.367 14.5889 15.1039 14.4405 14.7916C14.0569 14.0552 13.8673 13.2316 13.89 12.4C13.8562 11.4635 14.0242 10.5308 14.3826 9.6663C14.527 9.3096 14.7764 9.0062 15.0971 8.79707C15.4178 8.58794 15.7944 8.48313 16.176 8.4968C16.4831 8.49026 16.789 8.53775 17.08 8.63714C17.3373 8.76875 17.5697 8.94489 17.7667 9.15757V5.48828H19.9947V15.7389ZM17.7667 10.137C17.6742 10.0225 17.5553 9.93252 17.4205 9.87494C17.2857 9.81736 17.1389 9.79391 16.9931 9.80663C16.9078 9.80239 16.8227 9.81843 16.7447 9.85347C16.6667 9.88852 16.5979 9.94158 16.544 10.0084C16.4098 10.1762 16.3254 10.3789 16.3006 10.5931C16.2228 11.0645 16.1879 11.5421 16.1963 12.0199C16.1777 12.6066 16.2126 13.1939 16.3006 13.7741C16.3798 14.2185 16.5729 14.4407 16.8801 14.4407C17.0684 14.4396 17.2525 14.3837 17.4103 14.2799C17.5566 14.1773 17.68 14.0448 17.7725 13.8911L17.7667 10.137Z" fill="#1A1A1A"/>
<path d="M21.0114 12.1019C20.9695 11.134 21.25 10.1798 21.8082 9.39156C22.3442 8.69863 23.141 8.34486 24.1956 8.33609C25.2503 8.32732 26.0644 8.69571 26.6004 9.39156C27.1489 10.1829 27.4248 11.1341 27.3856 12.0989C27.3856 13.2411 27.1287 14.1524 26.6149 14.8326C26.0992 15.546 25.2976 15.9066 24.2101 15.9144C23.1226 15.9222 22.322 15.5616 21.8082 14.8326C21.277 14.1543 21.0114 13.2441 21.0114 12.1019ZM23.3293 12.1019C23.2928 12.73 23.3673 13.3596 23.5495 13.9614C23.5863 14.1054 23.6706 14.2326 23.7886 14.3219C23.9065 14.4112 24.0511 14.4572 24.1985 14.4525C24.3431 14.4524 24.484 14.4063 24.6012 14.321C24.7254 14.2318 24.8195 14.1062 24.8707 13.9614C25.029 13.3552 25.0935 12.7279 25.0619 12.1019C25.0847 11.5008 25.0302 10.8994 24.8997 10.3125C24.8501 10.165 24.7559 10.0368 24.6304 9.94597C24.5049 9.85518 24.3544 9.80635 24.2 9.80635C24.0455 9.80635 23.895 9.85518 23.7695 9.94597C23.644 10.0368 23.5498 10.165 23.5002 10.3125C23.3508 10.8963 23.2931 11.5001 23.3293 12.1019Z" fill="#1A1A1A"/>
<path d="M42.8345 2.26052L41.7278 3.58497L42.1855 5.25734L40.5949 4.60535L39.1607 5.55849L39.2795 3.83056L37.9409 2.74878L39.6069 2.33069L40.2124 0.710938L41.1193 2.18157L42.8345 2.26052Z" fill="#FBB800"/>
<path d="M49.2608 2.95925L48.1569 4.28662L48.6118 5.95607L47.0212 5.30408L45.5899 6.25722L45.7116 4.52929L44.3672 3.44751L46.0332 3.02942L46.6387 1.40967L47.5485 2.8803L49.2608 2.95925Z" fill="#FBB800"/>
<path d="M30.335 5.5613L29.2311 6.88867L29.6831 8.55812L28.0925 7.90613L26.6612 8.85927L26.7829 7.13134L25.4414 6.04956L27.1074 5.63147L27.7129 4.01172L28.6198 5.48236L30.335 5.5613Z" fill="#FBB800"/>
<path d="M36.5469 3.42409L35.4431 4.75146L35.8979 6.41799L34.3073 5.766L32.8731 6.72206L32.9948 4.99413L31.6533 3.91235L33.3193 3.49426L33.9248 1.87451L34.8317 3.34515L36.5469 3.42409Z" fill="#FBB800"/>
<path d="M53.6358 6.04567L52.5319 7.37305L52.9868 9.0425L51.3932 8.39051L49.9619 9.34364L50.0836 7.61864L48.7393 6.53394L50.4081 6.11877L51.0137 4.49609L51.9205 5.96673L53.6358 6.04567Z" fill="#FBB800"/>
<path d="M4.65625 20.4462L5.76014 19.1217L5.30526 17.4493L6.8959 18.1013L8.33009 17.1482L8.2084 18.8761L9.54988 19.9579L7.8839 20.3731L7.27835 21.9957L6.37148 20.5251L4.65625 20.4462Z" fill="#FBB800"/>
<path d="M18.1724 28.2291L19.2792 26.9047L18.8243 25.2323L20.4149 25.8872L21.8491 24.9341L21.7274 26.662L23.0689 27.7409L21.4029 28.159L20.7974 29.7787L19.8876 28.3081L18.1724 28.2291Z" fill="#FBB800"/>
<path d="M11.4561 28.118L12.5599 26.7907L12.1051 25.1212L13.6957 25.7732L15.1299 24.8171L15.0082 26.5451L16.3497 27.6268L14.6837 28.0449L14.0782 29.6676L13.1713 28.1941L11.4561 28.118Z" fill="#FBB800"/>
<path d="M30.3818 24.3419L31.4886 23.0175L31.0337 21.348L32.6244 21.9971L34.0557 21.0469L33.9369 22.7719L35.2784 23.8537L33.6095 24.2718L33.0039 25.8915L32.1 24.4209L30.3818 24.3419Z" fill="#FBB800"/>
<path d="M24.459 26.7745L25.5658 25.4472L25.108 23.7777L26.6986 24.4297L28.1328 23.4766L28.0111 25.2045L29.3526 26.2863L27.6866 26.7014L27.0811 28.3241L26.1742 26.8535L24.459 26.7745Z" fill="#FBB800"/>
<path d="M5.05566 26.7819L6.15956 25.4574L5.70467 23.788L7.29532 24.437L8.72951 23.4839L8.60492 25.2118L9.94929 26.2936L8.28331 26.7117L7.67777 28.3314L6.768 26.8608L5.05566 26.7819Z" fill="#FBB800"/>
<path d="M54.6729 11.6339C54.8482 11.6329 55.0219 11.6687 55.1828 11.7391C55.3421 11.808 55.4867 11.9073 55.6087 12.0315C55.7305 12.1546 55.8287 12.2993 55.8984 12.4584C55.9672 12.6205 56.0027 12.7951 56.0027 12.9715C56.0027 13.1479 55.9672 13.3224 55.8984 13.4846C55.8305 13.6456 55.7321 13.7916 55.6087 13.9144C55.4872 14.0379 55.3437 14.1371 55.1857 14.2068C55.0224 14.2795 54.8456 14.3164 54.6671 14.3149C54.4898 14.3159 54.3143 14.2801 54.1513 14.2097C53.995 14.1386 53.8526 14.0395 53.7312 13.9173C53.6082 13.7953 53.5098 13.6503 53.4415 13.4905C53.3727 13.3219 53.3401 13.1405 53.3459 12.9583C53.3448 12.8388 53.3604 12.7197 53.3922 12.6046C53.4238 12.4919 53.4696 12.3838 53.5284 12.283C53.5855 12.1842 53.6557 12.0937 53.737 12.014C53.8176 11.9325 53.9081 11.8618 54.0065 11.8035C54.1062 11.7443 54.2134 11.6991 54.3252 11.669C54.4388 11.6408 54.5559 11.629 54.6729 11.6339ZM54.6729 14.0898C54.8193 14.0901 54.9642 14.0602 55.0988 14.0021C55.2306 13.9455 55.3505 13.8641 55.4522 13.7624C55.5527 13.6588 55.6342 13.538 55.6927 13.4057C55.7542 13.2649 55.7839 13.1121 55.7796 12.9583C55.7805 12.8115 55.7509 12.6661 55.6927 12.5315C55.6345 12.3997 55.5541 12.279 55.4551 12.1748C55.3527 12.0731 55.233 11.9909 55.1017 11.9321C54.9642 11.8734 54.8164 11.8432 54.6671 11.8432C54.5178 11.8432 54.37 11.8734 54.2325 11.9321C54.1018 11.9905 53.9829 12.0728 53.8819 12.1748C53.7801 12.2767 53.6994 12.3979 53.6443 12.5315C53.5861 12.6661 53.5565 12.8115 53.5574 12.9583C53.5568 13.107 53.5864 13.2543 53.6443 13.391C53.7015 13.5242 53.7831 13.6452 53.8848 13.7477C53.9854 13.8516 54.1055 13.9342 54.2382 13.9904C54.3736 14.0539 54.5207 14.0878 54.67 14.0898H54.6729ZM55.2755 13.7127H55.0089L54.8959 13.3998C54.8759 13.3143 54.8271 13.2385 54.758 13.1852C54.6888 13.1319 54.6034 13.1044 54.5164 13.1074H54.331V13.6922H54.1021V12.2713H54.6381C55.0244 12.2713 55.2176 12.4028 55.2176 12.666C55.2243 12.7185 55.2197 12.7718 55.2039 12.8224C55.1882 12.8729 55.1618 12.9194 55.1265 12.9586C55.0913 12.9978 55.048 13.0288 54.9997 13.0495C54.9513 13.0701 54.8991 13.0799 54.8467 13.0782C54.913 13.0969 54.9739 13.1314 55.0243 13.1787C55.0747 13.226 55.1131 13.2848 55.1364 13.3501L55.2755 13.7127ZM54.331 12.9116H54.6207C54.8496 12.9116 54.9626 12.8385 54.9626 12.6923C54.9626 12.5461 54.8438 12.4671 54.6091 12.4671H54.3194L54.331 12.9116Z" fill="black"/>
</g>
<defs>
<clipPath id="clip0_834_5643">
<rect width="56" height="35" fill="white" transform="translate(0 0.710938)"/>
</clipPath>
</defs>
</svg>
