<svg width="29" height="28" viewBox="0 0 29 28" fill="none" xmlns="http://www.w3.org/2000/svg">
<path d="M19.6348 1.16507V4.91117C19.6348 6.01574 20.5302 6.91117 21.6348 6.91117H25.1552L22.3985 3.24782L19.6348 1.16507Z" fill="black"/>
<path d="M22.5674 27.1836H6.56738C5.18667 27.1836 4.06738 26.0643 4.06738 24.6836V3.68359C4.06738 2.30288 5.18667 1.18359 6.56738 1.18359H20.2281L25.0674 6.42656V24.6836C25.0674 26.0643 23.9481 27.1836 22.5674 27.1836Z" stroke="black"/>
<rect y="11.8555" width="29" height="9.90503" rx="2" fill="black"/>
<path d="M8.8418 17.7939V19.6641H7.42578V13.9756H9.85254C10.3148 13.9756 10.7249 14.0586 11.083 14.2246C11.4411 14.3874 11.7161 14.6201 11.9082 14.9229C12.1035 15.2256 12.2012 15.5674 12.2012 15.9482C12.2012 16.5114 11.988 16.9606 11.5615 17.2959C11.1351 17.6279 10.5573 17.7939 9.82812 17.7939H8.8418ZM8.8418 16.6562H9.85254C10.152 16.6562 10.3831 16.5944 10.5459 16.4707C10.7119 16.347 10.7949 16.1761 10.7949 15.958C10.7949 15.7074 10.7119 15.5055 10.5459 15.3525C10.3831 15.1995 10.1569 15.1214 9.86719 15.1182H8.8418V16.6562ZM13.0117 19.6641V13.9756H14.9551C15.4889 13.9756 15.9707 14.0895 16.4004 14.3174C16.8301 14.5452 17.1654 14.8659 17.4062 15.2793C17.6504 15.6895 17.7757 16.1517 17.7822 16.666V16.9346C17.7822 17.4521 17.6618 17.9209 17.4209 18.3408C17.1833 18.7575 16.8496 19.083 16.4199 19.3174C15.9935 19.5485 15.5101 19.6641 14.9697 19.6641H13.0117ZM14.4277 15.1182V18.5312H14.9697C15.4515 18.5312 15.8014 18.4092 16.0195 18.165C16.2409 17.9176 16.3548 17.5286 16.3613 16.998V16.7051C16.3613 16.1615 16.2523 15.7643 16.0342 15.5137C15.8193 15.2598 15.4808 15.1279 15.0186 15.1182H14.4277ZM22.3916 17.4473H20.0039V19.6641H18.5879V13.9756H22.6504V15.1182H20.0039V16.3096H22.3916V17.4473Z" fill="white"/>
</svg>
