<svg width="23" height="28" viewBox="0 0 23 28" fill="none" xmlns="http://www.w3.org/2000/svg">
<path d="M6.10254 15.8125V18.8047H3.83691V9.70312H7.71973C8.45931 9.70312 9.11556 9.83594 9.68848 10.1016C10.2614 10.362 10.7015 10.7344 11.0088 11.2188C11.3213 11.7031 11.4775 12.25 11.4775 12.8594C11.4775 13.7604 11.1364 14.4792 10.4541 15.0156C9.77181 15.5469 8.84733 15.8125 7.68066 15.8125H6.10254ZM6.10254 13.9922H7.71973C8.19889 13.9922 8.56868 13.8932 8.8291 13.6953C9.09473 13.4974 9.22754 13.224 9.22754 12.875C9.22754 12.474 9.09473 12.151 8.8291 11.9062C8.56868 11.6615 8.20671 11.5365 7.74316 11.5312H6.10254V13.9922ZM16.0641 14.0391L17.7829 9.70312H20.1813L16.9625 16.7344L16.5797 17.4688C16.0537 18.3958 15.3063 18.8906 14.3375 18.9531L13.8688 18.9609L13.2516 18.9375L13.236 17.1172C13.361 17.138 13.5693 17.1484 13.861 17.1484C14.1214 17.1484 14.3427 17.0964 14.525 16.9922C14.7073 16.888 14.8662 16.7057 15.0016 16.4453L11.5719 9.70312H14.025L16.0641 14.0391Z" fill="#0F0F0F"/>
<path d="M16.6367 1.16507V4.91117C16.6367 6.01574 17.5321 6.91117 18.6367 6.91117H22.1571L19.4005 3.24782L16.6367 1.16507Z" fill="black"/>
<path d="M19.5693 27.1836H3.56934C2.18862 27.1836 1.06934 26.0643 1.06934 24.6836V3.68359C1.06934 2.30288 2.18862 1.18359 3.56934 1.18359H17.23L22.0693 6.42656V24.6836C22.0693 26.0643 20.95 27.1836 19.5693 27.1836Z" stroke="black"/>
</svg>
