<svg width="23" height="28" viewBox="0 0 23 28" fill="none" xmlns="http://www.w3.org/2000/svg">
<path d="M16.5957 1.16507V4.91117C16.5957 6.01574 17.4911 6.91117 18.5957 6.91117H22.1161L19.3595 3.24782L16.5957 1.16507Z" fill="black"/>
<path d="M19.5283 27.1836H3.52832C2.14761 27.1836 1.02832 26.0643 1.02832 24.6836V3.68359C1.02832 2.30288 2.14761 1.18359 3.52832 1.18359H17.189L22.0283 6.42656V24.6836C22.0283 26.0643 20.909 27.1836 19.5283 27.1836Z" stroke="black"/>
<path d="M11.0879 11.5312H8.13477V18.8047H5.86914V11.5312H2.9707V9.70312H11.0879V11.5312ZM16.9082 12.375C16.9082 12.0573 16.7832 11.8151 16.5332 11.6484C16.2884 11.4766 15.9395 11.3906 15.4863 11.3906C15.1165 11.3906 14.8171 11.4609 14.5879 11.6016C14.3587 11.7422 14.2441 11.9297 14.2441 12.1641H11.9785C11.9785 11.3724 12.3014 10.7448 12.9473 10.2812C13.5931 9.8125 14.4447 9.57812 15.502 9.57812C16.6582 9.57812 17.5566 9.79688 18.1973 10.2344C18.8431 10.6667 19.166 11.2708 19.166 12.0469C19.166 12.5104 19.0306 12.9245 18.7598 13.2891C18.4889 13.6536 18.1217 13.9401 17.6582 14.1484C18.1999 14.3307 18.6113 14.6068 18.8926 14.9766C19.1738 15.3464 19.3145 15.776 19.3145 16.2656C19.3145 17.0938 18.9733 17.7448 18.291 18.2188C17.6139 18.6927 16.6842 18.9297 15.502 18.9297C14.403 18.9297 13.5176 18.6849 12.8457 18.1953C12.179 17.7057 11.8457 17.0391 11.8457 16.1953H14.1113C14.1217 16.4818 14.2493 16.7109 14.4941 16.8828C14.7389 17.0495 15.0853 17.1328 15.5332 17.1328C16.028 17.1328 16.4056 17.0391 16.666 16.8516C16.9264 16.6589 17.0566 16.388 17.0566 16.0391C17.0566 15.3047 16.5462 14.9297 15.5254 14.9141H14.377V13.4062H15.6035C16.4733 13.3854 16.9082 13.0417 16.9082 12.375Z" fill="#0F0F0F"/>
</svg>
