<svg width="44" height="45" viewBox="0 0 44 45" fill="none" xmlns="http://www.w3.org/2000/svg">
<path d="M16.0991 1.21495C15.8711 1.36804 15.6778 1.56712 15.5314 1.7994C15.385 2.03168 15.2888 2.29202 15.249 2.56369L16.7602 2.33323L16.8962 3.31929L17.8898 2.89615V3.85576L18.8986 3.42884L19.0194 4.40356L19.8393 3.97287L21.2107 4.65669L18.6379 5.57097L21.3618 5.31406L20.44 6.53057L19.4388 6.45501L19.8166 7.41462H18.6454L19.1328 8.31756H17.973L18.3508 9.29606L16.8962 9.71919C17.0552 9.94716 17.2587 10.1406 17.4944 10.288C17.73 10.4354 17.9931 10.5336 18.2676 10.5768C19.4237 10.6977 20.5344 9.8552 20.5344 9.8552L22.9712 6.68169L22.5934 6.01299L23.0846 5.04204L24.5958 4.70958L24.4333 3.95398L22.9221 4.29023L22.0192 3.50818L22.0456 2.75259L18.4339 0.920263C18.4339 0.920263 17.0851 0.618024 16.0991 1.21495Z" fill="#FFE600"/>
<path d="M11.3147 7.03966L10.8425 6.76387C10.4885 6.54978 10.094 6.41142 9.6838 6.35753C9.27364 6.30364 8.85675 6.33539 8.45948 6.45077C8.0622 6.56616 7.69316 6.76266 7.37568 7.02789C7.0582 7.29312 6.79916 7.6213 6.61493 7.99171L5.96134 9.26867C5.15662 10.8441 5.58354 12.7595 6.92473 13.5491L7.34031 13.7909C8.68149 14.5767 10.5554 14.0214 11.5301 12.5404L12.3197 11.3428C12.5504 10.9985 12.7078 10.6105 12.7822 10.2028C12.8566 9.79509 12.8464 9.37645 12.7521 8.97288C12.6579 8.56932 12.4816 8.18944 12.2344 7.85687C11.9871 7.5243 11.6741 7.24613 11.3147 7.03966ZM11.3147 11.6148C10.7065 12.6537 9.28597 12.9484 8.14124 12.2759L7.78611 12.0682C6.65271 11.3957 6.21069 10.0054 6.81894 8.97021L7.31386 8.13149C7.92212 7.09633 9.34263 6.80165 10.4874 7.47413L10.8425 7.68191C11.9759 8.3544 12.4179 9.74092 11.8097 10.7761L11.3147 11.6148Z" fill="#FFE600"/>
<path d="M8.66982 14.2919C8.17007 14.2936 7.67873 14.1632 7.24553 13.9141L6.83373 13.6723C5.42832 12.8449 4.97117 10.835 5.80989 9.19537L6.46348 7.91841C6.72438 7.39759 7.1244 6.95918 7.6192 6.65177C8.11399 6.34435 8.68423 6.17994 9.26674 6.17676C9.84138 6.18019 10.4047 6.33668 10.8988 6.63012L11.3711 6.90591C11.748 7.12309 12.0766 7.41512 12.3365 7.76402C12.5964 8.11292 12.7821 8.51132 12.8823 8.93469C12.9791 9.35836 12.9885 9.79733 12.9099 10.2248C12.8313 10.6522 12.6663 11.0591 12.4251 11.4206L11.6355 12.6182C11.3155 13.1182 10.8778 13.5321 10.3608 13.8239C9.84384 14.1156 9.26325 14.2763 8.66982 14.2919ZM9.26674 6.47522C8.73906 6.47861 8.22262 6.62792 7.77455 6.90663C7.32647 7.18535 6.96423 7.58259 6.72793 8.05442L6.07435 9.33138C5.31875 10.8426 5.69655 12.6673 6.98106 13.4154L7.39664 13.6572C7.7838 13.8799 8.22315 13.996 8.66982 13.9934C9.21421 13.9786 9.74663 13.8303 10.2203 13.5615C10.6939 13.2928 11.0943 12.9117 11.3862 12.452L12.1758 11.2582C12.397 10.9291 12.5481 10.558 12.6196 10.168C12.6911 9.77803 12.6815 9.37748 12.5914 8.99136C12.5016 8.60687 12.3334 8.24503 12.0975 7.92846C11.8615 7.61188 11.5628 7.34738 11.22 7.15148L10.7477 6.87569C10.3026 6.61284 9.795 6.47452 9.27807 6.47522H9.26674ZM9.4443 12.7807C8.95918 12.78 8.48308 12.6495 8.06534 12.4029L7.71021 12.1951C6.49748 11.481 6.04035 10.0001 6.69016 8.89313L7.18508 8.05442C7.39226 7.71228 7.68627 7.43106 8.03728 7.2393C8.38829 7.04754 8.78379 6.95207 9.18362 6.96258C9.66862 6.9642 10.1445 7.09458 10.5626 7.34038L10.9139 7.54817C12.1267 8.26221 12.5876 9.7394 11.9378 10.8463L11.4429 11.6851C11.2371 12.0262 10.9451 12.3071 10.5962 12.4994C10.2473 12.6918 9.85394 12.7888 9.45564 12.7807H9.4443ZM9.18362 7.25726C8.83537 7.24753 8.4907 7.32971 8.18429 7.49551C7.87788 7.66132 7.62055 7.9049 7.4382 8.20176L6.94706 9.04047C6.38036 10.0039 6.78838 11.3073 7.86133 11.9344L8.21646 12.1422C8.58798 12.3633 9.01198 12.4807 9.4443 12.4822C9.79242 12.4917 10.1369 12.4089 10.4427 12.2424C10.7486 12.0759 11.005 11.8315 11.186 11.5339L11.6809 10.6952C12.2476 9.73184 11.8358 8.42844 10.7666 7.80507L10.4115 7.59728C10.0431 7.37849 9.62338 7.26117 9.19497 7.25726H9.18362Z" fill="#FFE600" stroke="#FFE600" stroke-width="0.5"/>
<path d="M7.24151 23.3116C7.24151 23.2852 7.21128 23.2474 7.13572 23.2021C7.01398 23.1247 6.90909 23.0237 6.8273 22.9049C6.74551 22.7861 6.6885 22.652 6.65969 22.5107C6.59921 21.738 6.6501 20.9606 6.81081 20.2024C7.0017 19.4665 7.29416 18.7608 7.67975 18.1056C7.94421 17.6862 8.54113 17.7278 8.56002 17.6409C8.5978 17.4784 7.19239 17.01 5.4054 16.5906C3.58441 16.1675 2.07701 15.9597 2.03923 16.1297C2.02034 16.2015 2.56814 16.4395 2.62103 16.9306C2.67837 17.6891 2.63134 18.4518 2.48124 19.1974C2.28899 19.9484 1.99136 20.6683 1.5972 21.3358C1.50958 21.4495 1.39978 21.5444 1.27445 21.6145C1.14912 21.6846 1.01087 21.7286 0.86805 21.7438C0.777378 21.7438 0.728259 21.7702 0.720703 21.7967C0.720703 21.7967 0.720703 21.7967 0.720703 21.8156C0.732519 21.8277 0.745143 21.8391 0.758485 21.8496L0.822716 21.8911L0.913384 21.9402L1.03428 21.9931L1.1854 22.0536L1.36296 22.1216C2.18555 22.404 3.023 22.6411 3.87154 22.8318C3.88404 22.834 3.89682 22.834 3.90932 22.8318H3.94332H4L4.26445 22.8885H4.32112L4.58937 22.9452H4.63092L4.90293 23.0018H4.93315L5.20517 23.0509H5.23162L5.4923 23.1001L5.74543 23.1454H5.77187L5.99478 23.1832H6.03255L6.22901 23.2096H6.27813L6.44058 23.2323H6.50102H6.62947H6.70503H7.05639H7.13572C7.18484 23.2323 7.21128 23.2096 7.21506 23.1907L7.24151 23.3116Z" fill="#FFE600" stroke="#FFE600" stroke-width="0.5"/>
<path d="M43.6952 25.2378C43.8435 22.301 43.347 19.3673 42.2407 16.6429C40.7077 12.8309 38.0526 9.57462 34.6272 7.30565C31.2019 5.03669 27.1679 3.86209 23.0599 3.9375L22.7161 5.5507C26.5598 5.42667 30.3493 6.48252 33.575 8.57628C36.8007 10.67 39.308 13.7013 40.7597 17.2624C41.7802 19.7774 42.2368 22.4856 42.0971 25.1962C41.914 28.7715 40.7148 32.2203 38.6403 35.138C36.5658 38.0556 33.7022 40.321 30.3854 41.6682C28.1023 42.5965 25.6576 43.0621 23.1932 43.0381C20.7288 43.0141 18.2936 42.501 16.029 41.5284C13.7602 40.5734 11.7035 39.1777 9.9778 37.4222C8.25214 35.6667 6.89189 33.5863 5.97583 31.3014C4.95497 28.7865 4.49843 26.0783 4.63843 23.3677C4.82618 19.711 6.07898 16.189 8.24262 13.2351L6.89011 12.37C4.57877 15.5624 3.24163 19.356 3.04035 23.2921C2.89916 26.2229 3.4021 29.1489 4.51376 31.8644C6.53591 36.8639 10.4591 40.8569 15.4221 42.9669C20.3852 45.0769 25.9827 45.1316 30.9861 43.119C34.5853 41.6551 37.6925 39.1954 39.9435 36.0284C42.1945 32.8613 43.4959 29.1182 43.6952 25.2378Z" fill="#FFE600" stroke="#FFE600" stroke-width="0.5"/>
<path d="M22.23 3.93293L22.2207 5.29297L23.8376 5.30399L23.8469 3.94395L22.23 3.93293Z" fill="#FFE600" stroke="#FFE600" stroke-width="0.5"/>
</svg>
