<svg width="44" height="45" viewBox="0 0 44 45" fill="none" xmlns="http://www.w3.org/2000/svg">
<path d="M16.0991 1.08213C15.8711 1.23523 15.6778 1.43431 15.5314 1.66659C15.385 1.89887 15.2888 2.15921 15.249 2.43088L16.7602 2.20042L16.8962 3.18647L17.8898 2.76334V3.72295L18.8986 3.29603L19.0194 4.27075L19.8393 3.84006L21.2107 4.52388L18.6379 5.43815L21.3618 5.18125L20.44 6.39776L19.4388 6.3222L19.8166 7.28181H18.6454L19.1328 8.18474H17.973L18.3508 9.16325L16.8962 9.58638C17.0552 9.81435 17.2587 10.0078 17.4944 10.1552C17.73 10.3026 17.9931 10.4008 18.2676 10.444C19.4237 10.5649 20.5344 9.72239 20.5344 9.72239L22.9712 6.54888L22.5934 5.88018L23.0846 4.90923L24.5958 4.57677L24.4333 3.82117L22.9221 4.15742L22.0192 3.37537L22.0456 2.61978L18.4339 0.787451C18.4339 0.787451 17.0851 0.485212 16.0991 1.08213Z" fill="#FFE600"/>
<path d="M11.3143 6.90685L10.842 6.63105C10.488 6.41696 10.0935 6.27861 9.68332 6.22471C9.27315 6.17082 8.85626 6.20258 8.45899 6.31796C8.06171 6.43334 7.69268 6.62985 7.37519 6.89508C7.05771 7.16031 6.79867 7.48849 6.61444 7.8589L5.96085 9.13586C5.15614 10.7113 5.58306 12.6267 6.92424 13.4163L7.33982 13.6581C8.681 14.4439 10.5549 13.8886 11.5296 12.4076L12.3192 11.21C12.5499 10.8657 12.7073 10.4777 12.7817 10.07C12.8561 9.66227 12.8459 9.24364 12.7516 8.84007C12.6574 8.4365 12.4812 8.05663 12.2339 7.72406C11.9866 7.39148 11.6736 7.11332 11.3143 6.90685ZM11.3143 11.482C10.706 12.5209 9.28548 12.8156 8.14075 12.1431L7.78562 11.9353C6.65222 11.2629 6.2102 9.87256 6.81846 8.8374L7.31337 7.99868C7.92163 6.96352 9.34215 6.66884 10.4869 7.34132L10.842 7.5491C11.9754 8.22158 12.4174 9.6081 11.8092 10.6433L11.3143 11.482Z" fill="#FFE600"/>
<path d="M8.67031 14.1581C8.17056 14.1598 7.67922 14.0295 7.24601 13.7803L6.83422 13.5385C5.42881 12.7111 4.97166 10.7012 5.81037 9.06158L6.46397 7.78462C6.72487 7.2638 7.12489 6.82539 7.61969 6.51798C8.11448 6.21057 8.68472 6.04615 9.26723 6.04297C9.84187 6.0464 10.4052 6.20289 10.8993 6.49633L11.3716 6.77212C11.7485 6.9893 12.0771 7.28133 12.337 7.63023C12.5969 7.97914 12.7826 8.37753 12.8828 8.8009C12.9796 9.22457 12.989 9.66354 12.9104 10.091C12.8318 10.5184 12.6668 10.9253 12.4256 11.2868L11.636 12.4844C11.316 12.9844 10.8783 13.3983 10.3613 13.6901C9.84433 13.9819 9.26374 14.1425 8.67031 14.1581ZM9.26723 6.34143C8.73955 6.34482 8.22311 6.49413 7.77503 6.77284C7.32696 7.05156 6.96472 7.4488 6.72842 7.92063L6.07484 9.19759C5.31924 10.7088 5.69704 12.5335 6.98155 13.2816L7.39713 13.5234C7.78429 13.7462 8.22364 13.8622 8.67031 13.8596C9.2147 13.8448 9.74711 13.6965 10.2208 13.4277C10.6944 13.159 11.0948 12.778 11.3867 12.3182L12.1763 11.1244C12.3975 10.7953 12.5486 10.4242 12.6201 10.0342C12.6916 9.64424 12.682 9.24369 12.5919 8.85757C12.5021 8.47308 12.3339 8.11124 12.0979 7.79467C11.862 7.4781 11.5633 7.21359 11.2204 7.01769L10.7482 6.7419C10.3031 6.47905 9.79548 6.34074 9.27856 6.34143H9.26723ZM9.44479 12.6469C8.95967 12.6462 8.48357 12.5157 8.06583 12.2691L7.7107 12.0613C6.49797 11.3473 6.04084 9.86629 6.69065 8.75934L7.18557 7.92063C7.39275 7.57849 7.68676 7.29728 8.03777 7.10552C8.38878 6.91375 8.78427 6.81828 9.18411 6.82879C9.66911 6.83042 10.145 6.96079 10.5631 7.20659L10.9144 7.41438C12.1272 8.12842 12.5881 9.60561 11.9383 10.7126L11.4433 11.5513C11.2376 11.8924 10.9456 12.1733 10.5967 12.3656C10.2478 12.558 9.85443 12.655 9.45613 12.6469H9.44479ZM9.18411 7.12347C8.83585 7.11374 8.49119 7.19592 8.18478 7.36172C7.87837 7.52753 7.62104 7.77111 7.43868 8.06797L6.94755 8.90668C6.38085 9.87007 6.78887 11.1735 7.86182 11.8006L8.21695 12.0084C8.58847 12.2295 9.01247 12.3469 9.44479 12.3484C9.79291 12.3579 10.1373 12.2751 10.4432 12.1086C10.7491 11.9421 11.0055 11.6977 11.1864 11.4002L11.6814 10.5614C12.2481 9.59805 11.8363 8.29465 10.7671 7.67128L10.412 7.46349C10.0436 7.2447 9.62387 7.12738 9.19546 7.12347H9.18411Z" fill="#FFE600" stroke="#FFE600" stroke-width="0.5"/>
<path d="M7.24151 23.1788C7.24151 23.1524 7.21128 23.1146 7.13572 23.0693C7.01398 22.9919 6.90909 22.8908 6.8273 22.7721C6.74551 22.6533 6.6885 22.5192 6.65969 22.3779C6.59921 21.6052 6.6501 20.8278 6.81081 20.0695C7.0017 19.3337 7.29416 18.6279 7.67975 17.9728C7.94421 17.5534 8.54113 17.595 8.56002 17.5081C8.5978 17.3456 7.19239 16.8771 5.4054 16.4578C3.58441 16.0347 2.07701 15.8269 2.03923 15.9969C2.02034 16.0687 2.56814 16.3067 2.62103 16.7978C2.67837 17.5562 2.63134 18.319 2.48124 19.0646C2.28899 19.8155 1.99136 20.5355 1.5972 21.2029C1.50958 21.3167 1.39978 21.4116 1.27445 21.4817C1.14912 21.5518 1.01087 21.5958 0.86805 21.611C0.777378 21.611 0.728259 21.6374 0.720703 21.6639C0.720703 21.6639 0.720703 21.6638 0.720703 21.6827C0.732519 21.6949 0.745143 21.7063 0.758485 21.7167L0.822716 21.7583L0.913384 21.8074L1.03428 21.8603L1.1854 21.9208L1.36296 21.9888C2.18555 22.2712 3.023 22.5083 3.87154 22.699C3.88404 22.7012 3.89682 22.7012 3.90932 22.699H3.94332H4L4.26445 22.7557H4.32112L4.58937 22.8124H4.63092L4.90293 22.869H4.93315L5.20517 22.9181H5.23162L5.4923 22.9673L5.74543 23.0126H5.77187L5.99478 23.0504H6.03255L6.22901 23.0768H6.27813L6.44058 23.0995H6.50102H6.62947H6.70503H7.05639H7.13572C7.18484 23.0995 7.21128 23.0768 7.21506 23.0579L7.24151 23.1788Z" fill="#FFE600" stroke="#FFE600" stroke-width="0.5"/>
<path d="M43.6957 25.1045C43.844 22.1677 43.3475 19.234 42.2412 16.5096C40.7082 12.6976 38.0531 9.44132 34.6277 7.17235C31.2023 4.90338 27.1684 3.72879 23.0604 3.8042L22.7166 5.4174C26.5602 5.29337 30.3497 6.34922 33.5755 8.44298C36.8012 10.5367 39.3085 13.568 40.7602 17.1291C41.7807 19.6441 42.2372 22.3523 42.0976 25.0629C41.9145 28.6382 40.7153 32.087 38.6408 35.0047C36.5663 37.9223 33.7027 40.1877 30.3859 41.5349C28.1028 42.4632 25.6581 42.9288 23.1937 42.9048C20.7292 42.8808 18.2941 42.3677 16.0295 41.3951C13.7607 40.4401 11.7039 39.0444 9.97829 37.2889C8.25263 35.5334 6.89238 33.453 5.97632 31.1681C4.95546 28.6532 4.49892 25.945 4.63891 23.2344C4.82667 19.5777 6.07947 16.0557 8.24311 13.1018L6.8906 12.2367C4.57926 15.4291 3.24212 19.2227 3.04083 23.1588C2.89965 26.0896 3.40259 29.0156 4.51425 31.7311C6.5364 36.7306 10.4595 40.7236 15.4226 42.8336C20.3857 44.9436 25.9832 44.9983 30.9866 42.9857C34.5858 41.5218 37.693 39.0621 39.944 35.8951C42.195 32.728 43.4964 28.9849 43.6957 25.1045Z" fill="#FFE600" stroke="#FFE600" stroke-width="0.5"/>
<path d="M22.23 3.80012L22.2207 5.16016L23.8376 5.17118L23.8469 3.81114L22.23 3.80012Z" fill="#FFE600" stroke="#FFE600" stroke-width="0.5"/>
</svg>
